<svg id="Layer_1" data-name="Layer 1" xmlns="http://www.w3.org/2000/svg" xmlns:xlink="http://www.w3.org/1999/xlink" viewBox="0 0 1205.04 1726.61"><defs><style>.cls-1,.cls-108{fill:none;}.cls-2{fill:#0071bc;}.cls-3{clip-path:url(#clip-path);}.cls-4{fill:#ffcb9e;}.cls-5{fill:#765aa3;}.cls-6{fill:#2b221c;}.cls-7,.cls-88{fill:#bf3c1b;}.cls-12,.cls-21,.cls-28,.cls-53,.cls-7,.cls-76,.cls-8{opacity:0.3;}.cls-8{fill:#c94614;}.cls-16,.cls-9{fill:#45362e;}.cls-10{fill:#bf795c;}.cls-11{fill:#261b18;}.cls-12{fill:#b54d26;}.cls-13{fill:#ffdfc2;}.cls-14{fill:#e6d2c3;}.cls-14,.cls-33,.cls-55,.cls-66{opacity:0.7;}.cls-15{fill:#f5b37a;}.cls-119,.cls-16,.cls-29{opacity:0.5;}.cls-17{clip-path:url(#clip-path-2);}.cls-18{fill:#7ac943;}.cls-19{fill:#3a3a4a;}.cls-20{fill:#1e1e29;}.cls-22{fill:#535363;}.cls-23{fill:#f29f63;}.cls-24{fill:#1c1c26;}.cls-25{fill:#3d2518;}.cls-26{fill:#977053;}.cls-27{fill:#ffbc82;}.cls-28{fill:#a63f24;}.cls-29,.cls-76{fill:#b54319;}.cls-30{fill:#82572e;}.cls-31{fill:#202930;}.cls-32{fill:#ffd4ad;}.cls-33{fill:#c3cee6;}.cls-34{fill:#8f2a25;}.cls-35{fill:#fff7ea;}.cls-36{fill:#ecdcc4;}.cls-37{fill:#9c552c;}.cls-38,.cls-66{fill:#854326;}.cls-39{fill:#d75810;}.cls-40{clip-path:url(#clip-path-3);}.cls-41{fill:#ff931e;}.cls-42{fill:#e62628;}.cls-43{fill:url(#linear-gradient);}.cls-44{fill:#ff3b3b;}.cls-45{fill:#57443a;}.cls-119,.cls-46{fill:#ffc48f;}.cls-47{fill:#425361;}.cls-48{fill:#c3d5e3;}.cls-49{fill:#121b21;}.cls-50{fill:#a80a0a;}.cls-51{fill:#fff9f0;}.cls-52{fill:#e8dac5;}.cls-109,.cls-53,.cls-54,.cls-55,.cls-95{fill:#fff;}.cls-56{fill:#c1c5c9;}.cls-57{fill:#662d91;}.cls-58{clip-path:url(#clip-path-4);}.cls-59{fill:#bcceeb;}.cls-60{fill:#379bdb;}.cls-61{opacity:0.1;}.cls-62{fill:#cbdaf2;}.cls-63{fill:#f7b07c;}.cls-64{fill:#f7a286;}.cls-65{fill:#8f3935;}.cls-67{clip-path:url(#clip-path-5);}.cls-68{fill:#3fa9f5;}.cls-69{fill:#66667d;}.cls-70{fill:#f1aa83;}.cls-71{fill:#5e5a3a;}.cls-72{fill:#9e996f;}.cls-73{fill:#918fa0;}.cls-74{fill:#eba971;}.cls-75{fill:#d99a64;}.cls-77{fill:#231f20;}.cls-78{fill:#c26346;}.cls-79{fill:#8f2724;}.cls-80{clip-path:url(#clip-path-6);}.cls-81{fill:#ff0;}.cls-82{fill:#ebebeb;}.cls-83{fill:#fbfbfb;}.cls-84{fill:#ffb67d;}.cls-85{fill:#255794;}.cls-86{fill:#4e84c7;}.cls-87{fill:#4f2619;}.cls-88{opacity:0.15;}.cls-89{fill:#784430;}.cls-90{font-size:36px;}.cls-110,.cls-112,.cls-90,.cls-93{font-family:OpenSans-Light, Open Sans;}.cls-91,.cls-93{font-size:30px;}.cls-92{font-size:24px;}.cls-94{clip-path:url(#clip-path-7);}.cls-95{font-size:61px;font-family:OpenSans-Extrabold, Open Sans;}.cls-111,.cls-95{font-weight:700;}.cls-96{fill:#39b54a;}.cls-97{fill:#25252e;}.cls-98{fill:#f0eae6;}.cls-99{fill:#c9beb7;}.cls-100{fill:#bc551e;opacity:0.4;}.cls-101{fill:#2b241f;}.cls-102{fill:#305d80;}.cls-103{fill:#8f322d;}.cls-104{fill:#fff3e2;}.cls-105{fill:#e8d5b8;}.cls-106{fill:#ffcb96;}.cls-107{fill:#86bae3;}.cls-108,.cls-109{stroke:#fff;stroke-miterlimit:10;}.cls-108{stroke-width:8px;}.cls-110{font-size:72px;}.cls-111{font-family:OpenSans-Bold, Open Sans;}.cls-112{font-size:48px;}.cls-113{clip-path:url(#clip-path-8);}.cls-114{fill:#5e4684;}.cls-115{fill:#bba7db;}.cls-116{fill:#ffb06b;}.cls-117{opacity:0.12;}.cls-118{fill:#8f2621;}.cls-120{fill:#c4bab1;}.cls-121{fill:#322825;}</style><clipPath id="clip-path"><circle class="cls-1" cx="163.38" cy="984.57" r="109.41"/></clipPath><clipPath id="clip-path-2"><circle class="cls-1" cx="709.99" cy="985.33" r="110.17"/></clipPath><clipPath id="clip-path-3"><circle class="cls-1" cx="709.23" cy="347.87" r="109.41"/></clipPath><linearGradient id="linear-gradient" x1="709.84" y1="412.46" x2="709.84" y2="423.49" gradientUnits="userSpaceOnUse"><stop offset="0" stop-color="#e88958"/><stop offset="0.34" stop-color="#f49d62"/><stop offset="0.69" stop-color="#fcab69"/><stop offset="1" stop-color="#ffb06b"/></linearGradient><clipPath id="clip-path-4"><circle class="cls-1" cx="165.7" cy="347.33" r="108.87"/></clipPath><clipPath id="clip-path-5"><circle class="cls-1" cx="709.34" cy="666.6" r="109.52"/></clipPath><clipPath id="clip-path-6"><circle class="cls-1" cx="165.96" cy="666.48" r="109.41"/></clipPath><clipPath id="clip-path-7"><circle cx="523.89" cy="1568.6" r="109.52"/></clipPath><clipPath id="clip-path-8"><circle class="cls-2" cx="709.15" cy="1293.94" r="109.33"/></clipPath></defs><title>Artboard 21</title><g class="cls-3"><rect class="cls-2" x="53.93" y="875.16" width="218.81" height="218.81"/><path class="cls-4" d="M143.67,1070.83l-7-11.83c-11.41,4.24-14,13.87-16.76,24.06a110.49,110.49,0,0,1-3.41,10.91h17c.9-2.76,1.64-5.44,2.33-8C138.06,1077.56,139.65,1072.32,143.67,1070.83Z"/><path class="cls-4" d="M191,1059l-7,11.83c4,1.49,5.61,6.73,7.89,15.15.68,2.55,1.43,5.23,2.32,8h17a110.49,110.49,0,0,1-3.41-10.91C205,1072.87,202.38,1063.24,191,1059Z"/><path class="cls-4" d="M165.2,1050.39c-18.72-.24-31.09,5.64-31.16,7.47-.69,19.68,5.9,23.82,12.11,28.2,4.34,3,31.52,2.83,35.86,0,6.92-4.44,13.12-8.8,12.55-27.71C194.51,1056.72,183.18,1050.62,165.2,1050.39Z"/><path class="cls-5" d="M190.62,1080.63c-2-5-1.16-10.18-.18-25.68a18.55,18.55,0,0,0-4.52-2c.75,26.66-5.58,31.52-22,31.52-14.51,0-22-3.16-21.07-32.12-3,.86-4,1.15-5.41,2.12.91,13,1.93,20.78-.31,25.91.1,4.48.33,9.11.56,13.59h52.36C190.29,1089.57,190.51,1085,190.62,1080.63Z"/><path class="cls-6" d="M203.68,914.07c-16.85-18.5-44.83-20.48-76.48-6.79a59.24,59.24,0,0,0,16.43-.67c-16.61,7.65-36.26,17.72-40.55,37.28-10.61,48.41,29.29,26.08,42.85,30,15.38,4.4,53.64-.57,64.34-16.5,4.83-7.17,5.1-18,2.34-27.5A40.37,40.37,0,0,0,203.68,914.07Z"/><path class="cls-4" d="M153.45,924.64c-26,5.06-44.29,42.42-39.52,77.46,3.57,26.25,23.82,55,54.32,52.87,31.1-2.21,46.58-40.8,42.57-73.08C206.45,946.8,189.83,917.54,153.45,924.64Z"/><path class="cls-7" d="M187.69,931a118,118,0,0,0-30.93-4.72c-9.31-.15-19.42-.66-28.1,3.15-4.76,2.1-10.62,5-12.41,10.1-1.46,4.2-3.19,9.75-.85,13.43,5,7.8,14.66,3.13,18.33,1.23,8-4.13,44.21-1.31,61.11-1.34,7,0,17.16-1.23,14.25-10.72C206.8,934.65,194.32,932.94,187.69,931Z"/><path class="cls-4" d="M104.87,987.5c-12.76,3.51-7.64,22.14,2.78,25.88a25.3,25.3,0,0,0,10.3,1.12l.21-.32c1.52-2.42-.61-16-1.39-18.55C114.8,989.19,111,985.82,104.87,987.5Z"/><path class="cls-8" d="M109.34,994.36c-2.86-1.32-10,1-6.65,6.66,1.77-5.19,4.93-1.79,4.45,1.9-.32,2.48-3,2.52-.34,5.69,1.43,1.73,4.33,1.09,5.79.17C117.24,1005.85,112.84,996,109.34,994.36Z"/><path class="cls-6" d="M194.28,914.62c-19.63-10.29-49.8-7.61-66.29,4.64-11.21,8.31-17.12,18.31-16.45,32.28.36,7.67,10.68,8.85,15,3.36,3.71-4.7,8.93-5.92,14.88-6.14,9.86-.36,48.46-2.18,57.53.92,5,1.71,11.57,4.29,12.57-3.62,1.08-8.64-1.23-17.63-7.17-23.92A37.87,37.87,0,0,0,194.28,914.62Z"/><path class="cls-9" d="M198.77,917.92c-7.42-7.06-17.81-12.48-27.84-13.41-5.23-.49-15.73-.28-20.73,1.92,1.66.91,6,1.86,7.43,3a110.6,110.6,0,0,0-21,6.86c-2.09.95-19.25,12.6-19.24,12.6,4.77,2.59,10.39,1.63,15.54.48,7.86-1.75,15.63-2.45,23.54-.64,7.35,1.67,14,5.33,21.24,7,.21-3.29-2.93-6.16-4.33-8.4,4.17-.07,20.15,10,23.42,12.71-.78-2.81-4.66-8.72-5.08-11.71,4.07.6,13.31,8.84,16.12,13.59a35.94,35.94,0,0,0-1.1-11.92A28.28,28.28,0,0,0,198.77,917.92Z"/><path class="cls-10" d="M106.63,967c-.38,8.82.41,18.73.92,20.1,6.09.72,13.59,8.93,13.59,8.93-2.11-14.79.2-22.73,3.13-39.09C118.54,956.83,107,959,106.63,967Z"/><path class="cls-11" d="M139,979.18c-6.7-2.88-10.91,9-6.34,12.88a9.61,9.61,0,0,1,6.63.57C143.76,990.3,144,981.33,139,979.18Z"/><path class="cls-12" d="M170.8,1000.55c-3.92.05-5.46-1.74-8.2-.11s1.17,6.85,8.1,6.59,9.89-5,8.46-6.75C177.49,998.23,175.14,1000.5,170.8,1000.55Z"/><path class="cls-13" d="M169.77,985.85c-7.35-.64-7.9,14.9-6.22,16.23,4.12,3.25,12.73.95,15.24-1.67C179.78,999.38,176.79,986.46,169.77,985.85Z"/><path class="cls-11" d="M203.44,978.73c-6.81-4.08-11.81,9.06-6.2,12.77,1.78-1.18,5.35-.82,7.09,0C207.06,988.46,207.09,980.92,203.44,978.73Z"/><path class="cls-14" d="M135.76,982.1c-2.72.92-.65,6.2,2,4.28C139.67,985,138.17,981.28,135.76,982.1Z"/><path class="cls-14" d="M199.94,981c-2.68.54-1.4,5.81,1.35,4.32C203.27,984.24,202.32,980.53,199.94,981Z"/><path class="cls-6" d="M145.23,964.51a33.65,33.65,0,0,0-13.75.82c-7.13,2-7.42,5.54-6.95,7.84s3,1.22,10.95.81c7.36-.37,12.77,1.24,14-2.21A5.27,5.27,0,0,0,145.23,964.51Z"/><path class="cls-6" d="M206.12,965a33.68,33.68,0,0,0-13.78-.05,5.28,5.28,0,0,0-3.78,7.5c1.38,3.37,6.69,1.46,14.05,1.41,8,0,10.55.86,10.88-1.44S213.35,966.49,206.12,965Z"/><path class="cls-6" d="M213.66,1018.5c-.22-2.88,1.87-6.21,2.47-9.18,1.46-7.25,1.74-20.57-5.07-25.23,1.4,13.6-2.85,23.93-5.5,26.47-5.53,5.29-12.25-1.88-14.88-3.72-7.06-5-11.07-2.75-19.51-1.74-11.24.18-16.76-3-24.43,7.11-6,7.81-20.63,4.5-23.8-15.64-.5-3.19.21-10.33-4.85-8.76-5.71,1.78-1.08,30.37-1.09,35.93,0,4.53.53,14.41,6,15.6-1.52,5.52-.7,14.52,7.31,12.29-.44,4.42-.71,9.53,3.4,12.17,3.21,2.07,9.75,2.07,12.37-.86,2.05,3.85,4.77,7.32,9.28,8.28,3.61.78,10.46.31,11.41-4.14,3.63,4.39,23.78,8.47,23.12-1,7.34,5.7,16.15,0,13.72-8.75,7.71.73,9.7-3.21,9-10.17,6.55-1.61,6.62-9.33,5.74-14.83C217.59,1027.68,214,1023,213.66,1018.5Z"/><path class="cls-15" d="M181.85,1016.58c-1.47,3.68-8,1.36-10.4-.18-2.43,2.66-9.29,3.42-11.86.84-.45,2-7.15,3.87-7.47,6.58,5.81,9.75,35.85,6.16,39.07-1C190.56,1020,184,1018.73,181.85,1016.58Z"/><path class="cls-10" d="M160.21,1021.5s13.53,1.81,21.34-.84C178.06,1018.86,163,1020.11,160.21,1021.5Z"/><path class="cls-16" d="M178.78,1033.37c-8.05,1.37-18.2-.42-26.07-2.33-4.82-1.17-6.83-2.45-10.79.88a34.51,34.51,0,0,0-6.71,7.56c-2.44,3.83-1.91,18.63,3.45,11.7.65,8,7.58,6,11.68,1.6,1.17,4,.68,7,5.81,7.81a9,9,0,0,0,8.76-3.89c3.18,1.42,6.91,7.52,11,5.72,2.93-1.28,1.29-6,3.13-6.83,3-1.27,8.11,6.37,11.66,2.59,2.2-2.34-.93-6.12-2-8.25,2.94,1.54,10.93,4.14,13.38.24,1.25-2-.59-6.07-1.26-8.15.65,2,5.67.37,6.22-1.22.81-2.33-2.41-5.74-3.69-7.25C195.9,1024.78,188.32,1031.76,178.78,1033.37Z"/></g><g class="cls-17"><rect class="cls-18" x="599.82" y="875.16" width="220.33" height="220.33"/><path class="cls-19" d="M732,1047.08c-16.33-8.77-40.15-5.75-51,1.31-14.19,9.23-11.91,24.18-8.22,47.11h66.49C743.3,1073.39,745.91,1054.54,732,1047.08Z"/><path class="cls-20" d="M746.33,1054.53c-1.38-3.59-17.58-9-17.58-9-4.52,14.68-5.4,34-5.08,50h21.14C746,1073.51,747.21,1056.82,746.33,1054.53Z"/><path class="cls-20" d="M740.56,1050.3l-3.09,45.2H757.8c.72-5.28,1.85-14.5,2.37-23.68C761,1057.74,750.73,1054.54,740.56,1050.3Z"/><path class="cls-20" d="M682.79,1045.52s-16.2,5.42-17.58,9c-.88,2.29.31,19,1.52,41h21.14C688.18,1079.56,687.31,1060.2,682.79,1045.52Z"/><path class="cls-20" d="M651.37,1071.82c.52,9.18,1.65,18.4,2.38,23.68h20.32L671,1050.3C660.81,1054.54,650.57,1057.74,651.37,1071.82Z"/><path class="cls-21" d="M683.9,1056.32c3.17,11.19,14.06,17.52,14.06,17.52l7.74-9,10.19,8.91c6.94-3.78,13.66-12.8,13.77-20.33C729.73,1048.05,680.75,1045.13,683.9,1056.32Z"/><path class="cls-22" d="M684,1043c-8.67,12.32,13.23,27.88,13.23,27.88l8.51-7.08,9.67,7.4s19.81-11.52,12.79-27C721.91,1030.36,692.76,1030.61,684,1043Z"/><path class="cls-23" d="M721.42,1031.94c-5.5-4.33-16.21-5-22.78-3.61-6.84,1.47-11.38,7.84-11.86,14.4-.59,8.3,11.64,19.4,20.15,19.62C713.33,1062.47,740.52,1047,721.42,1031.94Z"/><path class="cls-22" d="M705.42,1075.61a2.17,2.17,0,1,0,2.17,2.17A2.17,2.17,0,0,0,705.42,1075.61Z"/><path class="cls-22" d="M705.34,1086.46a2.17,2.17,0,1,0,2.16,2.16A2.16,2.16,0,0,0,705.34,1086.46Z"/><path class="cls-24" d="M705.89,1069.59l13.31,8.9c2.45-2.75,3.57-12.58.77-15.62Z"/><path class="cls-24" d="M692.59,1078.49l13.3-8.9-14.07-6.72C689,1065.91,690.14,1075.74,692.59,1078.49Z"/><path class="cls-24" d="M706.87,1064.9c-.34,0-.74,0-1.17,0-1.64-.06-3.75-.17-4.77.82-1.51,1.47-.13,5.11.54,6.79,1,2.56,3.61,1.58,5.95,1.63,3.44.08,4.21-2.56,4.29-5.76C711.8,1064.94,709.6,1064.8,706.87,1064.9Z"/><path class="cls-25" d="M700.74,907.49c-16.54.6-34,8.2-41.86,23.41-3.07,5.91-4.26,13.35-4.45,19.91-.48,15.58-2.46,29.93,4.65,44.61,3.72,7.67,12.93,2.73,19.42,1.23,8-1.85,16-3.51,24-5.15,13.16-2.7,27.52.41,40.8,1.88,10.41,1.14,6.82-8.68,6.14-17.14-1-12.61,2.79-16.13,3.2-22.54C754.65,922.85,739.21,906.08,700.74,907.49Z"/><path class="cls-26" d="M737.73,944.51c-3,23.12-.53,38.36.48,39.81,1.26,0,3.84,0,5.68,1.89,2.47,2.5,2.33,5.19,3,6.55.3.7,5.16,1.49,7.54,1.42C757.91,946.15,749.44,945.58,737.73,944.51Z"/><path class="cls-27" d="M702.21,927.36c-24.82,3.76-43.66,38.41-40.55,71.81,2.34,25,20.36,53.11,49.35,52.28,29.56-.86,45.77-36.8,43.26-67.54C751.54,950.48,737,922.1,702.21,927.36Z"/><path class="cls-28" d="M744.87,938.38c-13.23-5.93-26.13-9.52-40.82-10.4-9-.54-18.72-1.46-27.25,2-12.78,5.14-18.48,13.48-20.64,26.5-.81,4.86-.87,13.06,5.6,13.79,7.57.86,9.61-6.88,12-12.09,2-4.49,5.17-6.95,10.09-7.34,6.82-.55,13.63,2.52,20.41,4.21a37.39,37.39,0,0,0,4.39.86,60.3,60.3,0,0,0,16.85-.61c4.11-.61,7.94-2.29,11.94-3,2.74-.51,6.91-1.16,9.13-2.41C752.22,946.67,748.64,940.06,744.87,938.38Z"/><path class="cls-27" d="M653.66,985c-12.23,2.81-8.13,20.66,1.6,24.62a23.85,23.85,0,0,0,9.72,1.48c.06-.1.14-.19.2-.29,1.55-2.24.06-15.19-.57-17.63C663,987,659.52,983.62,653.66,985Z"/><path class="cls-29" d="M657.62,991.65c-2.65-1.36-9.53.6-6.57,6,1.89-4.84,4.76-1.49,4.15,2-.41,2.33-2.93,2.26-.55,5.38,1.28,1.68,4.05,1.2,5.47.38C664.64,1002.86,660.88,993.32,657.62,991.65Z"/><path class="cls-25" d="M751.17,915.39c-2.89-1.78-10.37-.55-13.73-1.34,1.67-5,5.69-8,5.92-13.54-3.43,1.16-6.62,3.23-10.37,3.26.64-2.24,1.93-5.31,2-7.64-3.48,2.32-8.33,4.58-12.47,5a65.35,65.35,0,0,1,1.38-7.8,89.08,89.08,0,0,0-8.86,5.18c-.59.36-6.75,3.41-6.69,2.59.11-1.51-.06-3,0-4.52a18,18,0,0,1-10.47,5.27,9,9,0,0,1-.21-2.64c-7.89,6.31-14.8,10.8-26.17,17.55-5,3-7.37,8.48-10.1,13.77-1.95,3.81-5.69,13.07-3.27,16.94,1.82,2.92,12.11,9.46,15.75,5.12,2-2.37,4.86-5.05,12.32-5.14,7.26-.09,14.44,2.68,21.29,4.78,7.74,2.36,15,1.28,22.69-.77,3-.79,6.88-1.27,10.63-2.08,4.61-1,10.23-2.38,10.81-7.77.54-5,.68-12.94,4.17-13.62-3.1-3-6.5-4.39-10.47-5.64C746.64,919.83,749.38,917.59,751.17,915.39Z"/><path class="cls-26" d="M654.87,944.91c-3,23.11-.52,38.35.48,39.8A7.61,7.61,0,0,1,661,986.6c2.46,2.51,2.33,5.19,3,6.56.31.69,3,1.76,5.42,1.68-1.62-15.66,1.25-37.59,4.45-42.24C662.78,951,655.69,946.25,654.87,944.91Z"/><path class="cls-30" d="M752.79,927.48c-2.95-2-7.41-2.47-10.85-3,.25-3.61,2.83-6.33,4.71-9.25-4.67-.66-9.31,2.88-13.94,2.47,2-4.27,6.21-9.81,7-14.26-3.35,1-7,3.15-10.56,3a28.93,28.93,0,0,0,1.23-7.09c-3.32,2.15-7.09,5.92-11.45,6.05-.34-2.53.54-5.26.15-7.63-3.73,3.74-8.15,6-12.94,8.33-.46-1.56-.93-3.38-1.34-5-2.11,1.49-11.16,9.76-10.17,3.26-7.42,7.58-22,11.64-27.53,20.88-3.23,5.37,4.3-5,31-10.73,1.66-.36-16.66,12.14-16.51,13.67,1.54-.56,25.35-13.16,25.64-10.95.76,5.87-20.11,17-23.25,21.34-.06,0,37.32-22.06,41.4-22.29.07,5.84-20.42,23.85-24.69,26.31,9.07-1.6,27.24-18.2,36-20-1,2.11-20.75,20.45-24.5,23.2,4.51-1.54,26.39-14.57,31.61-16.36-.49,6.61-14.23,16.44-19,19.46,3.27-1.48,16.21-8.17,19.38-10-.44,2.71-2.16,5.12-3.42,7.57,2.59-2,6.13-3.79,7.84-6.83,1.25-2.22,1.78-5.18,2.72-7.45a15.33,15.33,0,0,1-2.89.18C749.16,930.4,751.35,929,752.79,927.48Z"/><path class="cls-31" d="M690.65,978.64c-6.24-3-10.7,8.09-6.53,12a9.06,9.06,0,0,1,6.26.8C694.73,989.37,695.28,980.88,690.65,978.64Z"/><path class="cls-29" d="M716.37,1000.81c-3.71-.11-5.1-1.86-7.77-.43s.84,6.53,7.42,6.57,9.57-4.33,8.28-6.06C722.8,998.88,720.48,1000.94,716.37,1000.81Z"/><path class="cls-32" d="M715.64,978.4c-3,.14-4.16,9.39-5.46,13.74s-2.28,8.5-.75,9.83c3.78,3.25,12,1.41,14.51-1,1-1-1-5.49-2.46-10C720.16,986.94,719.08,978.24,715.64,978.4Z"/><path class="cls-31" d="M745.44,980.53c-6.29-4.14-11.56,8.11-6.38,11.85,1.73-1,5.1-.56,6.71.27C748.48,989.9,748.81,982.76,745.44,980.53Z"/><path class="cls-33" d="M688.3,980.51c-2.61.77-.86,5.85,1.72,4.14C691.89,983.41,690.62,979.83,688.3,980.51Z"/><path class="cls-33" d="M742.86,981.79c-2.56.4-1.55,5.44,1.1,4.14C745.89,985,745.14,981.43,742.86,981.79Z"/><path class="cls-6" d="M695.93,968.4c-3.23-.16-6.13-1.25-9.27-1.82-4.11-.74-9.33,2.85-10.82,6.63a15,15,0,0,0,2.82-.4,21.07,21.07,0,0,1,4.1-.7c2.67-.05,5.38,1,8,1.33,2,.26,11.44,2.72,11.61-.32.06-1-.33-3.78-1.15-4.5C700.14,967.69,697.24,968.46,695.93,968.4Z"/><path class="cls-6" d="M735.92,969.53c-1.21,0-3.84-1-4.91-.15-.82.65-1.43,3.39-1.47,4.39-.12,3,8.86,1.27,10.71,1.15,1-.06,4.9-.49,5.94-.65a44.33,44.33,0,0,1,.73-5.45A87.7,87.7,0,0,1,735.92,969.53Z"/><path class="cls-6" d="M748.87,969.76c0,1.48-.49,2.92-.3,4.28.74.2,4.7.12,5.58.21C753.62,972.22,750.74,971.19,748.87,969.76Z"/></g><path class="cls-29" d="M695.43,1018s5.69,17.74,19.8,18.12c9,.24,11.6-4.6,14.68-10.44,1.82-3.47,3-7.2,5.17-10.05C729.33,1020.93,713.21,1026.69,695.43,1018Z"/><path class="cls-34" d="M698.39,1020.41s5,12.88,17.75,12.83c6.35,0,10.41-4.78,12.19-8.27a28.84,28.84,0,0,1,4.59-6.51C714.58,1030.83,698.39,1020.41,698.39,1020.41Z"/><path class="cls-35" d="M698.39,1020.41s3.71,5.29,8.09,6.9c5.62,2.07,10.7,2.08,17,.34,4.22-1.17,9.46-9.19,9.46-9.19S718.42,1028.79,698.39,1020.41Z"/><path class="cls-35" d="M717.53,1028.06a27.07,27.07,0,0,1-11.77-2c-2.32-.86-2,1.43-1.5,2.53,0,0,2.36,4,10.82,4.57,8,.54,11.55-5.62,10.47-6.78S723.39,1027.88,717.53,1028.06Z"/><path class="cls-36" d="M698.39,1020.41a16.58,16.58,0,0,0,3.53,3.94s14.62,2.58,28.12-2c0,0,2.69-2.78,2.88-3.85C732.92,1018.46,717.92,1028.65,698.39,1020.41Z"/><path class="cls-36" d="M704.14,1026.17c12.7,6.85,20.47.78,20.47.78A35.06,35.06,0,0,1,704.14,1026.17Z"/><path class="cls-37" d="M737.11,1010.41c-5.53-3.32-13.82-.31-19.59.64-6.38,1-13,0-19.46-.15-6.07-.11-16.27,1.94-16.59,8.27-.42,8.34,8.25.7,10.36-2.14,0,1.4,3.67.87,6.07-.17-2.47,2.47,4.42,1.69,5.74.54-1.22,2.09,3.83,1.41,6.23.09-1.69,1.69,1.9,3,3,.19-.75,1.91,3.45,2.08,3.55-.09,3.39,2,5.72.55,4.06-1.12,3.46,2.16,6.4.52,5.5-.71,2,.75,5.67,1.62,5.72-1.11,1.48,2.27,3.68,5,5.12,5.4C739.21,1020.68,746,1015.71,737.11,1010.41Z"/><path class="cls-38" d="M744.07,1018.42c-.27.2-6.16-1-8.66,0-1.82.73,7.63,21.95-5.1,22.55-4.62.22-5.06-3.62-13.36-2.31-4.25.66-8.57,6-14.22,4.13-10.82-3.61-10.6-16-8.31-20.42,1.8-3.51-8.38.46-11.92-3-2.25-2.16-8.78-.37-9.59,2.42-2.16,7.45-.17,10.31,1.4,7.53-.13,1.07-.79,7.47,2.15,4.73-1.25,1.79,0,8.25,3.14,6.29-.33,1.72,1.31,6.77,3.56,6.44.48,1.65,4.2,6.65,6.13,3.58-.3.47,2.66,3.28,3.17,3.74,1.26,1.12,3.19,2.57,5.22,2.44,1.11-.07,1.5-.83,2.61-.73s2.67,1.58,3.83,2,2.51.77,3.52-.23c1.58,2.12,5.65,2.39,7.45.39,1.24,2,6,1.6,6.85-.46,2.36,2.7,5.29-.88,6.36-2.52-1.09,1.67,4.72,3.21,6.19-4.75.29,2,2.42,1.52,3.57.34a6.66,6.66,0,0,0,1.32-4c3.53,1.92,4.28-3.72,3.91-5.3,3.46.61,2.3-5.33,1.82-6.62,4.24,1.47,2.08-5.06,1.45-6.22,2,3.67,4.09-1.37,1.05-6.6,3.83,2.26.41-3.65-2.4-3.76A1.72,1.72,0,0,0,744.07,1018.42Z"/><path class="cls-37" d="M675.57,1024.07c-.53,1.44.54,9.09,2.94,5.4.1,1.36.09,7,3.09,6.52,3.21-.56,2.93-13.16,1.82-14.93C682.62,1019.79,671.56,1026.31,675.57,1024.07Z"/><path class="cls-37" d="M720.37,1036c-5.37-1.91-10.53.64-14.69,3.93-3.56,2.81-4.49,8.64.38,11.31,1.53.83,3.41,1,3.17-2.28,2,2.68,6.81,4.88,7.3,1.14,3.1,2,5.52.53,6.57-2.24,3.27,3.5,6.77-2.28,6.61-4.68C729.44,1039.16,724.29,1037.4,720.37,1036Z"/><path class="cls-38" d="M728.07,1010c-4.38.42-6.31,2.47-9.92,3.88-3.82,1.48-7.14.3-10.3-1-11.2-4.5-30.13,1.61-24.85,13.52.69,1.56,1.21,3.37,3.48,3.76,2.5-5.14-1.23-12.89,6.38-15.79-3.07,4.35,6,0,7.4-.42-3.88,5,3.3,2.65,6.17,1a3.61,3.61,0,0,0-1.17,2.56c2.13.63,3.84-.86,5.17-2-.8,2.36,2.3,2.58,3.81,1.15.93,1.19,1.76.94,2.3-.37.92.63,1.61.38,2.58.67,0-.46.34-1,.12-1.53,1.92.88,6.3,1.42,4.66-1.55,1.65,2.1,7.72,2,6.17-1.23,3.6,1.88,4.62,5.63,5.08,8.83.3,2.06-.66,11.66,4.34,8.19,2.14-1.49,2.08-5.25,1-7.13,5.15,2.77-.8-6.5-1.55-7.44C736.25,1011.67,733.26,1009.51,728.07,1010Z"/><path class="cls-37" d="M694.07,1038.32c-1.67-1-3.92-5.81-6.4-5.23s-1.26,5-1.12,6.44c.11,1.11,2.46,7.14,3.86,3.48-.5,1.65.88,4.56,2.77,5.42s4.32-1.11,3.57-1.45c1.53.69,2.86,2.32,4.47,2.75,5,1.36,5-7.44,5-10a34,34,0,0,1-3.72,1C699.16,1041.16,696.64,1039.91,694.07,1038.32Z"/><path class="cls-39" d="M733.7,1039.59h0Z"/><path class="cls-37" d="M735.13,1033.35c-1.42-.11-1.48,1.78-2,2.55a7.2,7.2,0,0,1-4.5,2.9c-1,.2-3.43-.28-4.12.09-1.8,1-.6,3.62.73,4.63,4,3,8.58,1.16,8.56-3.28v-.07h0c0-.06,0,0,0,0,1.49,2,3,0,3.44-1.41C737.48,1037.76,737.05,1033.5,735.13,1033.35Z"/><g class="cls-40"><rect class="cls-41" x="599.82" y="238.47" width="218.81" height="218.81"/><path class="cls-42" d="M729.77,420.57l-5.41,10.64c1.69.86,3.27,8.61,4.11,12.78a94,94,0,0,0,3.44,13.29h13c-2.07-3.62-3.35-8.92-4.72-15.66C738.33,432.57,736.6,424,729.77,420.57Z"/><path class="cls-42" d="M698.34,431.21l-5.41-10.64c-7.33,3.72-9.22,12.21-11.22,21.19-1.13,5.1-2.39,10.56-4.66,15.52h12.89a117.06,117.06,0,0,0,3.42-12.93C694.67,438.47,696,432.38,698.34,431.21Z"/><path class="cls-42" d="M731,443.25c3.58-13.39,4-21.5-4.3-24.21-8-2.65-22.87-3.54-31.68.23-7,3-9.28,7.88-4.49,22.73a90.19,90.19,0,0,1,3.83,15.28h33.7A103.07,103.07,0,0,1,731,443.25Z"/><path class="cls-43" d="M720.25,405.2c.68-11.83-19.76-12.27-19.74.64,0,5.73.44,10.09-.75,11.94-4.09,6.4,11.34,15.56,11.34,15.56s12-9.64,9-14.95C718.42,415.31,720,410.43,720.25,405.2Z"/><path class="cls-44" d="M719.45,434.54c-5.79,2-12.84,1.19-18.79-.3-3.42-.86-5.34,3-4.28,6.32,1.39,4.39,8.48,5.54,14.67,5.44,12.19-.19,16.76-4.72,14.69-10.11C725.19,434.43,722.58,433.44,719.45,434.54Z"/><path class="cls-11" d="M779.57,326c-4.31-3.75-7-6-7.42-11.76-.44-6,.73-12.7-2-18.28-2.47-5-8.23-6.11-12.93-8.35-5.29-2.53-7.6-6.4-10.67-11.17-5.86-9.07-18.06-11.29-27.78-6.77-1-5-7.43-7.06-14.25-7.27-7.11-.21-15.22,3.3-20.92,7.5-6.74,4.95-11.59,11.79-17.76,17.36-11.94,10.79-37.32,22.92-30.09,43.44,2.65,7.51,7.37,9.61,3,17.76-4,7.55-6.1,11.76.19,18.65,2.45,2.7,5.1,4,5.2,7.94.09,3.61-3.19,6.75-3,10.5.46,8,6.59,13.77,14.29,18.49,9.69,5.94,21.86,10.26,28.35,15.39,11.5,9.1,17.55-7,26.79-7.33,4.84-.18,7.15,4.45,13.43,9.46,9.83,7.87,24,16.1,31.9,3.82a13.81,13.81,0,0,1-8.69-3.72c12.87.18,24.57-4,23.61-18.86-.37-5.65-2.55-7.79,1.61-12.31,3.91-4.26,12.36-4.48,12.76-11.87.37-6.69-7.81-8.14-9.29-13.62-1.54-5.71,3.44-8.13,6.48-12.23C790.19,342.31,788.85,334.1,779.57,326Z"/><path class="cls-27" d="M704.35,291.36c-26.66,4.45-46,40.28-41.78,74.27,3.16,25.23,25.85,52.43,53.25,50.8,33-2,49.59-38.7,46.2-68.66C758.16,313.73,741.68,285.14,704.35,291.36Z"/><path class="cls-7" d="M760.16,320.08c-1.48-7.35-6.79-15.47-14.07-18.51-9.67-4-25.88-12.26-36.29-8.86-12.35,4-23.89,12.55-32.77,21.83-11.32,11.85-19.62,39.38-10.85,54.24,1.88-2.59,2.08-6.53,3.24-9.63,4.24-11.25,16.61-17.85,25.34-25.5,2.6,6.13,7.92,7.19,13.72,8.44a15.27,15.27,0,0,1,1-11,24.45,24.45,0,0,1,3.3-5.26c1.41-1.75,10.72-9.36,9.23-11.73,4.62,7.39,13.4,12,21,15.56,9.83,4.57,12,11.59,16.64,20.94-1-2.09,1.77-11.51,1.78-14.42A83.16,83.16,0,0,0,760.16,320.08Z"/><path class="cls-11" d="M765.52,316.35c-1.32-6.41-10.65-13-14.31-18.71-4.59-7.15-10.1-13.61-17.65-17.75-13.08-7.16-29.35-6.69-43.77-4.46-17,2.63-30.46,17.27-36.94,32-7.36,16.72-8.43,32.86-5.82,56.38,1.35,12.2,3,28,9.86,38.47,2.1,3.21,7.71,6.54,5.51,11.15-2.89,6.06-8.57-1.36-7.59-2.53a17.7,17.7,0,0,0-1.26,1.79c.18,3.56,1,6.64,3.52,9.24,8.31,8.46,18.86,3,22.81-6.68,5.26-12.94-6.45-19.59-9.8-31.2-3.64-12.66-4.38-24.13,3.51-35.29,7.39-10.47,12.95-18.9,25.07-24.65-3.54,7.52,3.3,20,12.6,16.22-7.78-2.83-5.43-9.73-1.7-15,1.32-1.88,14.13-15.18,12.06-17.26a90.31,90.31,0,0,0,16.53,13.62c5.87,3.58,11.46,4.92,15.58,10.79a34.16,34.16,0,0,1,4.72,9.92c.78,2.61.22,7.16,1.63,9.37,3.86,6,12,.34,12.88-4.9,1.24-7.11-3.5-10.76-6.46-16.61C763.8,324.86,766.6,321.56,765.52,316.35Z"/><path class="cls-45" d="M705.33,325.09v0C705.32,325.21,705.33,325.21,705.33,325.09Z"/><path class="cls-45" d="M753,292.36c-8.54-3.49-10.28-12.49-16.8-17.79-5.75-4.68-15-2.8-19.64,2.48-2.49-7.63-10.57-9.11-15.43-8.6s-9.37,4.6-12.64,8.45c-6.8,8-13,12.71-22.07,18.05-7.74,4.56-18.21,12.46-18.64,22.27-.16,3.79,2.2,13.74,5.74,15.86,4.07,2.43,9.43,1,13.69-.12,12.1-3.19,28.66-13.21,40-27.63a110.53,110.53,0,0,0-1.88,19.74c2.29-4.35,6-7.86,8.29-12.27,1.53-3,2-6.22,2.8-9.44.81-3.43,2.53-5.75,4.27-8.82,4.62,8.21,10.28,17.11,20.27,18.94,3.39.62,6.88,0,10.26.64,3.15.6,5,2.37,7.69,3.87,6.64,3.74,7.64-6.35,8-11.54C767.75,295.88,761,295.62,753,292.36Z"/><path class="cls-45" d="M655.34,376.79a6,6,0,0,0-3.67,1.07c-3.73,2.89-6.19,19.65,13.18,18.61a14.75,14.75,0,0,1-2.84-7C661.73,385.68,661.48,376.7,655.34,376.79Z"/><path class="cls-45" d="M768.69,328.3a6,6,0,0,0-3.16,2.15c-4,4.68,2.8,10.59,5.54,13.21a14.79,14.79,0,0,1,3.61,6.65C787.8,336,773.29,327.26,768.69,328.3Z"/><path class="cls-45" d="M756.16,402.48c-.49,4.27,2.5,7.71-.32,12.26,5.13-.64,11.58-6.1,10.09-12.46C764.17,394.74,756.64,398.24,756.16,402.48Z"/><path class="cls-45" d="M648.1,353.51c-3.39,5.58,1,12.78,5.72,15-1.26-5.2,2.64-7.54,3.51-11.75S652.12,346.89,648.1,353.51Z"/><path class="cls-45" d="M769.26,373.25c-2.19,3.7-.86,8.06-5.29,11.06,4.94,1.51,13.06-.85,14.3-7.26C779.73,369.45,771.42,369.58,769.26,373.25Z"/><path class="cls-46" d="M749,355.93c-3.89-.65-9.28-.06-6.67,6.05,1.39,3.25,16.57,7.86,15.81.76a5.85,5.85,0,0,0-.56-2C756.06,357.64,752,356.42,749,355.93Z"/><path class="cls-46" d="M697.14,357.93c-2.89-2.21-7.29-1.41-10.32-.48-4,1.23-8.73,4.33-3.4,8.81,2.84,2.39,19.24-.44,15.18-6.74A6.06,6.06,0,0,0,697.14,357.93Z"/><path class="cls-29" d="M720.65,361.88c-3.24-.22-3.17-2-5.51-.63s-.61,6.45,5.13,6.69,8.43-4,7.32-5.74C726.31,360.17,724.25,362.14,720.65,361.88Z"/><path class="cls-46" d="M719.84,352.46c-2.66.05-6.59,9-5.26,10.35,3.26,3.33,10.5,1.77,12.7-.51C728.14,361.4,722.85,352.41,719.84,352.46Z"/><path class="cls-47" d="M752.4,342.13c-8.95-3.82-17.12,7.22-10.68,13,1.3-1.41,8.31-3.67,12.64-.4C758,352.06,757.19,344.18,752.4,342.13Z"/><path class="cls-48" d="M753.39,348.34c-2.45.77-1.28,5.47,1.22,3.82C756.42,351,755.57,347.66,753.39,348.34Z"/><path class="cls-48" d="M745,343.45c-4.17,1.3-2.2,9.3,2.06,6.49C750.15,347.92,748.71,342.3,745,343.45Z"/><path class="cls-47" d="M685.73,342.86c-4.73,2.19-5.34,10.09-1.59,12.61,4.23-3.39,11.31-1.33,12.64,0C703.05,349.58,694.57,338.78,685.73,342.86Z"/><path class="cls-48" d="M684.92,349.09c-2.2-.62-2.95,2.72-1.11,3.85C686.37,354.52,687.39,349.78,684.92,349.09Z"/><path class="cls-48" d="M693.16,344c-3.73-1-5,4.63-1.87,6.56C695.63,353.19,697.36,345.14,693.16,344Z"/><path class="cls-11" d="M699.91,330.66a49.79,49.79,0,0,0-13.14-.24,22.64,22.64,0,0,0-8.51,2.91c-.77.51-1.74,1.42-1.77,2.3.71.17,1.29-.25,2-.38a41.49,41.49,0,0,1,10.38-.31c2.68.15,5.32.54,8,.62,1.8.06,4.21.6,5.31-1.07C703.56,332.37,702.29,330.94,699.91,330.66Z"/><path class="cls-11" d="M758.26,332.42a21.57,21.57,0,0,0-8.24-2.68,48.46,48.46,0,0,0-12.79.41c-2.32.3-3.57,1.7-2.24,3.71,1,1.61,3.41,1.05,5.16,1,2.62-.12,5.19-.53,7.79-.71a40.15,40.15,0,0,1,10.1.16c.66.12,1.22.5,1.91.34C759.94,333.77,759,332.9,758.26,332.42Z"/><path class="cls-49" d="M750.62,340.6c-8.26-1.5-10.59,6.62-10.59,6.62s4-5.14,9.36-2.86c12.16,5.19,18.59-3.43,18.59-3.43C759.3,345,754.84,341.37,750.62,340.6Z"/><path class="cls-49" d="M687.81,341.5c-4.21.81-8.63,4.48-17.35.52,0,0,6.52,8.55,18.62,3.23,5.34-2.34,9.39,2.76,9.39,2.76S696.05,339.91,687.81,341.5Z"/><path class="cls-44" d="M685.5,373.61c14.09,20.69,22.65,24.42,33.42,24.89,13.5.58,18-8,19.94-14.49.83-2.73,7.55-9.81,10.18-11.43-8.38,2-16.67,1.11-29.36,1.66C709.19,374.7,693.84,377.81,685.5,373.61Z"/><path class="cls-50" d="M691.91,377.16s8.49,13.93,25.27,14c10.76.06,17.8-3.34,19.73-8.13a13.79,13.79,0,0,1,6.66-7.17C714.38,383,691.91,377.16,691.91,377.16Z"/><path class="cls-51" d="M698.16,378.33s.56,4.24,6.56,5.8c7.69,2,15.94,2,24.44.66,5.72-.9,8.46-7.61,8.46-7.61S721.27,381.07,698.16,378.33Z"/><path class="cls-51" d="M721.37,385.46c-7.67.36-14.06,0-17.93-2.31-2.76-1.61-3,.17-2.38,1.27,0,0,2.56,5.79,15.32,7,12.26,1.13,18.51-5.91,17.09-7.1S728.49,385.11,721.37,385.46Z"/><path class="cls-52" d="M698.16,378.33a6.82,6.82,0,0,0,1.56,3s28.69-2.67,35.59-.38a13.74,13.74,0,0,0,2.31-3.74S717.59,380.92,698.16,378.33Z"/><path class="cls-52" d="M705.74,384c10.37,5.67,22.64.62,22.64.62C715.45,387.54,705.74,384,705.74,384Z"/><path class="cls-12" d="M755.32,334.35A70.83,70.83,0,0,0,741,336.59c-4,1.06-8.67,1.55-12.34,3.45-3.39,1.77-4.81,2.92-8.91,2.75-7.32-.29-13.49-4.84-20.8-5.6-7.61-.78-15.4-1.67-22.91.41-1.95.54-7.84,2.78-3.86,4.87s9.71,1.39,14,1.55c2,.07,4,.12,5.91.3,7,.63,17.66-.34,17.12,8.34-.38,6-4.21,12.1-9.06,13.22a63.58,63.58,0,0,1-14.32,1.5,24.74,24.74,0,0,1-10.37-2.23c-.94-.43-3.72-2.2-4.62-.94-1.54,2.14,4.12,5.68,5.61,6.36a34.36,34.36,0,0,0,10.66,2.36c9.08.95,18.43.46,23.54-7.88,3-4.84,4.45-10.53,7.19-15.49,4.5-8.13,6.64,2.88,8.07,7.71a24.88,24.88,0,0,0,3.63,7.62c2.94,4,8.71,6.23,13.53,6.45a20.57,20.57,0,0,0,8.8-1.18c1.68-.71,2.36-2.65.34-3.41-1.22-.47-3.17-.12-4.45-.18a39,39,0,0,1-5.61-.43,16.77,16.77,0,0,1-6.72-2.87,12.68,12.68,0,0,1-3.49-3.77,12,12,0,0,1-.74-10.22c1.66-4.6,6.71-5,10.9-5.35,5.08-.44,10.22-.35,15.28-.83a54.22,54.22,0,0,1,6.74.16c2.9.09,9.14-.84,5.7-5S760,334.09,755.32,334.35Z"/><path class="cls-19" d="M668.83,334.42c-6,.2-11.11-1.45-12.52-.24-1.83,1.57,1.4,6.91,1.4,6.91a10.34,10.34,0,0,0,4.71,1.57c.4,4.15.2,14.9,7.85,21.67,6.39,5.64,27.22,7.23,33.69,3.95,8-4,11.41-11.55,12.81-18.93C720.2,331.24,677.27,334.12,668.83,334.42Zm35.55,29c-7.91,5.14-28.16,2.78-33.44-3.71-4.07-5-4.81-15.5-2.34-17,7.58-4.58,36.09-2.91,42.7,2.11C714.5,347.23,710.37,359.51,704.38,363.4Z"/><path class="cls-19" d="M767.05,332.51c-7.64,0-46.48-1.25-42.73,16.71,1.53,7.33,4.87,14.69,12.25,18.44,6,3,24.7.67,30.26-5.21,6.67-7,6.09-17.78,6.31-21.95a8.83,8.83,0,0,0,4.19-1.74s2.72-5.46,1-7C777,330.64,772.47,332.49,767.05,332.51Zm-1,25.33c-4.53,6.68-22.72,9.8-30,5-5.54-3.67-9.72-15.78-6.91-18.33,5.78-5.26,31.45-8,38.45-3.7C769.84,342.17,769.55,352.68,766.06,357.84Z"/><path class="cls-53" d="M734.12,342.83c-4.22,1.84,3.46,4.05,5.11,4.29a57.66,57.66,0,0,0,18.31-.76c3.2-.61,10.08-3.56,8.09-5.32C762.85,338.57,738.77,340.8,734.12,342.83Z"/><path class="cls-54" d="M753,341.7c-2.29.36-3.79,1-3.16,2.08,1.25,2,14.72.8,15.63-.76S757.87,340.9,753,341.7Z"/><path class="cls-55" d="M738.46,358.54c-1.44-.06-2.45.24-2.19,1.15.5,1.79,8.87,2.9,9.62,1.81S741.54,358.67,738.46,358.54Z"/><path class="cls-55" d="M675.59,358.18c-1.5-.24-2.59-.06-2.44.88.29,1.83,8.9,4,9.84,3S678.8,358.68,675.59,358.18Z"/><path class="cls-53" d="M708.14,343.75c-5.36-1.89-31.93-3.8-34.66-1.44-2,1.68,5.93,4.43,9.51,5a72.33,72.33,0,0,0,20.1.57C704.85,347.62,713,345.47,708.14,343.75Z"/><path class="cls-54" d="M696.58,342.24c-2.44.09-4.1.58-3.57,1.68,1,2.17,15.3,2.63,16.45,1.19S701.79,342.06,696.58,342.24Z"/><path class="cls-19" d="M729.32,338.36c-5.54,2.56-11,3-18.68.26-5.85-2.06,3.08,3.78,3.77,6.81s-.3,12.29,1.71,6.77,6.09-5.89,8.71-.83,2.39-8.48,3.44-9.72S734.87,335.8,729.32,338.36Z"/><path class="cls-56" d="M671.64,336.19c16.18.76,29.1,1.19,38.88,4.94C704.13,335.91,693.16,334.78,671.64,336.19Z"/><path class="cls-56" d="M765.68,333.92c-19.73.77-28.93.94-34.22,6C740,335.8,751,336.06,765.68,333.92Z"/></g><circle class="cls-57" cx="165.46" cy="347.15" r="108.68"/><g class="cls-58"><path class="cls-37" d="M187.66,413.79c-9.6-3.89-19-11.22-24.24-20.12-2.72-4.64-7.13-14.46-7.33-20,1.55,1.15,4.3,4.76,6,5.6a115.62,115.62,0,0,1-3-22.39c-.06-2.34,2.93-23.19,2.94-23.18,4.42,3.32,6,8.94,7.22,14.2,1.86,8,4.62,15.52,9.7,22.1,4.71,6.09,10.9,10.66,15.61,16.69-2.87,1.6-6.83-.09-9.45-.44,1.76,3.89,17.84,14.41,21.67,16.32-2.87.46-9.89-.62-12.76.25,2.32,3.52,13.77,8.59,19.27,9.17A34.47,34.47,0,0,1,202.05,416,28.11,28.11,0,0,1,187.66,413.79Z"/><path class="cls-37" d="M149.66,417c9.58-3.94,19-11.31,24.14-20.24,2.7-4.64,7.06-14.49,7.24-20.06-1.55,1.16-4.27,4.78-5.95,5.63a116.36,116.36,0,0,0,2.9-22.4c0-2.35-3-23.18-3.05-23.17-4.4,3.34-6,9-7.15,14.23-1.82,8-4.55,15.55-9.6,22.14-4.68,6.12-10.85,10.72-15.53,16.77,2.87,1.59,6.83-.12,9.45-.49-1.74,3.91-17.77,14.5-21.6,16.43,2.88.44,9.89-.67,12.77.19-2.31,3.53-13.73,8.65-19.23,9.26a34,34,0,0,0,11.23,4A28.09,28.09,0,0,0,149.66,417Z"/><path class="cls-59" d="M201.45,421.59c-7.29-16.68-52.72-18.44-66.21-.49-5.57,7.41-4.56,21.8-1.87,35.1h68.22C204.05,443.78,205.23,430.25,201.45,421.59Z"/><path class="cls-60" d="M176.2,432.34s-2.43-5.59-9.54-4.25a8.74,8.74,0,0,0-7.27,6.65l5.24,5.31-2,16.15h11.84l-3.33-16Z"/><path class="cls-61" d="M144.46,422c3,12.81,13.92,19,13.92,19l9.87-10.31,10.5,9.76c10.05-9.75,12.25-11.71,13-20.16S141.7,410.21,144.46,422Z"/><path class="cls-62" d="M144.73,413c-4.9,13.72,12.91,24.88,12.91,24.88l10.61-7.26,9.91,6.83s19.58-11.15,12.17-27.15C183.66,395.94,150.41,397.1,144.73,413Z"/><path class="cls-63" d="M160.33,396.65c-6.51,1.43-10.84,7.62-11.29,14-.35,4.94.44,7.81,3.2,10.55a22.12,22.12,0,0,0,8.62,5c2.41.73,6.61,3.55,7.36,3.57.3,0,1.69-1.21,3.95-2.38,3.32-1.71,8-4,9.84-7.55,2.68-5.22,5.06-15.59,0-19.65C176.78,396,166.59,395.28,160.33,396.65Z"/><path class="cls-4" d="M158.66,287.46c-26.63,5-45.38,42.21-40.5,77.08,3.67,26.12,24.41,54.77,55.66,52.61,31.87-2.2,47.74-40.6,43.62-72.72C213,309.51,195.93,280.4,158.66,287.46Z"/><path class="cls-7" d="M193.74,293.8a124.94,124.94,0,0,0-31.69-4.7c-9.54-.15-19.9-.66-28.79,3.14-4.89,2.09-10.89,4.94-12.72,10.05-1.49,4.17-3.27,9.7-.87,13.36,5.08,7.76,15,3.12,18.78,1.23,8.17-4.11,45.3-1.31,62.61-1.34,7.2,0,17.6-1.23,14.61-10.66C213.32,297.43,200.54,295.72,193.74,293.8Z"/><path class="cls-4" d="M108.87,350c-13.07,3.5-7.82,22,2.85,25.75a26.58,26.58,0,0,0,10.57,1.12c.06-.11.13-.21.2-.32,1.57-2.41-.62-15.92-1.42-18.46C119.06,351.69,115.15,348.34,108.87,350Z"/><path class="cls-8" d="M113.46,356.83c-2.94-1.31-10.27,1.06-6.82,6.64,1.82-5.17,5.06-1.78,4.56,1.89-.32,2.47-3,2.5-.35,5.66,1.47,1.72,4.44,1.08,5.94.16C121.55,368.27,117,358.44,113.46,356.83Z"/><path class="cls-37" d="M200.49,277.94c-20.11-11-51-8.11-67.92,4.94-17.25,13.31-21.64,37.12-21.64,58.4,0,7.33,1.77,12.45,7.15,17.26,6.22,5.55,5.66-11.28,6.23-17.7,1.28-14.33,6.94-25.94,22.05-26.51,10.1-.39,49.65-2.33,58.94,1,5.09,1.82,11.86,4.56,12.88-3.86,1.11-9.21-1.26-18.8-7.34-25.5A39.42,39.42,0,0,0,200.49,277.94Z"/><path class="cls-64" d="M196.51,375c-5.75.55-12.16.76-20.29,1.17-7.51.39-17.4,1.59-25.71,1.05-6-.39-8.53.29-4.53,4.89,11.49,13.23,19,14.35,28.78,14.64,14.16.41,19.58-5.92,21.59-12.19.4-1.22,2.08-3.33,4.06-5.42C204.58,374.73,204.54,374.22,196.51,375Z"/><path class="cls-65" d="M147.08,378.45a33.16,33.16,0,0,0,26.57,13.31c11.29-.07,18.65-3.44,20.65-8.1a14.15,14.15,0,0,1,7-7C170.69,383.86,147.08,378.45,147.08,378.45Z"/><path class="cls-51" d="M153.64,379.51s.62,4.11,6.91,5.55c8.07,1.86,16.73,1.78,25.64.37,6-.95,8.83-7.48,8.83-7.48S177.89,381.91,153.64,379.51Z"/><path class="cls-51" d="M178,386.16c-8.06.44-14.75.13-18.83-2-2.9-1.54-3.13.19-2.49,1.26,0,0,2.71,5.58,16.1,6.57,12.87,1,19.39-5.94,17.9-7.07S185.48,385.75,178,386.16Z"/><path class="cls-52" d="M153.64,379.51a6.29,6.29,0,0,0,1.66,2.86s30.07-2.9,37.32-.76c0,0,2.08-2.33,2.4-3.66C195,378,174,381.81,153.64,379.51Z"/><path class="cls-52" d="M161.62,384.91c10.91,5.38,23.75.34,23.75.34C171.82,388.25,161.62,384.91,161.62,384.91Z"/><path class="cls-11" d="M143.83,341.74c-6.87-2.87-11.18,8.95-6.5,12.81a10.14,10.14,0,0,1,6.8.56C148.73,352.8,148.93,343.88,143.83,341.74Z"/><path class="cls-12" d="M176.43,363c-4,.05-5.59-1.73-8.4-.11s1.21,6.81,8.3,6.56,10.14-5,8.66-6.72C183.29,360.69,180.88,363,176.43,363Z"/><path class="cls-13" d="M175.38,348.37c-7.53-.63-8.1,14.82-6.38,16.15,4.22,3.24,13.05,1,15.62-1.66C185.63,361.83,182.57,349,175.38,348.37Z"/><path class="cls-11" d="M209.88,341.29c-7-4.07-12.11,9-6.35,12.7,1.82-1.17,5.48-.81,7.26,0C213.59,351,213.62,343.47,209.88,341.29Z"/><path class="cls-14" d="M140.52,344.63c-2.78.92-.66,6.18,2.06,4.27C144.54,347.52,143,343.82,140.52,344.63Z"/><path class="cls-14" d="M206.3,343.55c-2.75.53-1.44,5.78,1.37,4.29C209.71,346.77,208.73,343.08,206.3,343.55Z"/><path class="cls-6" d="M150,329.62a42,42,0,0,0-16.28,1.84c-6.9,2.53-4.71,6.34-4,7.36s.94-1.8,8.88-3.76c7.31-1.79,15.06.34,15.85-1.62C155.51,331,152.47,329.82,150,329.62Z"/><path class="cls-6" d="M211.85,329.27c-4.72-1.32-11.38-1.2-16.41-.13-2.43.51-5.38,2.13-4.17,4.75.95,2.07,8.52-1.19,16-.06,8.09,1.23,8.54,4.33,9.19,3.11S219,331.26,211.85,329.27Z"/><path class="cls-59" d="M143.8,429.43l-1.13-14.77c-21.82,5-28.56,22.88-29.57,41.54h21.82S136,433.13,143.8,429.43Z"/><path class="cls-59" d="M193.83,414.66l-1.13,14.77c7.82,3.7,8.88,26.77,8.88,26.77h21.83C222.39,437.54,215.65,419.71,193.83,414.66Z"/><path class="cls-37" d="M209.21,329c-8.26-1.37-15.88-5.15-19.45-10.58-1.86-2.83-4.55-9-4-12.82,1.27.58,3.29,2.7,4.71,3.05a56.08,56.08,0,0,1,.31-15.05c.27-1.61,5.86-16.41,5.86-16.41,3.6,1.69,4.28,5.36,4.68,8.82.6,5.29,2.11,10.09,5.86,13.93,3.49,3.56,8.53,5.87,12,9.39-2.84,1.49-6.24.87-8.6,1,1.08,2.45,14.37,7.52,17.62,8.31-2.69.71-9,.92-11.72,1.92,1.65,2.11,11.44,4,16.4,3.69a52,52,0,0,1-10.82,4.33A31.48,31.48,0,0,1,209.21,329Z"/><path class="cls-37" d="M122.54,333.81c7.8-1.78,15.1-6,18.69-11.62,1.87-2.95,4.68-9.34,4.32-13.18-1.21.66-3.2,2.89-4.55,3.32a61.27,61.27,0,0,0,.42-15.23c-.17-1.62-4.71-16.34-4.71-16.34-3.44,1.88-4.25,5.62-4.79,9.15-.81,5.38-2.45,10.31-6.14,14.38-3.42,3.77-8.25,6.34-11.68,10.07,2.59,1.38,5.8.59,8,.59-1.13,2.54-13.8,8.29-16.87,9.24,2.48.59,8.35.51,10.88,1.39-1.65,2.22-10.9,4.64-15.52,4.51a41.58,41.58,0,0,0,9.92,3.88A27,27,0,0,0,122.54,333.81Z"/></g><path class="cls-37" d="M185.36,409.39a6.51,6.51,0,0,1-5.62-3c-1.69-2.42-5.62-2.26-7.89,1.2-1.29,2-2.58,3.09-5.51,3-8.24-.26-10.93-10.12-10.93-10.12-2.86,2.58,1,20.44,20.37,18.68s18.72-18.34,18-20.55C192.59,398.39,191.52,409,185.36,409.39Z"/><path class="cls-66" d="M194.56,375.11c-.52,1.28-3.25,1.82-4.37,2a16.31,16.31,0,0,1-7.07-.66c-.42,2.81-7-.62-7.9-1.82-.46,1.56-2.43,2.6-3.94,2.88-2.4.43-3.2-.83-4.5-2.48a11.17,11.17,0,0,1-6.25,2.82c-1.15.07-4,0-4.8-1-1.47-1.94,4.36-5.67,5.86-6.63,2-1.29,4.46-1.16,6.7-.79a32.55,32.55,0,0,0,9.24.45c3.61-.45,7.41-1.17,10.87.43,1.5.69,5.38,2.16,6.1,3.75A1.3,1.3,0,0,1,194.56,375.11Z"/><g class="cls-67"><rect class="cls-68" x="599.81" y="557.08" width="219.04" height="219.04"/><path class="cls-19" d="M736.69,728.8c-12.37-4.31-36-6-50.59.59-8.06,3.61-7.05,26.09-6.39,46.73h63.75C743.94,755.38,744.49,731.52,736.69,728.8Z"/><polygon class="cls-69" points="706.47 750.81 717.37 751.22 716.19 773.65 706.91 773.78 706.47 750.81"/><path class="cls-69" d="M711.66,752.21l9.92,7.81s19.62-12.75,12.19-31c-6.68-16.44-40-15.11-45.68,3.08C683.18,747.75,701,760.51,701,760.51Z"/><path class="cls-70" d="M689.76,726.35c.66-13.51,12.79-18.87,21.46-19s20.94,4.73,22,18.21c.5,6.28-.36,9.93-3.51,13.48-5,5.66-16.46,10.94-17.85,11.19-1.39,0-13-5.05-18.19-10.53C690.42,736.27,689.45,732.64,689.76,726.35Z"/><path class="cls-71" d="M755.1,737.65c-1.47-3.35-16.94-8.34-16.94-8.34-9.44,14.43-13.36,31.53-14.7,46.81h24.31C750.81,753.11,756.37,740.55,755.1,737.65Z"/><path class="cls-71" d="M751.26,733.28l-8.87,14.65c2.75,3,3.9,16.23,4.57,28.19h22C767.27,753,760.48,738.4,751.26,733.28Z"/><path class="cls-72" d="M734.74,718.87c30.27,1.7,15.47,41.62.66,28.16-2.59,1.79-6.54,6.47-9.64,13.41C729.8,741.72,734.74,718.87,734.74,718.87Z"/><path class="cls-71" d="M668.72,737.65c1.47-3.35,16.94-8.34,16.94-8.34,9.44,14.43,13.36,31.53,14.7,46.81H676.05C673,753.11,667.45,740.55,668.72,737.65Z"/><path class="cls-71" d="M672.56,733.28l8.86,14.65c-2.74,3-3.9,16.23-4.56,28.19h-22C656.55,753,663.34,738.4,672.56,733.28Z"/><path class="cls-72" d="M689.08,718.87c-30.27,1.7-15.47,41.62-.66,28.16,2.59,1.79,6.54,6.47,9.64,13.41C694,741.72,689.08,718.87,689.08,718.87Z"/><path class="cls-73" d="M713.61,757.1a1.92,1.92,0,1,1-1.92-1.91A1.92,1.92,0,0,1,713.61,757.1Z"/><path class="cls-73" d="M713.66,767.79a1.91,1.91,0,1,1-1.91-1.92A1.91,1.91,0,0,1,713.66,767.79Z"/><path class="cls-74" d="M757.73,695.14a18.1,18.1,0,0,1-8.67.8l-.16-.32c-1.22-2.42.9-15.72,1.62-18.21,1.79-6.28,5.07-9.49,10.17-7.66C771.3,673.58,766.56,691.76,757.73,695.14Z"/><path class="cls-75" d="M679.64,680.27c8.4-2.08,16.86-4,25.32-5.84,13.9-3.07,29.14,0,43.25,1.33,11,1,11.85,6.21,11.86-2.78,0-11.13,2-29.33,0-41.73-9.13-57.35-92.46-47.36-104.62-5-4.42,15.42-4.18,37.57,3.59,53C663.12,687.35,672.8,682,679.64,680.27Z"/><path class="cls-27" d="M661.85,683.21c2.88,26.46,22.43,55.93,53.1,54.58,31.31-1.38,47.9-39.71,44.74-72.24-3.43-35.36-11-65.18-56.05-59C664.24,611.86,658,647.89,661.85,683.21Z"/><path class="cls-27" d="M655.84,697.74c3.89,1.88,8.33.87,10.25-3.47,2.27-3,1.1-11.32-1-18.5-1.73-5.83-5.48-8.91-11.81-7.45C640.08,671.37,646.05,693,655.84,697.74Z"/><path class="cls-76" d="M660.32,689.88c4.75-2.81.61-12.85-2.87-14.56-2.84-1.41-10.09.79-6.86,6.51,1.92-5.17,5-1.67,4.42,2-.39,2.48-3.06,2.44-.5,5.71C655.9,691.33,658.83,690.77,660.32,689.88Z"/><path class="cls-77" d="M707.49,599.59c-32-.26-54.68,22.68-52.56,68.41,1.33,0,4.07,0,6.05,1.92,2.66,2.61,2.56,5.45,3.28,6.89.34.73.72,1.94,3.25,1.81-4.75-15.37-1.71-38.72,3.52-45.72,13-17.38,33.76,2.32,49.65,1.94,12.68-.3,26.54-16.56,33.48-.12C758.89,645.93,758.76,600,707.49,599.59Z"/><path class="cls-76" d="M727.32,684.72c-1.79-2.1-4.2.33-8.75.48-4.09.15-5.75-1.69-8.59.08s1.4,7.14,8.65,6.71S728.87,686.54,727.32,684.72Z"/><path class="cls-32" d="M716.69,666.74c-3.32.53-7.37,18.35-5.52,19.63,4.54,3.11,13.71,1.26,16.15-1.65C728.28,683.58,720.45,666.15,716.69,666.74Z"/><path class="cls-9" d="M672.84,651.32c-2.56.32-3.07-2.25-.2-3.59,4-1.85,8.79-3.41,12.1-3,3,.35,18.43,3.8,14.76,8.88-1.83,2.54-6.26,0-8.13-1.09a20.66,20.66,0,0,0-12.5-2.23C677.88,650.38,675.29,651,672.84,651.32Z"/><path class="cls-9" d="M756.83,652.43c2.07.34,3-2.1.59-3.44-3.57-2-7.95-3.74-11-3.44-2.76.27-17,3.34-13.89,8.49,1.53,2.58,5.69.14,7.45-.89a17.58,17.58,0,0,1,11.47-1.91C752.3,651.38,754.62,652.07,756.83,652.43Z"/><path class="cls-78" d="M691,692.5c2.12,7.37-6.17,9.88-8.22,2.66C685.25,696.93,689.12,695.87,691,692.5Z"/><path class="cls-78" d="M740,694.48c-2.9,7.1,5.07,10.51,7.88,3.56C745.21,699.53,741.47,698.05,740,694.48Z"/><path class="cls-78" d="M699.54,709.28c-5.71,0-10.75-2-13.55-10a2.1,2.1,0,0,1,4-1.39c2.93,8.35,7.87,7.92,17.88,6.23a62,62,0,0,1,13.36-1.25,47,47,0,0,1,8.2,1.22c5.71,1.22,8.07,1.72,10.7-3.87a2.1,2.1,0,0,1,3.81,1.79c-4,8.61-9.56,7.44-15.39,6.19a44.46,44.46,0,0,0-7.5-1.13,58.85,58.85,0,0,0-12.48,1.2A55.94,55.94,0,0,1,699.54,709.28Z"/><path class="cls-11" d="M687.2,675.09a10.48,10.48,0,0,0-7.32-.09c-5.32-3.89-1.65-17.27,5.93-14.64C691.45,662.32,692,672.18,687.2,675.09Z"/><path class="cls-11" d="M750.7,661.48c3.95,2.52,3.69,10.82.59,14.06-1.88-.93-5.8-1.44-7.79-.2C737.43,671.09,743.33,656.79,750.7,661.48Z"/><path class="cls-14" d="M683.36,662.83c2.58-1.09,4.53,2.86,2.54,4.54C683.14,669.69,680.45,664.06,683.36,662.83Z"/><path class="cls-14" d="M747.73,663c2.63-.45,3.56,3.66,1.35,4.79C746,669.33,744.76,663.49,747.73,663Z"/><path class="cls-42" d="M759.69,669.51s2.33,2.09,3.26-1.62,10.69-62-33.54-79.06c-37.14-14.3-73.33,8.18-82.22,30.42-7.54,18.88,1.66,23.84,1.66,23.84s-3.16,4.36-.62,12.85a23.68,23.68,0,0,1,.47,13.15c-.75,3.72,5.94-2.9,13.11,1.72,1.84-29.95,17.61-52.8,60.06-50.81C766.05,622.08,759.23,657.44,759.69,669.51Z"/><path class="cls-44" d="M659.75,637a25.4,25.4,0,0,1,5.69-12.84c6.5-8.17,15.07-14.22,25.28-16.65a53.87,53.87,0,0,1,9.34-1.63c-5.11-2.3-13.69-1.3-18.5,1.18s-9.1,6.25-14.46,7.19c-7.33,1.28-8-4.45-3.5-9.28a53.43,53.43,0,0,1,36.3-16.64c9.56-.55,19.56.4,28.5,4,3.18,1.29,7.06,3.27,9.29,5.94,4.48,5.35-2.26,5.27-6.72,5-3.93-.19-7-1-10.66.85,1.22-.61,8,1.52,9.75,1.7a61.25,61.25,0,0,1,10.45,1.53,21.5,21.5,0,0,1,12.65,9.28c2.55,3.76,6,8.67,5,13.5-7.19.35-3.85-11.67-7.85-14.18-1.31,1.71-.35,7-4.2,5.85-2.58-.75-2.64-10.56-5.67-7.43-1.39,1.43.29,3.62-.74,4.89-1.48,1.82-3.86-.13-4.75-1.51s-2.16-7.44-4.64-7.34-.67,4.86-2,6.15c-3.42,3.32-6.9-4.64-8.06-6.22-3-4.1-3.33,2.69-4.17,5.16-2.8-.17-4.82-6.5-7.45-5.87s.35,7-2.58,6.92c-1.91,0-3.25-4.68-5.54-4.63-2,.06-1.66,1.9-2.11,3.67-1.69,6.59-3.94-.26-7.65-1.27-.33,1.25,1.08,5.69-.35,6.38-1.81.86-4.26-3-5.8-3.62-.59,1.77.42,5.48-1.84,6.32-2.48.91-4.51-4.36-6.67-3.28-1.73.86,1.1,6-.76,6.89s-3.7-2.79-5-3.56c-.66,3.8,2.66,11-3.39,7-.56,3.1,1.24,7.76-3,6.65,0,1.47.14,7-1.77,7.81C658.62,646.45,659.57,638.63,659.75,637Z"/></g><rect class="cls-27" x="681.69" y="693.24" width="66.19" height="18.14"/><path class="cls-29" d="M747.61,699.23c-1.07-2.22-7.41-1.13-7.41-1.13-1.08.21.89.62,3.48,1.28a1.46,1.46,0,0,1,1,.67c-12.42,3.66-39.53,5-56-.74a4.2,4.2,0,0,1,.49-.33c2.49-1.39,6-1.37,5.05-1.9,0,0-5.9-.4-8.29,1-2.13,1.21-2.22,5.35-.54,5.59,1.33.2,1.46-2,2.62-3.61,1.09,4.53,6.64,22.37,26.78,23.31,15.18.71,20.06-4.07,20.89-11.46.47-4.11,5.82-9,9.15-11.33.23,1.26-.75,3,.43,3.22C746.94,704,748.66,701.45,747.61,699.23Z"/><path class="cls-79" d="M691.76,702.47s6,18.59,24,18.57c16.22,0,18.31-6.23,19.16-10.59a11.49,11.49,0,0,1,5.56-8C712.67,709.13,691.76,702.47,691.76,702.47Z"/><path class="cls-51" d="M697.62,704.56s0,6,5.5,8.39a35.84,35.84,0,0,0,23.16,1.71c5.52-1.32,8.94-10.24,8.94-10.24S719.85,706.9,697.62,704.56Z"/><path class="cls-51" d="M719.93,714.52c-7.7-.13-14.29-1.37-17.85-2.94-3-1.31-3,.38-2.53,1.91,0,0,.8,6.17,14.8,7.69,12.23,1.32,17.8-6.29,16.47-7.93S727.62,714.64,719.93,714.52Z"/><path class="cls-52" d="M697.59,704.47a9.69,9.69,0,0,0,.52,2.63s29.19-2,35.58.59a14.19,14.19,0,0,0,1.53-3.27S714.56,706.74,697.59,704.47Z"/><path class="cls-52" d="M703.67,711.67c11.94,6.26,25.47,1.21,25.47,1.21C714.08,715.54,703.67,711.67,703.67,711.67Z"/><g class="cls-80"><rect class="cls-81" x="56.55" y="557.08" width="218.81" height="218.81"/><path class="cls-82" d="M141,732.2c-11.24,5.66-12.23,31.66-10.33,43.69H202c2.17-12.48,1.43-40.13-9.59-44.71C175.94,724.33,151.93,726.69,141,732.2Z"/><path class="cls-83" d="M166.06,751.42c7.68.14,40.26-17.37,17.36-34.41-6.58-4.89-19.42-5.68-27.28-4.08a18.12,18.12,0,0,0-14.22,16.29C141.21,738.61,155.88,751.17,166.06,751.42Z"/><path class="cls-84" d="M166.34,745c6.26.11,32.83-14.17,14.16-28.06-5.37-4-15.84-4.64-22.26-3.34a14.79,14.79,0,0,0-11.59,13.28C146.07,734.52,158,744.76,166.34,745Z"/><path class="cls-85" d="M221.66,775.89c0-.82.89-14.49.27-20.62-.83-8.29-6.37-17.26-21.57-22.06l-6.68,14.28c7.86,3.93,8.93,28.4,8.93,28.4Z"/><path class="cls-85" d="M190.45,729.9s15,4.3,16.4,7.1c.63,1.27-.46,27.55-2,38.89H184.5C185.27,766.33,187,738.51,190.45,729.9Z"/><path class="cls-86" d="M187.62,740.64c1.71-2.29,11.81,9.65,10.76,11.67-.31.6-10.14,20.51-11.3,23.58H184C184.63,767.73,185.87,743,187.62,740.64Z"/><path class="cls-86" d="M190.52,727.12c8.1,3.7,11.82,13.74,11.63,15.78s-15.43,3.84-15.23,1.73C187.18,741.75,190.52,727.12,190.52,727.12Z"/><path class="cls-85" d="M142.22,729.9s-15,4.3-16.4,7.1c-.63,1.27.46,27.55,2,38.89h20.33C147.4,766.33,145.65,738.51,142.22,729.9Z"/><path class="cls-85" d="M111,775.89c0-.82-.9-14.49-.28-20.62.84-8.29,6.37-17.26,21.58-22.06L139,747.49c-7.87,3.93-8.93,28.4-8.93,28.4Z"/><path class="cls-86" d="M145.06,740.64c-1.72-2.29-11.82,9.65-10.77,11.67.31.6,10.15,20.51,11.3,23.58h3.09C148.05,767.73,146.8,743,145.06,740.64Z"/><path class="cls-86" d="M142.16,727.12c-8.11,3.7-11.83,13.74-11.64,15.78s15.43,3.84,15.24,1.73C145.49,741.75,142.16,727.12,142.16,727.12Z"/><path class="cls-87" d="M212.68,580.36a22.73,22.73,0,0,0-6.07-9.49c-4.84,9.82-18.22,15.15-28.59,13.34a6.58,6.58,0,0,0,2.5-5c-4.12.87-7.93,2.81-12.09,3.59-16.52,3.08-33,3.54-46.86,14.69C102,613.23,105,638.77,108.87,660.29c2.12,11.65,4,24.79,9.46,35.41,3.93,7.7,7.87,4.46,13.64,1.41,7.48-3.94,18.52-4.61,26.81-5,8.55-.4,21-1.11,29,2.62,5.2,2.44,7.94,4.42,13.26.35,3.87-3,6.74-7.73,8.74-12.11,3.21-7.05,3.32-14.12,3.93-21.7.79-9.79,3.33-17.87,2.54-27.69-.27-3.45-4.46-16.6,3.18-27.73a55.27,55.27,0,0,0-8,1.47c5-1.29,3.89-14,3.49-17.31A44.43,44.43,0,0,0,212.68,580.36Z"/><path class="cls-4" d="M115,684.67c3.62,26.53,24.08,55.63,54.9,53.44,31.45-2.24,47.1-41.24,43-73.87-4.41-35.47-21.21-65-58-57.87C128.64,611.49,110.13,649.24,115,684.67Z"/><path class="cls-88" d="M158.69,634.8c-6.85-1.95-16.31-3.62-22.88-1.22-9.3,3.4-10.82,16-14.78,23.9a19.94,19.94,0,0,1-5.5-9.26c-.94-4.16-1-8.74-1.23-13-.22-4.62-.63-9.8.88-14.25,1.83-5.43,7.86-8.48,12.77-10.7,8.93-4,19.35-3.51,28.94-3.34a118.15,118.15,0,0,1,31.84,5c6.83,2,19.67,3.86,22,11.8,3,10-11.57,13.57-18.74,15.34-12.8,3.15-20.11-.28-32-3.89Z"/><path class="cls-4" d="M108.61,696.06A25.29,25.29,0,0,0,119,697.2l.21-.32c1.54-2.45-.62-16.17-1.41-18.76-2-6.5-5.84-9.91-12-8.21C92.9,673.46,98.08,692.28,108.61,696.06Z"/><path class="cls-7" d="M113.6,691.42c4.69-3,.26-12.95-3.28-14.58-2.9-1.33-10.13,1.07-6.73,6.74,1.79-5.25,5-1.81,4.5,1.92-.32,2.5-3,2.54-.34,5.75C109.19,693,112.12,692.34,113.6,691.42Z"/><path class="cls-87" d="M193.05,599.09c-11.08-9.4-24.29-10.9-38.22-7.68-8.5,2-18.21,3.14-25.3,8.63-5.78,4.46-12,9.23-16,15.4-6.78,10.3-3.38,51.09,1.1,57.1.48.64,5.9,7.36,8.43,7.16a124.23,124.23,0,0,1-.72-26.64c.85-11.86,3.59-24.67,17.12-26.81,7.7-1.22,32.16,9.31,37.75,10.49,7.48,1.58,25-6.79,27.57-7.84,6.29-2.62,5.92-9.81,3-14.74C204.08,608.07,198.4,603.63,193.05,599.09Z"/><path class="cls-12" d="M181.73,683.68c-1.68-2.08-4.06.22-8.44.27-4,0-5.53-1.76-8.3-.11s1.19,6.91,8.19,6.66S183.18,685.46,181.73,683.68Z"/><path class="cls-13" d="M172,664.31c-4.14.58-7.76,19.84-6.06,21.18,4.17,3.29,12.87,1,15.4-1.68C182.36,682.77,179.05,663.3,172,664.31Z"/><path class="cls-64" d="M201.89,694.29c-1.9-1.3-4.17-2.35-6-3.49a3.22,3.22,0,0,0,1,2.27c-8,.47-16.11,1.11-24.18,1.47-5.34.24-10.67.62-16,.71-3.92.07-11.33.83-14.4-1.33a8.31,8.31,0,0,0,2.82-1.64c-2.81-.19-10.45,2.49-14.21,5.71,3-1.24,7-3,9.64-.45A105.59,105.59,0,0,0,155,709.76c11.28,7.47,33.3,6.56,39.19-7.73.51-1.25,3.13-5.43,5-5.88.86-.22,5.8,1.13,6,1.64A9.6,9.6,0,0,0,201.89,694.29Z"/><path class="cls-65" d="M142.85,696s24.59,5.29,56.52-1.61a14.48,14.48,0,0,0-7.31,6.76c-2.11,4.5-9.81,7.74-21.58,7.77A35.06,35.06,0,0,1,142.85,696Z"/><path class="cls-51" d="M149.69,697s.62,4,7.17,5.38a75.85,75.85,0,0,0,26.73.42c6.27-.89,9.26-7.19,9.26-7.19S175,699.42,149.69,697Z"/><path class="cls-51" d="M152.86,702.72c-.67-1-.42-2.7,2.61-1.21,4.23,2.1,11.21,2.42,19.61,2,7.78-.37,11.69-2.29,13.23-1.19s-5.3,7.73-18.71,6.78C155.65,708.12,152.86,702.72,152.86,702.72Z"/><path class="cls-52" d="M151.4,699.81s31.38-2.73,38.93-.64c0,0,2.18-2.24,2.52-3.52,0,0-21.9,3.66-43.16,1.39A6,6,0,0,0,151.4,699.81Z"/><path class="cls-52" d="M158,702.27s10.61,3.25,24.76.39C182.74,702.66,169.32,707.5,158,702.27Z"/><path class="cls-87" d="M125.31,656.47c5.77-7,21.62-7.77,26.24.49C142.58,657.41,138.23,656.7,125.31,656.47Z"/><path class="cls-87" d="M213.8,656.79c-4.94-6.93-18.59-7.65-22.62.63C198.91,657.83,202.66,657.08,213.8,656.79Z"/><path class="cls-89" d="M154.16,589.39a74.86,74.86,0,0,1,17.56-1.84c11.36.17,26.73,1.12,34.51-9,7.68,8.85,7,25.78-1.45,34.24-.05.05,0,0,.05-.07a25.83,25.83,0,0,1,8.6-1.79c1.5,7.06-13.87,12.59-22.76,18.13,1.46-3.7,5.29-9.3,6.41-13.91-1.67,1.19-18.52,13.46-19.61,15.37-1.37-1.48,20.21-26.89,20.5-29.19-1.35.67-27.2,24.76-28.53,26.3-2.44-3,11.84-20.21,12.93-23.85-1.24.35-27.31,16.42-27.26,16.6-.87-2.92,8.46-10.54,10.1-13-.64,0-21.44,8.68-21.22,9.87a14.81,14.81,0,0,1,.38-6.63,39.22,39.22,0,0,0-30.19,15.35c.73-.93,0-7.69.51-9.53a35.37,35.37,0,0,1,3.73-9c3.09-5.23,8.09-7.83,13.55-10.28A116.19,116.19,0,0,1,154.16,589.39Z"/></g><path class="cls-31" d="M145.53,658.56c-6.23-3-10.69,8.09-6.52,12a9,9,0,0,1,6.26.8C149.62,669.29,150.16,660.79,145.53,658.56Z"/><path class="cls-31" d="M200.32,660.45c-6.28-4.14-11.55,8.1-6.37,11.85,1.73-1,5.1-.56,6.71.27C203.37,669.82,203.69,662.67,200.32,660.45Z"/><path class="cls-33" d="M143.19,660.43c-2.61.77-.86,5.85,1.72,4.14C146.78,663.33,145.51,659.75,143.19,660.43Z"/><path class="cls-33" d="M197.75,661.7c-2.56.4-1.56,5.45,1.1,4.15C200.78,664.9,200,661.35,197.75,661.7Z"/><text class="cls-90" transform="translate(837.92 934.89)">Eric Mott<tspan class="cls-91"><tspan x="0" y="36">Planet Rocket Scientist</tspan></tspan><tspan class="cls-92"><tspan x="0" y="93.6">Cool, calm, collected</tspan><tspan x="0" y="122.4">Not afraid of anything</tspan><tspan x="0" y="151.2">Especially bugs </tspan></tspan></text><text class="cls-93" transform="translate(837.92 1236.33)">Will Doudna<tspan x="0" y="36">CSS Sensei</tspan><tspan class="cls-92"><tspan x="0" y="100.8">Amazing person</tspan><tspan x="0" y="129.6">When your in doubt, Will it out</tspan><tspan x="0" y="158.4">Surfs servers like waves</tspan></tspan></text><text class="cls-90" transform="translate(837.92 613.89)">Levi Pole<tspan class="cls-91"><tspan x="0" y="36">Backend Blackbelt</tspan></tspan><tspan class="cls-92"><tspan x="0" y="100.8">Words cannot describe</tspan><tspan x="0" y="129.6">There is only one word close...</tspan><tspan x="0" y="158.4">Inspirational</tspan></tspan></text><text class="cls-90" transform="translate(837.92 281.89)">Irene Moreno<tspan class="cls-91"><tspan x="0" y="36">The Wrecking Ball</tspan></tspan><tspan class="cls-92"><tspan x="0" y="93.6">You need something done?</tspan><tspan x="0" y="122.4">She gets your ducks in a row</tspan><tspan x="0" y="151.2">Stand tall pineapple</tspan></tspan></text><text class="cls-90" transform="translate(287.92 289.89)">Adam Hayes<tspan class="cls-91"><tspan x="0" y="36">Strategy Sorcerer</tspan></tspan><tspan class="cls-92"><tspan x="0" y="93.6">Wizard of Startups</tspan><tspan x="0" y="122.4">Has a vision for the world</tspan><tspan x="0" y="151.2">Wears a robe to work</tspan></tspan></text><text class="cls-90" transform="translate(287.92 594.89)">Alec Levin<tspan class="cls-91"><tspan x="0" y="36">Code Connoisseur</tspan></tspan><tspan class="cls-92"><tspan x="0" y="100.8">The greatest of all</tspan><tspan x="0" y="129.6">Are the questions Alec asks</tspan><tspan x="0" y="158.4">Saves us months in words</tspan></tspan></text><text class="cls-90" transform="translate(287.92 919.89)">Jason R. Jones<tspan class="cls-91"><tspan x="0" y="36">Money Master</tspan></tspan><tspan class="cls-92"><tspan x="0" y="93.6">The money master</tspan><tspan x="0" y="122.4">Handles business with grace </tspan><tspan x="0" y="151.2">Mr. Get Stuff Done</tspan></tspan></text><text class="cls-90" transform="translate(287.92 1234.89)">Kris Anderson<tspan class="cls-91"><tspan x="0" y="36">Technical Titan</tspan></tspan><tspan class="cls-92"><tspan x="0" y="93.6">A man of honor</tspan><tspan x="0" y="122.4">MVP of MVPs</tspan><tspan x="0" y="151.2">Can sprint marathons</tspan></tspan></text><text class="cls-93" transform="translate(642.92 1515.33)">(Your name here)<tspan x="0" y="36">Planet Rocket Member</tspan><tspan class="cls-92"><tspan x="0" y="100.8">Wants to change the world</tspan><tspan x="0" y="129.6">Believes in a bright future</tspan><tspan x="0" y="158.4">All action no talk</tspan></tspan></text><circle cx="523.89" cy="1568.6" r="109.52"/><g class="cls-94"><rect x="414.36" y="1459.08" width="219.04" height="219.04"/></g><text class="cls-95" transform="translate(447.23 1597.16)">YOU!</text><circle class="cls-96" cx="162.4" cy="1289" r="108.91"/><path class="cls-97" d="M185.66,1362.05c-12.41-5-32.26-3.38-42.62.21-6.31,2.19-5.51,22.15-4.66,39.77h52.19C191.47,1384.51,192.13,1364.66,185.66,1362.05Z"/><path class="cls-73" d="M145.59,1358.91c-6.31,10.15,18.88,20.59,18.88,20.59s22.27-9.7,19.88-18.89C181.52,1349.75,151.25,1349.78,145.59,1358.91Z"/><path class="cls-23" d="M164.21,1345.82c-6.54,0-15.75,3.31-16.41,12-.31,4.06.38,6.4,2.8,8.66,3.87,3.59,8.65,6.5,13.61,6.59,4.95-.09,9.74-3,13.61-6.59,2.42-2.26,3.11-4.6,2.81-8.66C180,1349.13,170.75,1345.81,164.21,1345.82Z"/><path class="cls-97" d="M146.93,1361.12c-12.89,2-26.07,17-28.15,40.91h21.54c.67-12.39,1.79-25.6,3.81-29.17Z"/><path class="cls-97" d="M182,1361.12l2.81,11.74c2,3.57,3.14,16.78,3.8,29.17h21.55C208.07,1378.15,194.9,1363.15,182,1361.12Z"/><path class="cls-98" d="M148.69,1214.13c-64,14.83-50.23,90-31.52,86.18,11.37-2.35,22.63-5.35,33.88-8.24,11-2.81,23.89-3.94,34.82-.12,3.27,1.14,6,3.29,9.36,4.16,11.11,2.87,20.34-1.34,21.43-13.18.06-.62.11-1.24.14-1.89.5-9.51-1.56-21-4-29.94C205.23,1223.3,175.8,1207.86,148.69,1214.13Z"/><path class="cls-99" d="M211.69,1276.89c.13,1.79-.63,7.7,2.44,7.28,2.89-.39,2.78-6.11,2.85-8.07.14-3.77-1.63-13.64-1.63-13.64C208.42,1263.18,211.38,1272.41,211.69,1276.89Z"/><path class="cls-84" d="M158.6,1228.41c-27.7,1.83-54.89,32.36-46.35,65.78,4.39,17.25,4.16,21.47,10.82,38.74,6.77,17.53,23.81,28.54,47.46,27.68C192,1359.82,200,1349,206,1330.74c4.17-12.86,7.56-27,6.58-43.22C210.48,1253,186.31,1226.56,158.6,1228.41Z"/><path class="cls-84" d="M104.29,1287.75c-13.76,3.47-8.83,21.11,2.22,24.55a29.78,29.78,0,0,0,11,1,3.71,3.71,0,0,0,.23-.32c1.71-2.3-.86-14.06-1.61-16.48C114.2,1290.37,110.88,1286.08,104.29,1287.75Z"/><path class="cls-100" d="M194.47,1241.76c-13-2.15-28.53,1.24-41.59,3.52-9,1.57-18.65,4.84-24.25,12.74-5.34,7.52-13.37,15.09-12.2,25.25.25,2.18,5.8,15,6.81,9.84,1.51-7.75,2.7-18.88,4.07-18.58,5.85,1.31,22.16,3.63,28.34,3.18,16.31-1.18,29.22-5,42.92-14.25C210.39,1255.52,199.87,1242.65,194.47,1241.76Z"/><path class="cls-98" d="M205,1224.15c-10.23-9.06-24.79-13-38.12-14.12-32.09-2.71-58.19,14.18-64.37,48.34-2.3,12.73,2.34,25.28,7.76,29.73,4.06,3.32,6.24,13.86,13,10.57,2.3-1.11,1.88-3.29,1.23-5.35-2.32-7.41-3.13-15.75,1.16-22.62,21.1,5.22,50.72-1,70.13-10.17,8.91-4.2,15.4-12.54,15.93-21.1C212.09,1234.1,210.12,1228.69,205,1224.15Z"/><path class="cls-99" d="M117.71,1271.16c-3.52-1.52-5.59,1.9-8.84,1.45-3.41-.49-4.89-3.83-7.18-5.82-.61,4.35-.58,10.12.93,13.22,2.65,5.42,4.83,3.49,10.23,6.53,6.74,3.81,7.46,10.69,10.68,7.65a83.64,83.64,0,0,1-1.92-9.73C121.23,1280.33,122.37,1273.16,117.71,1271.16Z"/><path class="cls-29" d="M111.48,1294.36c-3.49-1.74-13-.61-9.47,5.31,3-4.69,6.58-.92,5.43,2.54-.76,2.33-4.18,1.93-1.24,5.41,1.59,1.87,5.39,1.73,7.39,1.08C120,1306.65,115.73,1296.46,111.48,1294.36Z"/><path class="cls-101" d="M187,1284.3c1.18,4.83,6.28,2.81,9.24,2.48,1.94-.2,6.61,1.16,8.8.13a2.19,2.19,0,0,0,.77-.6C211.79,1278.43,184.59,1274.53,187,1284.3Z"/><path class="cls-101" d="M131.68,1286.49a2.09,2.09,0,0,0,.83.61c2.39,1,7.49-.39,9.61-.2,3.23.31,8.78,2.36,10.11-2.62C154.89,1274.21,125.14,1278.43,131.68,1286.49Z"/><path class="cls-102" d="M143.85,1292.09c-5.84-3.43-11,7.3-7.21,11.44a8.76,8.76,0,0,1,6.05,1.25C147.06,1303.06,148.21,1294.64,143.85,1292.09Z"/><path class="cls-29" d="M189.83,1316.16c-1.06.28.85.77,3.34,1.6a1.39,1.39,0,0,1,.93.83c-10.49,6.07-37,10.49-54.57-.46a3.9,3.9,0,0,1,.48-.42c2.49-1.79,5.92-1.79,5-2.45,0,0-5.74-.45-8.12,1.3-2.14,1.56-2.37,6.78-.75,7.09,1.28.24,1.51-2.59,2.7-4.6.88,5.73,5.64,30,25.27,31,14.78.78,19.69-7,20.79-16.37.61-5.23,6-11.47,9.36-14.46.17,1.61-.85,3.86.29,4.09,1.62.32,3.41-3,2.46-5.78S189.83,1316.16,189.83,1316.16Z"/><path class="cls-103" d="M142.4,1322.11s5.11,23.52,22.68,23.35c15.81-.16,18.11-8.06,19.1-13.6,1.33-7.42,5.75-10.22,5.75-10.22C163.93,1334.81,142.4,1322.11,142.4,1322.11Z"/><path class="cls-104" d="M148,1324.71s-.2,7.56,5,10.59c6.73,3.88,14.47,4.55,22.53,2,5.44-1.72,9.12-13.07,9.12-13.07S169.19,1330.68,148,1324.71Z"/><path class="cls-104" d="M169.41,1337.14c-7.51-.1-13.9-1.6-17.31-3.57-2.83-1.63-3,.51-2.54,2.44,0,0,.54,7.82,14.14,9.62,11.89,1.59,17.61-8.12,16.39-10.18S176.91,1337.24,169.41,1337.14Z"/><path class="cls-105" d="M148,1324.59s0,4.23,1.07,6c0,0,27-3.65,33.15-.46a40.19,40.19,0,0,0,2.5-5.92S165.37,1330.49,148,1324.59Z"/><path class="cls-105" d="M153.65,1333.67c11.41,7.85,24.81,1.33,24.81,1.33C163.66,1338.49,153.65,1333.67,153.65,1333.67Z"/><path class="cls-29" d="M170.15,1309.63c-3.73-.11-5.29-1.57-7.82-.4s1,6.48,7.62,6.56,9.61-4.6,8.15-6C176.41,1308.09,174.28,1309.76,170.15,1309.63Z"/><path class="cls-106" d="M169.88,1291.33c-6.54-.16-10.17,16.89-6.83,19.44,4.14,3.16,11.94,1.49,14.5-.46C179.47,1308.85,177.66,1291.52,169.88,1291.33Z"/><path class="cls-102" d="M193.3,1302.9a8.26,8.26,0,0,1,5.89-.57c3-2.56,4.1-8.5,1-11.12C194.31,1286.3,186.42,1299.69,193.3,1302.9Z"/><path class="cls-107" d="M140.74,1294.1c-2.6.57-1.26,5.77,1.38,4.25C144,1297.24,143.05,1293.59,140.74,1294.1Z"/><path class="cls-107" d="M195.73,1293.08c-2.61.16-2.14,5.46.66,4.38C198.42,1296.69,198,1292.94,195.73,1293.08Z"/><circle class="cls-108" cx="163.26" cy="1285.46" r="111.42"/><rect class="cls-109" x="109.81" y="1393.42" width="107.01" height="12.65"/><rect class="cls-109" x="205.84" y="1391.57" width="6" height="4"/><text class="cls-110" transform="translate(419.07 97.48)">OUR <tspan class="cls-111" x="168.29" y="0">TEAM</tspan></text><text class="cls-112" transform="translate(183.23 172.1)">Forget team bios, we have team haikus</text><circle class="cls-2" cx="709.15" cy="1293.94" r="109.33"/><g class="cls-113"><rect class="cls-1" x="599.81" y="1184.61" width="218.67" height="218.66"/><path class="cls-114" d="M741.85,1384a61.31,61.31,0,0,1,3-17.51c.38-1.1.33-10.9-31.73-10.9-29.49,0-33.51,9.21-33,10.32a40.71,40.71,0,0,1,3.87,17.94c0,7.46.47,13.81.88,19.39H741C741.35,1397.73,741.81,1391.41,741.85,1384Z"/><path class="cls-115" d="M692.43,1360.25c-2.47,9.07,20.54,19.56,20.54,19.56s26-11.22,19.52-21.25C726.63,1349.55,695.35,1349.51,692.43,1360.25Z"/><path class="cls-116" d="M712.89,1338.2c-6.64,0-16,4.16-16.65,15.13-.32,5.1.39,8.06,2.84,10.89,3.92,4.53,8.78,8.2,13.81,8.31,5-.11,9.88-3.78,13.8-8.31,2.45-2.83,3.16-5.79,2.85-10.89C728.87,1342.36,719.52,1338.18,712.89,1338.2Z"/><path class="cls-11" d="M651.28,1217.61h0Z"/><path class="cls-116" d="M701.21,1219.89c-27.86,6-46.82,46.54-41,84.17,4.37,28.18,26.73,58.77,59.51,55.83,33.44-3,49.34-44.85,44.37-79.51C758.7,1242.69,740.23,1211.54,701.21,1219.89Z"/><path class="cls-116" d="M650.17,1288.52c-13.66,4-7.78,24,3.51,27.8a27.11,27.11,0,0,0,11.12,1l.21-.35c1.6-2.63-1-17.2-1.87-19.94C660.91,1290.14,656.73,1286.59,650.17,1288.52Z"/><path class="cls-29" d="M655.13,1295.81c-3.11-1.36-10.77,1.34-7,7.31,1.81-5.63,5.28-2,4.83,2-.29,2.67-3.15,2.76-.25,6.13,1.58,1.82,4.68,1.08,6.23.06C663.85,1308,658.92,1297.48,655.13,1295.81Z"/><g class="cls-117"><path d="M762.08,1294.74c-3.6,32.21.15,11.62-11,9.07-8.75-2-16.1,1.88-28.56,3.15s-25-3.3-35.37-1.09c-10,2.11-12.91,27.05-18.42-7.34-1.61-10-8.45-13.66-6,2.39.73,4.7.08,10.26.93,13,7.62,24.74,27.27,48.55,56,46s43.9-33.12,44.75-63.72C764.62,1291,762.82,1288.12,762.08,1294.74Z"/></g><path class="cls-29" d="M722.31,1302.14c-4.2.14-5.9-1.76-8.82,0s1.4,7.35,8.85,6.93,10.55-5.56,9-7.43C729.47,1299.51,727,1302,722.31,1302.14Z"/><path class="cls-46" d="M720.46,1291.44c-3.44.37-7.76,11.09-5.92,12.49,4.5,3.42,13.72.77,16.37-2.09C732,1300.71,724.34,1291,720.46,1291.44Z"/><path class="cls-29" d="M745.53,1306.24c-1.17.32,1,.72,3.82,1.43a1.58,1.58,0,0,1,1.09.79c-13.77,4.6-40.63,9.48-61.07,1.8a3.67,3.67,0,0,1,.52-.44c2.69-1.86,6.54-2,5.47-2.62,0,0-6.45-.2-9,1.62-2.3,1.63-2.3,6.79-.47,7,1.46.19,1.56-2.61,2.78-4.64,1.29,5.62,10,31.49,32,31.68,16.57.15,19.55-9.9,20.29-19.17.41-5.17,6.15-11.55,9.71-14.63.28,1.57-.74,3.84.55,4,1.82.25,3.65-3.07,2.45-5.79S745.53,1306.24,745.53,1306.24Z"/><path class="cls-118" d="M692.8,1314.06s6.94,23,26.59,22.07c17.68-.82,19.83-8.69,20.65-14.2,1.1-7.36,5.89-10.29,5.89-10.29C717.54,1325.69,692.8,1314.06,692.8,1314.06Z"/><path class="cls-35" d="M699.22,1316.39s.16,7.45,6.2,10.23c7.73,3.54,16.42,3.88,25.31,1,6-1.92,9.51-13.27,9.51-13.27S723.21,1321.39,699.22,1316.39Z"/><path class="cls-35" d="M723.79,1327.76c-8.4.22-15.62-1-19.54-2.81-3.26-1.49-3.31.64-2.71,2.51,0,0,1,7.68,16.31,8.9,13.38,1.07,19.28-8.73,17.79-10.72S732.19,1327.54,723.79,1327.76Z"/><path class="cls-36" d="M699.19,1316.28s.23,4.17,1.51,5.87c0,0,30-4.72,37-1.83a36.12,36.12,0,0,0,2.49-6S718.92,1321.37,699.19,1316.28Z"/><path class="cls-36" d="M706,1325c13.15,7.25,27.81.28,27.81.28C717.44,1329.32,706,1325,706,1325Z"/><path class="cls-119" d="M711.46,1351.69c3.42,4.72,24.18,3,19.89-3.74C727.6,1342.11,707.12,1345.71,711.46,1351.69Z"/><path class="cls-120" d="M688.49,1383.56c2.87-3,2.88-23.56-.6-22.76-11.92,2.72-26.7,24.11-25.41,42.47h18.45C680.38,1396.25,683.71,1388.49,688.49,1383.56Z"/><path class="cls-114" d="M688.05,1359.07c-14.45,5.17-25.07,19.41-27.12,38.09,6.05,2.73,15.37,3,21.75,2.78.18-6.71,1.82-11.72,6.32-16.37C692,1380.48,691.57,1357.82,688.05,1359.07Z"/><path class="cls-120" d="M736.45,1364.17c-3.21-.73-3.2,18.23-.56,20.95,4.4,4.54,7.47,11.69,7,18.15h17C761,1386.37,747.42,1366.68,736.45,1364.17Z"/><path class="cls-114" d="M736.29,1362.58c-3.24-1.16-3.63,19.71-.87,22.55,4.15,4.28,5.66,8.9,5.82,15.08,5.87.17,14.45,0,20-2.56C759.38,1380.45,749.6,1367.34,736.29,1362.58Z"/></g><path class="cls-102" d="M693.55,1284.69a10.46,10.46,0,0,0-7.24-.62c-5-4.23-.39-17.19,6.92-14C698.67,1272.36,698.45,1282.15,693.55,1284.69Z"/><path class="cls-102" d="M750.1,1270.57c4,2.4,3.95,10.62,1,13.92-1.89-.87-5.79-1.27-7.73,0C737.2,1280.45,742.67,1266.11,750.1,1270.57Z"/><path class="cls-107" d="M690.63,1272.2c2.64-.89,4.27,3.16,2.18,4.67C689.92,1279,687.67,1273.21,690.63,1272.2Z"/><path class="cls-107" d="M747.19,1272.22c2.6-.52,3.64,3.53,1.47,4.71C745.67,1278.57,744.27,1272.81,747.19,1272.22Z"/><path class="cls-121" d="M681,1270a1.58,1.58,0,0,1-2.47-1.76c1.36-4.28,6.12-7.58,10.6-8.48,3.69-.73,10.69,0,13,3.53a2.25,2.25,0,0,1-2.54,3.41,21.38,21.38,0,0,0-9.71-.49C686.58,1266.83,683.8,1268.45,681,1270Z"/><path class="cls-121" d="M753.89,1266.93c1.84.56,2.34-1.09,1.85-1.92a12.38,12.38,0,0,0-10.21-6c-3.39,0-10.07,2.43-11.42,5.87a2,2,0,0,0,2.85,2.46c2.6-1.3,5.7-2.65,8.66-2.71S751.13,1266.09,753.89,1266.93Z"/><path class="cls-37" d="M712,1218.06c-30.55-1.18-53,19.91-52.26,63.36a7.76,7.76,0,0,1,5.74,2c2.45,2.55,2.28,5.25,2.93,6.63.3.71.63,1.86,3.05,1.82-4.09-14.72-.85-35.1,4.35-41.59,12.9-16.1,40,7,49.28,7,7,0,24.36-20.29,30.52-4.49C759.81,1263.53,761,1220,712,1218.06Z"/></svg>