<?xml version="1.0" standalone="no"?>
<!DOCTYPE svg PUBLIC "-//W3C//DTD SVG 20010904//EN"
 "http://www.w3.org/TR/2001/REC-SVG-20010904/DTD/svg10.dtd">
<svg version="1.0" xmlns="http://www.w3.org/2000/svg"
 width="312.000000pt" height="312.000000pt" viewBox="0 0 312.000000 312.000000"
 preserveAspectRatio="xMidYMid meet">
<metadata>
Created by potrace 1.15, written by Peter Selinger 2001-2017
</metadata>
<g transform="translate(0.000000,312.000000) scale(0.100000,-0.100000)"
fill="#000000" stroke="none">
<path d="M2092 2567 c-6 -7 -9 -24 -5 -38 l5 -24 -17 23 c-9 12 -21 20 -26 16
-6 -4 -6 -10 1 -18 5 -7 11 -26 12 -42 1 -16 6 -35 11 -42 15 -20 3 -23 -44
-13 -23 5 -46 8 -50 5 -4 -2 -7 2 -6 9 1 41 -4 77 -12 77 -13 0 -22 -43 -11
-54 6 -6 10 -14 10 -18 0 -13 -55 -9 -68 4 -9 9 -12 5 -12 -20 0 -29 2 -31 18
-23 13 7 22 7 29 0 6 -6 34 -9 62 -8 37 3 51 0 51 -9 0 -8 5 -10 13 -6 9 6 9
5 0 -7 -19 -23 -5 -59 23 -59 13 0 24 6 24 13 0 9 2 9 9 -1 5 -8 24 -12 49
-11 23 2 39 5 37 7 -2 3 0 13 5 23 7 12 7 20 0 24 -14 8 -3 25 16 25 20 0 53
39 54 62 0 9 5 20 10 23 13 8 13 52 0 60 -6 4 -8 11 -5 16 4 5 -5 9 -19 9 -14
0 -26 -3 -26 -6 0 -11 28 -33 34 -27 3 4 6 -1 6 -9 0 -9 -7 -19 -16 -22 -12
-5 -15 -16 -12 -41 3 -26 1 -32 -8 -24 -14 12 -29 -5 -19 -21 3 -5 0 -10 -8
-10 -8 0 -20 -13 -25 -30 -14 -37 -52 -49 -88 -26 -20 14 -23 22 -17 39 4 12
8 36 9 52 0 17 6 41 11 55 6 14 8 29 6 33 -3 5 3 17 13 28 14 16 15 19 2 19
-9 0 -20 -6 -26 -13z"/>
<path d="M409 2010 c0 -3 -2 -13 -4 -23 -2 -9 1 -15 6 -11 16 10 9 -9 -8 -22
-10 -7 -33 -14 -50 -14 -30 0 -33 -3 -33 -29 0 -17 6 -31 16 -35 8 -3 12 -10
9 -16 -4 -6 -10 -8 -14 -5 -5 2 -9 -111 -10 -253 -1 -193 2 -252 10 -238 8 12
10 84 7 227 -2 115 0 209 4 209 10 0 23 50 19 74 -1 11 2 16 8 12 7 -5 8 -1 4
11 -3 10 -3 15 1 12 7 -7 106 91 106 104 0 8 -70 5 -71 -3z"/>
<path d="M321 1265 c0 -30 5 -57 10 -60 5 -4 6 -18 3 -32 -6 -22 -4 -25 10
-20 10 4 20 7 22 7 2 0 4 7 4 15 0 8 5 15 11 15 6 0 8 -7 5 -15 -3 -9 1 -18 8
-21 10 -4 12 -17 9 -44 l-5 -39 41 -3 c23 -2 40 -6 39 -9 -2 -3 3 -13 11 -22
9 -11 10 -17 2 -17 -6 0 -11 -7 -11 -15 0 -11 11 -15 40 -15 22 0 40 5 40 10
0 6 5 10 11 10 5 0 7 -4 4 -10 -4 -6 6 -10 24 -10 16 0 31 5 33 11 3 9 9 9 25
0 26 -13 63 -15 63 -2 0 10 -5 11 -83 15 -27 1 -51 6 -55 12 -9 13 -54 44 -65
44 -4 0 -5 -6 -2 -12 4 -7 -2 -2 -13 11 -10 13 -24 21 -30 17 -6 -4 -8 2 -4
16 5 22 4 22 -15 6 -15 -14 -22 -15 -31 -6 -18 18 -14 27 8 21 25 -7 26 14 1
22 -10 3 -21 13 -24 23 -3 9 -12 28 -20 42 -8 14 -23 42 -33 63 -27 55 -33 54
-33 -8z"/>
<path d="M2322 1161 c2 -98 -1 -157 -6 -153 -6 3 -78 4 -162 3 -146 -2 -152
-2 -159 18 -8 25 -35 28 -30 4 2 -10 4 -23 4 -30 1 -8 51 -12 181 -13 151 0
183 2 196 15 12 12 13 19 5 29 -8 10 -9 16 -1 21 6 4 10 56 10 136 0 124 -1
129 -21 129 -21 0 -21 -3 -17 -159z"/>
<path d="M1190 216 c3 -2 21 -7 40 -11 19 -3 46 -9 60 -11 14 -3 50 -7 80 -9
30 -1 106 -6 169 -10 69 -4 116 -3 120 3 3 5 33 12 66 16 42 5 56 4 45 -3 -12
-9 -11 -11 7 -11 12 0 23 4 25 10 2 5 22 11 45 12 22 2 39 6 37 9 -5 9 -154
11 -154 2 0 -5 -21 -6 -46 -4 -32 2 -44 0 -40 -8 5 -8 -16 -11 -71 -9 -69 1
-73 2 -33 8 l45 7 -45 3 c-96 7 -259 6 -254 -2 3 -4 0 -8 -5 -8 -6 0 -11 4
-11 8 0 4 -19 9 -42 11 -23 1 -40 0 -38 -3z"/>
</g>
</svg>
