<?xml version="1.0" encoding="utf-8"?>
<!-- Generator: Adobe Illustrator 22.0.1, SVG Export Plug-In . SVG Version: 6.00 Build 0)  -->
<svg version="1.1" id="Layer_1" xmlns="http://www.w3.org/2000/svg" xmlns:xlink="http://www.w3.org/1999/xlink" x="0px" y="0px"
	 viewBox="0 0 1407 1726.6" style="enable-background:new 0 0 1407 1726.6;" xml:space="preserve">
<style type="text/css">
	.st0{clip-path:url(#SVGID_2_);}
	.st1{fill:#0071BC;}
	.st2{fill:#FFCB9E;}
	.st3{fill:#765AA3;}
	.st4{fill:#2B221C;}
	.st5{opacity:0.3;fill:#BF3C1B;enable-background:new    ;}
	.st6{opacity:0.3;fill:#C94614;enable-background:new    ;}
	.st7{fill:#45362E;}
	.st8{fill:#BF795C;}
	.st9{fill:#261B18;}
	.st10{opacity:0.3;fill:#B54D26;enable-background:new    ;}
	.st11{fill:#FFDFC2;}
	.st12{opacity:0.7;fill:#E6D2C3;enable-background:new    ;}
	.st13{fill:#F5B37A;}
	.st14{opacity:0.5;fill:#45362E;enable-background:new    ;}
	.st15{clip-path:url(#SVGID_4_);}
	.st16{fill:#7AC943;}
	.st17{fill:#3A3A4A;}
	.st18{fill:#1E1E29;}
	.st19{opacity:0.3;enable-background:new    ;}
	.st20{fill:#535363;}
	.st21{fill:#F29F63;}
	.st22{fill:#1C1C26;}
	.st23{fill:#3D2518;}
	.st24{fill:#977053;}
	.st25{fill:#FFBC82;}
	.st26{opacity:0.3;fill:#A63F24;enable-background:new    ;}
	.st27{opacity:0.5;fill:#B54319;enable-background:new    ;}
	.st28{fill:#82572E;}
	.st29{fill:#202930;}
	.st30{fill:#FFD4AD;}
	.st31{opacity:0.7;fill:#C3CEE6;enable-background:new    ;}
	.st32{fill:#8F2A25;}
	.st33{fill:#FFF7EA;}
	.st34{fill:#ECDCC4;}
	.st35{fill:#9C552C;}
	.st36{fill:#854326;}
	.st37{fill:#D75810;}
	.st38{clip-path:url(#SVGID_6_);}
	.st39{fill:#FF931E;}
	.st40{fill:#E62628;}
	.st41{fill:url(#SVGID_7_);}
	.st42{fill:#FF3B3B;}
	.st43{fill:#57443A;}
	.st44{fill:#FFC48F;}
	.st45{fill:#425361;}
	.st46{fill:#C3D5E3;}
	.st47{fill:#121B21;}
	.st48{fill:#A80A0A;}
	.st49{fill:#FFF9F0;}
	.st50{fill:#E8DAC5;}
	.st51{opacity:0.3;fill:#FFFFFF;enable-background:new    ;}
	.st52{fill:#FFFFFF;}
	.st53{opacity:0.7;fill:#FFFFFF;enable-background:new    ;}
	.st54{fill:#C1C5C9;}
	.st55{fill:#662D91;}
	.st56{clip-path:url(#SVGID_9_);}
	.st57{fill:#BCCEEB;}
	.st58{fill:#379BDB;}
	.st59{opacity:0.1;enable-background:new    ;}
	.st60{fill:#CBDAF2;}
	.st61{fill:#F7B07C;}
	.st62{fill:#F7A286;}
	.st63{fill:#8F3935;}
	.st64{opacity:0.7;fill:#854326;enable-background:new    ;}
	.st65{clip-path:url(#SVGID_11_);}
	.st66{fill:#3FA9F5;}
	.st67{fill:#66667D;}
	.st68{fill:#F1AA83;}
	.st69{fill:#5E5A3A;}
	.st70{fill:#9E996F;}
	.st71{fill:#918FA0;}
	.st72{fill:#EBA971;}
	.st73{fill:#D99A64;}
	.st74{opacity:0.3;fill:#B54319;enable-background:new    ;}
	.st75{fill:#231F20;}
	.st76{fill:#C26346;}
	.st77{fill:#8F2724;}
	.st78{clip-path:url(#SVGID_13_);}
	.st79{fill:#FFFF00;}
	.st80{fill:#EBEBEB;}
	.st81{fill:#FBFBFB;}
	.st82{fill:#FFB67D;}
	.st83{fill:#255794;}
	.st84{fill:#4E84C7;}
	.st85{fill:#4F2619;}
	.st86{opacity:0.15;fill:#BF3C1B;enable-background:new    ;}
	.st87{fill:#784430;}
	.st88{font-family:'OpenSans-Light';}
	.st89{font-size:36px;}
	.st90{font-size:30px;}
	.st91{font-size:24px;}
	.st92{clip-path:url(#SVGID_15_);}
	.st93{font-family:'OpenSans-Bold';}
	.st94{font-size:61px;}
	.st95{fill:#39B54A;}
	.st96{fill:#25252E;}
	.st97{fill:#F0EAE6;}
	.st98{fill:#C9BEB7;}
	.st99{opacity:0.4;fill:#BC551E;enable-background:new    ;}
	.st100{fill:#2B241F;}
	.st101{fill:#305D80;}
	.st102{fill:#8F322D;}
	.st103{fill:#FFF3E2;}
	.st104{fill:#E8D5B8;}
	.st105{fill:#FFCB96;}
	.st106{fill:#86BAE3;}
	.st107{fill:none;stroke:#FFFFFF;stroke-width:8;stroke-miterlimit:10;}
	.st108{fill:#FFFFFF;stroke:#FFFFFF;stroke-miterlimit:10;}
	.st109{font-size:72px;}
	.st110{font-size:48px;}
	.st111{clip-path:url(#SVGID_17_);}
	.st112{fill:none;}
	.st113{fill:#5E4684;}
	.st114{fill:#BBA7DB;}
	.st115{fill:#FFB06B;}
	.st116{opacity:0.12;}
	.st117{fill:#8F2621;}
	.st118{opacity:0.5;fill:#FFC48F;enable-background:new    ;}
	.st119{fill:#C4BAB1;}
	.st120{fill:#322825;}
</style>
<title>Artboard 21</title>
<g>
	<defs>
		<circle id="SVGID_1_" cx="262.4" cy="983.6" r="109.4"/>
	</defs>
	<clipPath id="SVGID_2_">
		<use xlink:href="#SVGID_1_"  style="overflow:visible;"/>
	</clipPath>
	<g class="st0">
		<rect x="152.9" y="874.2" class="st1" width="218.8" height="218.8"/>
		<path class="st2" d="M242.7,1069.8l-7-11.8c-11.4,4.2-14,13.9-16.8,24.1c-0.9,3.7-2.1,7.3-3.4,10.9h17c0.9-2.8,1.6-5.4,2.3-8
			C237.1,1076.6,238.6,1071.3,242.7,1069.8z"/>
		<path class="st2" d="M290,1058l-7,11.8c4,1.5,5.6,6.7,7.9,15.2c0.7,2.6,1.4,5.2,2.3,8h17c-1.3-3.6-2.5-7.2-3.4-10.9
			C304,1071.9,301.4,1062.2,290,1058z"/>
		<path class="st2" d="M264.2,1049.4c-18.7-0.2-31.1,5.6-31.2,7.5c-0.7,19.7,5.9,23.8,12.1,28.2c4.3,3,31.5,2.8,35.9,0
			c6.9-4.4,13.1-8.8,12.5-27.7C293.5,1055.7,282.2,1049.6,264.2,1049.4z"/>
		<path class="st3" d="M289.6,1079.6c-2-5-1.2-10.2-0.2-25.7c-1.4-0.9-2.9-1.5-4.5-2c0.8,26.7-5.6,31.5-22,31.5
			c-14.5,0-22-3.2-21.1-32.1c-3,0.9-4,1.2-5.4,2.1c0.9,13,1.9,20.8-0.3,25.9c0.1,4.5,0.3,9.1,0.6,13.6H289
			C289.3,1088.6,289.5,1084,289.6,1079.6z"/>
		<path class="st4" d="M302.7,913.1c-16.9-18.5-44.8-20.5-76.5-6.8c5.5,0.5,11,0.3,16.4-0.7c-16.6,7.7-36.3,17.7-40.6,37.3
			c-10.6,48.4,29.3,26.1,42.9,30c15.4,4.4,53.6-0.6,64.3-16.5c4.8-7.2,5.1-18,2.3-27.5C309.9,923,306.8,917.6,302.7,913.1z"/>
		<path class="st2" d="M252.4,923.6c-26,5.1-44.3,42.4-39.5,77.5c3.6,26.3,23.8,55,54.3,52.9c31.1-2.2,46.6-40.8,42.6-73.1
			C305.5,945.8,288.8,916.5,252.4,923.6z"/>
		<path class="st5" d="M286.7,930c-10.1-2.9-20.5-4.5-30.9-4.7c-9.3-0.2-19.4-0.7-28.1,3.2c-4.8,2.1-10.6,5-12.4,10.1
			c-1.5,4.2-3.2,9.8-0.9,13.4c5,7.8,14.7,3.1,18.3,1.2c8-4.1,44.2-1.3,61.1-1.3c7,0,17.2-1.2,14.3-10.7
			C305.8,933.7,293.3,931.9,286.7,930z"/>
		<path class="st2" d="M203.9,986.5c-12.8,3.5-7.6,22.1,2.8,25.9c3.3,1.1,6.8,1.5,10.3,1.1l0.2-0.3c1.5-2.4-0.6-16-1.4-18.5
			C213.8,988.2,210,984.8,203.9,986.5z"/>
		<path class="st6" d="M208.3,993.4c-2.9-1.3-10,1-6.6,6.7c1.8-5.2,4.9-1.8,4.4,1.9c-0.3,2.5-3,2.5-0.3,5.7c1.4,1.7,4.3,1.1,5.8,0.2
			C216.2,1004.8,211.8,995,208.3,993.4z"/>
		<path class="st4" d="M293.3,913.6c-19.6-10.3-49.8-7.6-66.3,4.6c-11.2,8.3-17.1,18.3-16.4,32.3c0.4,7.7,10.7,8.8,15,3.4
			c3.7-4.7,8.9-5.9,14.9-6.1c9.9-0.4,48.5-2.2,57.5,0.9c5,1.7,11.6,4.3,12.6-3.6c1.1-8.6-1.2-17.6-7.2-23.9
			C300.4,918.1,297,915.5,293.3,913.6z"/>
		<path class="st7" d="M297.8,916.9c-7.4-7.1-17.8-12.5-27.8-13.4c-5.2-0.5-15.7-0.3-20.7,1.9c1.7,0.9,6,1.9,7.4,3
			c-7.2,1.6-14.2,3.9-21,6.9c-2.1,1-19.3,12.6-19.2,12.6c4.8,2.6,10.4,1.6,15.5,0.5c7.9-1.8,15.6-2.5,23.5-0.6
			c7.4,1.7,14,5.3,21.2,7c0.2-3.3-2.9-6.2-4.3-8.4c4.2-0.1,20.1,10,23.4,12.7c-0.8-2.8-4.7-8.7-5.1-11.7c4.1,0.6,13.3,8.8,16.1,13.6
			c0.3-4-0.1-8-1.1-11.9C304.2,924.4,301.4,920.2,297.8,916.9z"/>
		<path class="st8" d="M205.6,966c-0.4,8.8,0.4,18.7,0.9,20.1c6.1,0.7,13.6,8.9,13.6,8.9c-2.1-14.8,0.2-22.7,3.1-39.1
			C217.5,955.8,206,958,205.6,966z"/>
		<path class="st9" d="M238,978.2c-6.7-2.9-10.9,9-6.3,12.9c2.2-0.6,4.6-0.4,6.6,0.6C242.8,989.3,243,980.3,238,978.2z"/>
		<path class="st10" d="M269.8,999.5c-3.9,0-5.5-1.7-8.2-0.1s1.2,6.8,8.1,6.6s9.9-5,8.5-6.8C276.5,997.2,274.1,999.5,269.8,999.5z"
			/>
		<path class="st11" d="M268.8,984.8c-7.4-0.6-7.9,14.9-6.2,16.2c4.1,3.3,12.7,1,15.2-1.7C278.8,998.4,275.8,985.5,268.8,984.8z"/>
		<path class="st9" d="M302.4,977.7c-6.8-4.1-11.8,9.1-6.2,12.8c1.8-1.2,5.4-0.8,7.1,0C306.1,987.5,306.1,979.9,302.4,977.7z"/>
		<path class="st12" d="M234.8,981.1c-2.7,0.9-0.6,6.2,2,4.3C238.7,984,237.2,980.3,234.8,981.1z"/>
		<path class="st12" d="M298.9,980c-2.7,0.5-1.4,5.8,1.4,4.3C302.3,983.2,301.3,979.5,298.9,980z"/>
		<path class="st4" d="M244.2,963.5c-4.6-0.7-9.3-0.4-13.8,0.8c-7.1,2-7.4,5.5-6.9,7.8s3,1.2,10.9,0.8c7.4-0.4,12.8,1.2,14-2.2
			c1.1-2.7-0.2-5.8-2.8-6.9C245.2,963.7,244.7,963.6,244.2,963.5z"/>
		<path class="st4" d="M305.1,964c-4.5-1-9.2-1-13.8,0c-2.9,0.5-4.8,3.3-4.2,6.2c0.1,0.5,0.2,0.9,0.4,1.3c1.4,3.4,6.7,1.5,14,1.4
			c8,0,10.6,0.9,10.9-1.4C312.8,969.1,312.4,965.5,305.1,964z"/>
		<path class="st4" d="M312.7,1017.5c-0.2-2.9,1.9-6.2,2.5-9.2c1.5-7.3,1.7-20.6-5.1-25.2c1.4,13.6-2.9,23.9-5.5,26.5
			c-5.5,5.3-12.3-1.9-14.9-3.7c-7.1-5-11.1-2.8-19.5-1.7c-11.2,0.2-16.8-3-24.4,7.1c-6,7.8-20.6,4.5-23.8-15.6
			c-0.5-3.2,0.2-10.3-4.8-8.8c-5.7,1.8-1.1,30.4-1.1,35.9c0,4.5,0.5,14.4,6,15.6c-1.5,5.5-0.7,14.5,7.3,12.3
			c-0.4,4.4-0.7,9.5,3.4,12.2c3.2,2.1,9.8,2.1,12.4-0.9c2.1,3.8,4.8,7.3,9.3,8.3c3.6,0.8,10.5,0.3,11.4-4.1c3.6,4.4,23.8,8.5,23.1-1
			c7.3,5.7,16.1,0,13.7-8.8c7.7,0.7,9.7-3.2,9-10.2c6.5-1.6,6.6-9.3,5.7-14.8C316.6,1026.7,313,1022,312.7,1017.5z"/>
		<path class="st13" d="M280.9,1015.6c-1.5,3.7-8,1.4-10.4-0.2c-2.4,2.7-9.3,3.4-11.9,0.8c-0.5,2-7.2,3.9-7.5,6.6
			c5.8,9.8,35.8,6.2,39.1-1C289.6,1019,283,1017.7,280.9,1015.6z"/>
		<path class="st8" d="M259.2,1020.5c0,0,13.5,1.8,21.3-0.8C277.1,1017.9,262,1019.1,259.2,1020.5z"/>
		<path class="st14" d="M277.8,1032.4c-8.1,1.4-18.2-0.4-26.1-2.3c-4.8-1.2-6.8-2.4-10.8,0.9c-2.6,2.2-4.9,4.7-6.7,7.6
			c-2.4,3.8-1.9,18.6,3.4,11.7c0.6,8,7.6,6,11.7,1.6c1.2,4,0.7,7,5.8,7.8c3.4,0.5,6.8-1,8.8-3.9c3.2,1.4,6.9,7.5,11,5.7
			c2.9-1.3,1.3-6,3.1-6.8c3-1.3,8.1,6.4,11.7,2.6c2.2-2.3-0.9-6.1-2-8.3c2.9,1.5,10.9,4.1,13.4,0.2c1.3-2-0.6-6.1-1.3-8.2
			c0.6,2,5.7,0.4,6.2-1.2c0.8-2.3-2.4-5.7-3.7-7.3C294.9,1023.8,287.3,1030.8,277.8,1032.4z"/>
	</g>
</g>
<g>
	<defs>
		<circle id="SVGID_3_" cx="809" cy="984.3" r="110.2"/>
	</defs>
	<clipPath id="SVGID_4_">
		<use xlink:href="#SVGID_3_"  style="overflow:visible;"/>
	</clipPath>
	<g class="st15">
		<rect x="698.8" y="874.2" class="st16" width="220.3" height="220.3"/>
		<path class="st17" d="M831,1046.1c-16.3-8.8-40.2-5.8-51,1.3c-14.2,9.2-11.9,24.2-8.2,47.1h66.5
			C842.3,1072.4,844.9,1053.5,831,1046.1z"/>
		<path class="st18" d="M845.3,1053.5c-1.4-3.6-17.6-9-17.6-9c-4.5,14.7-5.4,34-5.1,50h21.1C845,1072.5,846.2,1055.8,845.3,1053.5z"
			/>
		<path class="st18" d="M839.6,1049.3l-3.1,45.2h20.3c0.7-5.3,1.8-14.5,2.4-23.7C860,1056.7,849.7,1053.5,839.6,1049.3z"/>
		<path class="st18" d="M781.8,1044.5c0,0-16.2,5.4-17.6,9c-0.9,2.3,0.3,19,1.5,41h21.1C787.2,1078.6,786.3,1059.2,781.8,1044.5z"/>
		<path class="st18" d="M750.4,1070.8c0.5,9.2,1.7,18.4,2.4,23.7h20.3l-3.1-45.2C759.8,1053.5,749.6,1056.7,750.4,1070.8z"/>
		<path class="st19" d="M782.9,1055.3c3.2,11.2,14.1,17.5,14.1,17.5l7.7-9l10.2,8.9c6.9-3.8,13.7-12.8,13.8-20.3
			C828.7,1047.1,779.8,1044.1,782.9,1055.3z"/>
		<path class="st20" d="M783,1042c-8.7,12.3,13.2,27.9,13.2,27.9l8.5-7.1l9.7,7.4c0,0,19.8-11.5,12.8-27
			C820.9,1029.4,791.8,1029.6,783,1042z"/>
		<path class="st21" d="M820.4,1030.9c-5.5-4.3-16.2-5-22.8-3.6c-6.8,1.5-11.4,7.8-11.9,14.4c-0.6,8.3,11.6,19.4,20.2,19.6
			C812.3,1061.5,839.5,1046,820.4,1030.9z"/>
		<path class="st20" d="M804.4,1074.6c-1.2,0-2.2,1-2.2,2.2c0,1.2,1,2.2,2.2,2.2c1.2,0,2.2-1,2.2-2.2S805.6,1074.6,804.4,1074.6
			L804.4,1074.6z"/>
		<path class="st20" d="M804.3,1085.5c-1.2,0-2.2,1-2.2,2.2c0,1.2,1,2.2,2.2,2.2c1.2,0,2.2-1,2.2-2.2c0,0,0,0,0,0
			C806.5,1086.4,805.5,1085.5,804.3,1085.5L804.3,1085.5z"/>
		<path class="st22" d="M804.9,1068.6l13.3,8.9c2.5-2.8,3.6-12.6,0.8-15.6L804.9,1068.6z"/>
		<path class="st22" d="M791.6,1077.5l13.3-8.9l-14.1-6.7C788,1064.9,789.1,1074.7,791.6,1077.5z"/>
		<path class="st22" d="M805.9,1063.9c-0.3,0-0.7,0-1.2,0c-1.6-0.1-3.8-0.2-4.8,0.8c-1.5,1.5-0.1,5.1,0.5,6.8c1,2.6,3.6,1.6,6,1.6
			c3.4,0.1,4.2-2.6,4.3-5.8C810.8,1063.9,808.6,1063.8,805.9,1063.9z"/>
		<path class="st23" d="M799.7,906.5c-16.5,0.6-34,8.2-41.9,23.4c-3.1,5.9-4.3,13.3-4.5,19.9c-0.5,15.6-2.5,29.9,4.7,44.6
			c3.7,7.7,12.9,2.7,19.4,1.2c8-1.8,16-3.5,24-5.2c13.2-2.7,27.5,0.4,40.8,1.9c10.4,1.1,6.8-8.7,6.1-17.1c-1-12.6,2.8-16.1,3.2-22.5
			C853.7,921.8,838.2,905.1,799.7,906.5z"/>
		<path class="st24" d="M836.7,943.5c-3,23.1-0.5,38.4,0.5,39.8c1.3,0,3.8,0,5.7,1.9c2.5,2.5,2.3,5.2,3,6.5c0.3,0.7,5.2,1.5,7.5,1.4
			C856.9,945.2,848.4,944.6,836.7,943.5z"/>
		<path class="st25" d="M801.2,926.4c-24.8,3.8-43.7,38.4-40.5,71.8c2.3,25,20.4,53.1,49.3,52.3c29.6-0.9,45.8-36.8,43.3-67.5
			C850.5,949.5,836,921.1,801.2,926.4z"/>
		<path class="st26" d="M843.9,937.4c-13.2-5.9-26.1-9.5-40.8-10.4c-9-0.5-18.7-1.5-27.3,2c-12.8,5.1-18.5,13.5-20.6,26.5
			c-0.8,4.9-0.9,13.1,5.6,13.8c7.6,0.9,9.6-6.9,12-12.1c2-4.5,5.2-7,10.1-7.3c6.8-0.5,13.6,2.5,20.4,4.2c1.4,0.4,2.9,0.7,4.4,0.9
			c5.6,0.6,11.3,0.4,16.8-0.6c4.1-0.6,7.9-2.3,11.9-3c2.7-0.5,6.9-1.2,9.1-2.4C851.2,945.7,847.6,939.1,843.9,937.4z"/>
		<path class="st25" d="M752.7,984c-12.2,2.8-8.1,20.7,1.6,24.6c3.1,1.2,6.4,1.7,9.7,1.5c0.1-0.1,0.1-0.2,0.2-0.3
			c1.5-2.2,0.1-15.2-0.6-17.6C762,986,758.5,982.6,752.7,984z"/>
		<path class="st27" d="M756.6,990.7c-2.7-1.4-9.5,0.6-6.6,6c1.9-4.8,4.8-1.5,4.2,2c-0.4,2.3-2.9,2.3-0.5,5.4c1.3,1.7,4,1.2,5.5,0.4
			C763.6,1001.9,759.9,992.3,756.6,990.7z"/>
		<path class="st23" d="M850.2,914.4c-2.9-1.8-10.4-0.5-13.7-1.3c1.7-5,5.7-8,5.9-13.5c-3.4,1.2-6.6,3.2-10.4,3.3
			c0.6-2.2,1.9-5.3,2-7.6c-3.5,2.3-8.3,4.6-12.5,5c0.3-2.6,0.8-5.2,1.4-7.8c-3.1,1.6-6,3.3-8.9,5.2c-0.6,0.4-6.8,3.4-6.7,2.6
			c0.1-1.5-0.1-3,0-4.5c-2.8,2.9-6.5,4.7-10.5,5.3c-0.2-0.9-0.3-1.8-0.2-2.6c-7.9,6.3-14.8,10.8-26.2,17.5c-5,3-7.4,8.5-10.1,13.8
			c-2,3.8-5.7,13.1-3.3,16.9c1.8,2.9,12.1,9.5,15.8,5.1c2-2.4,4.9-5,12.3-5.1c7.3-0.1,14.4,2.7,21.3,4.8c7.7,2.4,15,1.3,22.7-0.8
			c3-0.8,6.9-1.3,10.6-2.1c4.6-1,10.2-2.4,10.8-7.8c0.5-5,0.7-12.9,4.2-13.6c-3.1-3-6.5-4.4-10.5-5.6
			C845.6,918.8,848.4,916.6,850.2,914.4z"/>
		<path class="st24" d="M753.9,943.9c-3,23.1-0.5,38.3,0.5,39.8c2.1-0.2,4.1,0.5,5.7,1.9c2.5,2.5,2.3,5.2,3,6.6
			c0.3,0.7,3,1.8,5.4,1.7c-1.6-15.7,1.3-37.6,4.5-42.2C761.8,950,754.7,945.3,753.9,943.9z"/>
		<path class="st28" d="M851.8,926.5c-3-2-7.4-2.5-10.8-3c0.3-3.6,2.8-6.3,4.7-9.3c-4.7-0.7-9.3,2.9-13.9,2.5c2-4.3,6.2-9.8,7-14.3
			c-3.3,1-7,3.2-10.6,3c0.7-2.3,1.1-4.7,1.2-7.1c-3.3,2.2-7.1,5.9-11.5,6c-0.3-2.5,0.5-5.3,0.2-7.6c-3.7,3.7-8.2,6-12.9,8.3
			c-0.5-1.6-0.9-3.4-1.3-5c-2.1,1.5-11.2,9.8-10.2,3.3c-7.4,7.6-22,11.6-27.5,20.9c-3.2,5.4,4.3-5,31-10.7
			c1.7-0.4-16.7,12.1-16.5,13.7c1.5-0.6,25.3-13.2,25.6-11c0.8,5.9-20.1,17-23.3,21.3c-0.1,0,37.3-22.1,41.4-22.3
			c0.1,5.8-20.4,23.8-24.7,26.3c9.1-1.6,27.2-18.2,36-20c-1,2.1-20.8,20.5-24.5,23.2c4.5-1.5,26.4-14.6,31.6-16.4
			c-0.5,6.6-14.2,16.4-19,19.5c3.3-1.5,16.2-8.2,19.4-10c-0.4,2.7-2.2,5.1-3.4,7.6c2.6-2,6.1-3.8,7.8-6.8c1.3-2.2,1.8-5.2,2.7-7.5
			c-1,0.2-1.9,0.2-2.9,0.2C848.2,929.4,850.3,928,851.8,926.5z"/>
		<path class="st29" d="M789.7,977.6c-6.2-3-10.7,8.1-6.5,12c2.1-0.5,4.3-0.2,6.3,0.8C793.7,988.4,794.3,979.9,789.7,977.6z"/>
		<path class="st27" d="M815.4,999.8c-3.7-0.1-5.1-1.9-7.8-0.4s0.8,6.5,7.4,6.6s9.6-4.3,8.3-6.1
			C821.8,997.9,819.5,999.9,815.4,999.8z"/>
		<path class="st30" d="M814.6,977.4c-3,0.1-4.2,9.4-5.5,13.7s-2.3,8.5-0.8,9.8c3.8,3.3,12,1.4,14.5-1c1-1-1-5.5-2.5-10
			C819.2,985.9,818.1,977.2,814.6,977.4z"/>
		<path class="st29" d="M844.4,979.5c-6.3-4.1-11.6,8.1-6.4,11.8c1.7-1,5.1-0.6,6.7,0.3C847.5,988.9,847.8,981.8,844.4,979.5z"/>
		<path class="st31" d="M787.3,979.5c-2.6,0.8-0.9,5.8,1.7,4.1C790.9,982.4,789.6,978.8,787.3,979.5z"/>
		<path class="st31" d="M841.9,980.8c-2.6,0.4-1.5,5.4,1.1,4.1C844.9,984,844.1,980.4,841.9,980.8z"/>
		<path class="st4" d="M794.9,967.4c-3.2-0.2-6.1-1.3-9.3-1.8c-4.1-0.7-9.3,2.8-10.8,6.6c1,0,1.9-0.2,2.8-0.4
			c1.3-0.4,2.7-0.6,4.1-0.7c2.7,0,5.4,1,8,1.3c2,0.3,11.4,2.7,11.6-0.3c0.1-1-0.3-3.8-1.2-4.5C799.1,966.7,796.2,967.5,794.9,967.4z
			"/>
		<path class="st4" d="M834.9,968.5c-1.2,0-3.8-1-4.9-0.2c-0.8,0.7-1.4,3.4-1.5,4.4c-0.1,3,8.9,1.3,10.7,1.2c1-0.1,4.9-0.5,5.9-0.7
			c0.1-1.8,0.4-3.7,0.7-5.5C842.3,968.3,838.6,968.5,834.9,968.5z"/>
		<path class="st4" d="M847.9,968.8c0,1.5-0.5,2.9-0.3,4.3c0.7,0.2,4.7,0.1,5.6,0.2C852.6,971.2,849.7,970.2,847.9,968.8z"/>
	</g>
</g>
<path class="st27" d="M794.4,1017c0,0,5.7,17.7,19.8,18.1c9,0.2,11.6-4.6,14.7-10.4c1.8-3.5,3-7.2,5.2-10
	C828.3,1019.9,812.2,1025.7,794.4,1017z"/>
<path class="st32" d="M797.4,1019.4c0,0,5,12.9,17.8,12.8c6.3,0,10.4-4.8,12.2-8.3c1.2-2.4,2.8-4.6,4.6-6.5
	C813.6,1029.8,797.4,1019.4,797.4,1019.4z"/>
<path class="st33" d="M797.4,1019.4c0,0,3.7,5.3,8.1,6.9c5.6,2.1,10.7,2.1,17,0.3c4.2-1.2,9.5-9.2,9.5-9.2
	S817.4,1027.8,797.4,1019.4z"/>
<path class="st33" d="M816.5,1027.1c-4,0.2-8-0.5-11.8-2c-2.3-0.9-2,1.4-1.5,2.5c0,0,2.4,4,10.8,4.6c8,0.5,11.5-5.6,10.5-6.8
	S822.4,1026.9,816.5,1027.1z"/>
<path class="st34" d="M797.4,1019.4c1,1.5,2.2,2.8,3.5,3.9c0,0,14.6,2.6,28.1-2c0,0,2.7-2.8,2.9-3.8
	C831.9,1017.5,816.9,1027.7,797.4,1019.4z"/>
<path class="st34" d="M803.1,1025.2c12.7,6.8,20.5,0.8,20.5,0.8C816.9,1027.7,809.7,1027.5,803.1,1025.2z"/>
<path class="st35" d="M836.1,1009.4c-5.5-3.3-13.8-0.3-19.6,0.6c-6.4,1-13,0-19.5-0.2c-6.1-0.1-16.3,1.9-16.6,8.3
	c-0.4,8.3,8.3,0.7,10.4-2.1c0,1.4,3.7,0.9,6.1-0.2c-2.5,2.5,4.4,1.7,5.7,0.5c-1.2,2.1,3.8,1.4,6.2,0.1c-1.7,1.7,1.9,3,3,0.2
	c-0.8,1.9,3.5,2.1,3.5-0.1c3.4,2,5.7,0.5,4.1-1.1c3.5,2.2,6.4,0.5,5.5-0.7c2,0.8,5.7,1.6,5.7-1.1c1.5,2.3,3.7,5,5.1,5.4
	C838.2,1019.7,845,1014.7,836.1,1009.4z"/>
<path class="st36" d="M843.1,1017.4c-0.3,0.2-6.2-1-8.7,0c-1.8,0.7,7.6,22-5.1,22.5c-4.6,0.2-5.1-3.6-13.4-2.3
	c-4.3,0.7-8.6,6-14.2,4.1c-10.8-3.6-10.6-16-8.3-20.4c1.8-3.5-8.4,0.5-11.9-3c-2.3-2.2-8.8-0.4-9.6,2.4c-2.2,7.4-0.2,10.3,1.4,7.5
	c-0.1,1.1-0.8,7.5,2.2,4.7c-1.3,1.8,0,8.3,3.1,6.3c-0.3,1.7,1.3,6.8,3.6,6.4c0.5,1.7,4.2,6.7,6.1,3.6c-0.3,0.5,2.7,3.3,3.2,3.7
	c1.3,1.1,3.2,2.6,5.2,2.4c1.1-0.1,1.5-0.8,2.6-0.7s2.7,1.6,3.8,2s2.5,0.8,3.5-0.2c1.6,2.1,5.7,2.4,7.5,0.4c1.2,2,6,1.6,6.8-0.5
	c2.4,2.7,5.3-0.9,6.4-2.5c-1.1,1.7,4.7,3.2,6.2-4.8c0.3,2,2.4,1.5,3.6,0.3c0.9-1.2,1.3-2.6,1.3-4c3.5,1.9,4.3-3.7,3.9-5.3
	c3.5,0.6,2.3-5.3,1.8-6.6c4.2,1.5,2.1-5.1,1.5-6.2c2,3.7,4.1-1.4,1-6.6c3.8,2.3,0.4-3.7-2.4-3.8
	C843.8,1017.1,843.4,1017.2,843.1,1017.4z"/>
<path class="st35" d="M774.6,1023.1c-0.5,1.4,0.5,9.1,2.9,5.4c0.1,1.4,0.1,7,3.1,6.5c3.2-0.6,2.9-13.2,1.8-14.9
	C781.6,1018.8,770.6,1025.3,774.6,1023.1z"/>
<path class="st35" d="M819.4,1035c-5.4-1.9-10.5,0.6-14.7,3.9c-3.6,2.8-4.5,8.6,0.4,11.3c1.5,0.8,3.4,1,3.2-2.3
	c2,2.7,6.8,4.9,7.3,1.1c3.1,2,5.5,0.5,6.6-2.2c3.3,3.5,6.8-2.3,6.6-4.7C828.4,1038.2,823.3,1036.4,819.4,1035z"/>
<path class="st36" d="M827.1,1009c-4.4,0.4-6.3,2.5-9.9,3.9c-3.8,1.5-7.1,0.3-10.3-1c-11.2-4.5-30.1,1.6-24.8,13.5
	c0.7,1.6,1.2,3.4,3.5,3.8c2.5-5.1-1.2-12.9,6.4-15.8c-3.1,4.3,6,0,7.4-0.4c-3.9,5,3.3,2.7,6.2,1c-0.7,0.7-1.1,1.6-1.2,2.6
	c2.1,0.6,3.8-0.9,5.2-2c-0.8,2.4,2.3,2.6,3.8,1.2c0.9,1.2,1.8,0.9,2.3-0.4c0.9,0.6,1.6,0.4,2.6,0.7c0-0.5,0.3-1,0.1-1.5
	c1.9,0.9,6.3,1.4,4.7-1.5c1.7,2.1,7.7,2,6.2-1.2c3.6,1.9,4.6,5.6,5.1,8.8c0.3,2.1-0.7,11.7,4.3,8.2c2.1-1.5,2.1-5.3,1-7.1
	c5.2,2.8-0.8-6.5-1.5-7.4C835.3,1010.7,832.3,1008.5,827.1,1009z"/>
<path class="st35" d="M793.1,1037.3c-1.7-1-3.9-5.8-6.4-5.2s-1.3,5-1.1,6.4c0.1,1.1,2.5,7.1,3.9,3.5c-0.5,1.7,0.9,4.6,2.8,5.4
	s4.3-1.1,3.6-1.4c1.5,0.7,2.9,2.3,4.5,2.8c5,1.4,5-7.4,5-10c-1.2,0.4-2.5,0.7-3.7,1C798.2,1040.2,795.6,1038.9,793.1,1037.3z"/>
<path class="st37" d="M832.7,1038.6L832.7,1038.6z"/>
<path class="st35" d="M834.1,1032.3c-1.4-0.1-1.5,1.8-2,2.6c-1.1,1.5-2.7,2.5-4.5,2.9c-1,0.2-3.4-0.3-4.1,0.1
	c-1.8,1-0.6,3.6,0.7,4.6c4,3,8.6,1.2,8.6-3.3v-0.1l0,0c0-0.1,0,0,0,0c1.5,2,3,0,3.4-1.4C836.5,1036.8,836,1032.5,834.1,1032.3z"/>
<g>
	<defs>
		<circle id="SVGID_5_" cx="808.2" cy="346.9" r="109.4"/>
	</defs>
	<clipPath id="SVGID_6_">
		<use xlink:href="#SVGID_5_"  style="overflow:visible;"/>
	</clipPath>
	<g class="st38">
		<rect x="698.8" y="237.5" class="st39" width="218.8" height="218.8"/>
		<path class="st40" d="M828.8,419.6l-5.4,10.6c1.7,0.9,3.3,8.6,4.1,12.8c0.8,4.5,2,8.9,3.4,13.3h13c-2.1-3.6-3.3-8.9-4.7-15.7
			C837.3,431.6,835.6,423,828.8,419.6z"/>
		<path class="st40" d="M797.3,430.2l-5.4-10.6c-7.3,3.7-9.2,12.2-11.2,21.2c-1.1,5.1-2.4,10.6-4.7,15.5h12.9
			c1.4-4.2,2.5-8.6,3.4-12.9C793.7,437.5,795,431.4,797.3,430.2z"/>
		<path class="st40" d="M830,442.3c3.6-13.4,4-21.5-4.3-24.2c-8-2.6-22.9-3.5-31.7,0.2c-7,3-9.3,7.9-4.5,22.7c1.7,5,3,10.1,3.8,15.3
			h33.7C827.7,451.5,828.7,446.9,830,442.3z"/>
		
			<linearGradient id="SVGID_7_" gradientUnits="userSpaceOnUse" x1="808.8258" y1="1314.54" x2="808.8258" y2="1303.51" gradientTransform="matrix(1 0 0 -1 0 1726)">
			<stop  offset="0" style="stop-color:#E88958"/>
			<stop  offset="0.34" style="stop-color:#F49D62"/>
			<stop  offset="0.69" style="stop-color:#FCAB69"/>
			<stop  offset="1" style="stop-color:#FFB06B"/>
		</linearGradient>
		<path class="st41" d="M819.3,404.2c0.7-11.8-19.8-12.3-19.7,0.6c0,5.7,0.4,10.1-0.8,11.9c-4.1,6.4,11.3,15.6,11.3,15.6
			s12-9.6,9-15C817.4,414.3,819,409.4,819.3,404.2z"/>
		<path class="st42" d="M818.5,433.5c-5.8,2-12.8,1.2-18.8-0.3c-3.4-0.9-5.3,3-4.3,6.3c1.4,4.4,8.5,5.5,14.7,5.4
			c12.2-0.2,16.8-4.7,14.7-10.1C824.2,433.4,821.6,432.4,818.5,433.5z"/>
		<path class="st9" d="M878.6,325c-4.3-3.8-7-6-7.4-11.8c-0.4-6,0.7-12.7-2-18.3c-2.5-5-8.2-6.1-12.9-8.4
			c-5.3-2.5-7.6-6.4-10.7-11.2c-5.9-9.1-18.1-11.3-27.8-6.8c-1-5-7.4-7.1-14.3-7.3c-7.1-0.2-15.2,3.3-20.9,7.5
			c-6.7,5-11.6,11.8-17.8,17.4c-11.9,10.8-37.3,22.9-30.1,43.4c2.7,7.5,7.4,9.6,3,17.8c-4,7.5-6.1,11.8,0.2,18.6
			c2.5,2.7,5.1,4,5.2,7.9c0.1,3.6-3.2,6.8-3,10.5c0.5,8,6.6,13.8,14.3,18.5c9.7,5.9,21.9,10.3,28.3,15.4c11.5,9.1,17.5-7,26.8-7.3
			c4.8-0.2,7.2,4.5,13.4,9.5c9.8,7.9,24,16.1,31.9,3.8c-3.2-0.2-6.3-1.5-8.7-3.7c12.9,0.2,24.6-4,23.6-18.9
			c-0.4-5.6-2.5-7.8,1.6-12.3c3.9-4.3,12.4-4.5,12.8-11.9c0.4-6.7-7.8-8.1-9.3-13.6c-1.5-5.7,3.4-8.1,6.5-12.2
			C889.2,341.3,887.8,333.1,878.6,325z"/>
		<path class="st25" d="M803.3,290.4c-26.7,4.5-46,40.3-41.8,74.3c3.2,25.2,25.8,52.4,53.3,50.8c33-2,49.6-38.7,46.2-68.7
			C857.2,312.7,840.7,284.1,803.3,290.4z"/>
		<path class="st5" d="M859.2,319.1c-1.5-7.4-6.8-15.5-14.1-18.5c-9.7-4-25.9-12.3-36.3-8.9c-12.3,4-23.9,12.5-32.8,21.8
			c-11.3,11.9-19.6,39.4-10.8,54.2c1.9-2.6,2.1-6.5,3.2-9.6c4.2-11.3,16.6-17.9,25.3-25.5c2.6,6.1,7.9,7.2,13.7,8.4
			c-1.1-3.7-0.7-7.6,1-11c0.9-1.9,2-3.7,3.3-5.3c1.4-1.8,10.7-9.4,9.2-11.7c4.6,7.4,13.4,12,21,15.6c9.8,4.6,12,11.6,16.6,20.9
			c-1-2.1,1.8-11.5,1.8-14.4C860.5,329.8,860.1,324.4,859.2,319.1z"/>
		<path class="st9" d="M864.5,315.4c-1.3-6.4-10.7-13-14.3-18.7c-4.6-7.1-10.1-13.6-17.7-17.8c-13.1-7.2-29.3-6.7-43.8-4.5
			c-17,2.6-30.5,17.3-36.9,32c-7.4,16.7-8.4,32.9-5.8,56.4c1.3,12.2,3,28,9.9,38.5c2.1,3.2,7.7,6.5,5.5,11.1
			c-2.9,6.1-8.6-1.4-7.6-2.5c-0.5,0.6-0.9,1.2-1.3,1.8c0.2,3.6,1,6.6,3.5,9.2c8.3,8.5,18.9,3,22.8-6.7c5.3-12.9-6.5-19.6-9.8-31.2
			c-3.6-12.7-4.4-24.1,3.5-35.3c7.4-10.5,13-18.9,25.1-24.6c-3.5,7.5,3.3,20,12.6,16.2c-7.8-2.8-5.4-9.7-1.7-15
			c1.3-1.9,14.1-15.2,12.1-17.3c5,5.2,10.5,9.8,16.5,13.6c5.9,3.6,11.5,4.9,15.6,10.8c2.1,3,3.7,6.4,4.7,9.9
			c0.8,2.6,0.2,7.2,1.6,9.4c3.9,6,12,0.3,12.9-4.9c1.2-7.1-3.5-10.8-6.5-16.6C862.8,323.9,865.6,320.6,864.5,315.4z"/>
		<path class="st43" d="M804.3,324.1L804.3,324.1C804.3,324.2,804.3,324.2,804.3,324.1z"/>
		<path class="st43" d="M852,291.4c-8.5-3.5-10.3-12.5-16.8-17.8c-5.8-4.7-15-2.8-19.6,2.5c-2.5-7.6-10.6-9.1-15.4-8.6
			s-9.4,4.6-12.6,8.5c-6.8,8-13,12.7-22.1,18c-7.7,4.6-18.2,12.5-18.6,22.3c-0.2,3.8,2.2,13.7,5.7,15.9c4.1,2.4,9.4,1,13.7-0.1
			c12.1-3.2,28.7-13.2,40-27.6c-1.2,6.5-1.8,13.1-1.9,19.7c2.3-4.4,6-7.9,8.3-12.3c1.5-3,2-6.2,2.8-9.4c0.8-3.4,2.5-5.8,4.3-8.8
			c4.6,8.2,10.3,17.1,20.3,18.9c3.4,0.6,6.9,0,10.3,0.6c3.2,0.6,5,2.4,7.7,3.9c6.6,3.7,7.6-6.4,8-11.5
			C866.8,294.9,860,294.6,852,291.4z"/>
		<path class="st43" d="M754.3,375.8c-1.3-0.1-2.6,0.3-3.7,1.1c-3.7,2.9-6.2,19.6,13.2,18.6c-1.5-2-2.5-4.5-2.8-7
			C760.7,384.7,760.5,375.7,754.3,375.8z"/>
		<path class="st43" d="M867.7,327.3c-1.3,0.4-2.4,1.1-3.2,2.1c-4,4.7,2.8,10.6,5.5,13.2c1.8,1.9,3,4.2,3.6,6.6
			C886.8,335,872.3,326.3,867.7,327.3z"/>
		<path class="st43" d="M855.2,401.5c-0.5,4.3,2.5,7.7-0.3,12.3c5.1-0.6,11.6-6.1,10.1-12.5C863.2,393.7,855.6,397.2,855.2,401.5z"
			/>
		<path class="st43" d="M747.1,352.5c-3.4,5.6,1,12.8,5.7,15c-1.3-5.2,2.6-7.5,3.5-11.8S751.1,345.9,747.1,352.5z"/>
		<path class="st43" d="M868.3,372.3c-2.2,3.7-0.9,8.1-5.3,11.1c4.9,1.5,13.1-0.9,14.3-7.3C878.7,368.5,870.4,368.6,868.3,372.3z"/>
		<path class="st44" d="M848,354.9c-3.9-0.6-9.3-0.1-6.7,6c1.4,3.3,16.6,7.9,15.8,0.8c-0.1-0.7-0.3-1.4-0.6-2
			C855.1,356.6,851,355.4,848,354.9z"/>
		<path class="st44" d="M796.1,356.9c-2.9-2.2-7.3-1.4-10.3-0.5c-4,1.2-8.7,4.3-3.4,8.8c2.8,2.4,19.2-0.4,15.2-6.7
			C797.2,357.9,796.7,357.4,796.1,356.9z"/>
		<path class="st27" d="M819.7,360.9c-3.2-0.2-3.2-2-5.5-0.6s-0.6,6.5,5.1,6.7s8.4-4,7.3-5.7C825.3,359.2,823.3,361.1,819.7,360.9z"
			/>
		<path class="st44" d="M818.8,351.5c-2.7,0-6.6,9-5.3,10.4c3.3,3.3,10.5,1.8,12.7-0.5C827.1,360.4,821.8,351.4,818.8,351.5z"/>
		<path class="st45" d="M851.4,341.1c-9-3.8-17.1,7.2-10.7,13c1.3-1.4,8.3-3.7,12.6-0.4C857,351.1,856.2,343.2,851.4,341.1z"/>
		<path class="st46" d="M852.4,347.3c-2.5,0.8-1.3,5.5,1.2,3.8C855.4,350,854.6,346.7,852.4,347.3z"/>
		<path class="st46" d="M844,342.5c-4.2,1.3-2.2,9.3,2.1,6.5C849.2,346.9,847.7,341.3,844,342.5z"/>
		<path class="st45" d="M784.7,341.9c-4.7,2.2-5.3,10.1-1.6,12.6c4.2-3.4,11.3-1.3,12.6,0C802,348.6,793.6,337.8,784.7,341.9z"/>
		<path class="st46" d="M783.9,348.1c-2.2-0.6-3,2.7-1.1,3.9C785.4,353.5,786.4,348.8,783.9,348.1z"/>
		<path class="st46" d="M792.2,343c-3.7-1-5,4.6-1.9,6.6C794.6,352.2,796.4,344.1,792.2,343z"/>
		<path class="st9" d="M798.9,329.7c-4.4-0.7-8.8-0.7-13.1-0.2c-3,0.4-5.9,1.4-8.5,2.9c-0.8,0.5-1.7,1.4-1.8,2.3
			c0.7,0.2,1.3-0.3,2-0.4c3.4-0.5,6.9-0.6,10.4-0.3c2.7,0.1,5.3,0.5,8,0.6c1.8,0.1,4.2,0.6,5.3-1.1
			C802.6,331.4,801.3,329.9,798.9,329.7z"/>
		<path class="st9" d="M857.3,331.4c-2.5-1.4-5.3-2.4-8.2-2.7c-4.3-0.4-8.6-0.3-12.8,0.4c-2.3,0.3-3.6,1.7-2.2,3.7
			c1,1.6,3.4,1,5.2,1c2.6-0.1,5.2-0.5,7.8-0.7c3.4-0.4,6.8-0.3,10.1,0.2c0.7,0.1,1.2,0.5,1.9,0.3C858.9,332.8,858,331.9,857.3,331.4
			z"/>
		<path class="st47" d="M849.6,339.6c-8.3-1.5-10.6,6.6-10.6,6.6s4-5.1,9.4-2.9c12.2,5.2,18.6-3.4,18.6-3.4
			C858.3,344,853.8,340.4,849.6,339.6z"/>
		<path class="st47" d="M786.8,340.5c-4.2,0.8-8.6,4.5-17.3,0.5c0,0,6.5,8.5,18.6,3.2c5.3-2.3,9.4,2.8,9.4,2.8
			S795,338.9,786.8,340.5z"/>
		<path class="st42" d="M784.5,372.6c14.1,20.7,22.7,24.4,33.4,24.9c13.5,0.6,18-8,19.9-14.5c0.8-2.7,7.5-9.8,10.2-11.4
			c-8.4,2-16.7,1.1-29.4,1.7C808.2,373.7,792.8,376.8,784.5,372.6z"/>
		<path class="st48" d="M790.9,376.2c0,0,8.5,13.9,25.3,14c10.8,0.1,17.8-3.3,19.7-8.1c1.3-3.1,3.6-5.7,6.7-7.2
			C813.4,382,790.9,376.2,790.9,376.2z"/>
		<path class="st49" d="M797.2,377.3c0,0,0.6,4.2,6.6,5.8c7.7,2,15.9,2,24.4,0.7c5.7-0.9,8.5-7.6,8.5-7.6S820.3,380.1,797.2,377.3z"
			/>
		<path class="st49" d="M820.4,384.5c-7.7,0.4-14.1,0-17.9-2.3c-2.8-1.6-3,0.2-2.4,1.3c0,0,2.6,5.8,15.3,7
			c12.3,1.1,18.5-5.9,17.1-7.1S827.5,384.1,820.4,384.5z"/>
		<path class="st50" d="M797.2,377.3c0.3,1.1,0.8,2.1,1.6,3c0,0,28.7-2.7,35.6-0.4c1-1.1,1.7-2.4,2.3-3.7
			C836.6,376.2,816.6,379.9,797.2,377.3z"/>
		<path class="st50" d="M804.7,383c10.4,5.7,22.6,0.6,22.6,0.6C814.5,386.5,804.7,383,804.7,383z"/>
		<path class="st10" d="M854.3,333.4c-4.8,0.3-9.6,1-14.3,2.2c-4,1.1-8.7,1.5-12.3,3.5c-3.4,1.8-4.8,2.9-8.9,2.8
			c-7.3-0.3-13.5-4.8-20.8-5.6c-7.6-0.8-15.4-1.7-22.9,0.4c-2,0.5-7.8,2.8-3.9,4.9s9.7,1.4,14,1.5c2,0.1,4,0.1,5.9,0.3
			c7,0.6,17.7-0.3,17.1,8.3c-0.4,6-4.2,12.1-9.1,13.2c-4.7,1-9.5,1.5-14.3,1.5c-3.6,0-7.1-0.7-10.4-2.2c-0.9-0.4-3.7-2.2-4.6-0.9
			c-1.5,2.1,4.1,5.7,5.6,6.4c3.4,1.3,7,2.1,10.7,2.4c9.1,1,18.4,0.5,23.5-7.9c3-4.8,4.5-10.5,7.2-15.5c4.5-8.1,6.6,2.9,8.1,7.7
			c0.8,2.7,2,5.3,3.6,7.6c2.9,4,8.7,6.2,13.5,6.5c3,0.3,6-0.2,8.8-1.2c1.7-0.7,2.4-2.6,0.3-3.4c-1.2-0.5-3.2-0.1-4.5-0.2
			c-1.9,0-3.8-0.2-5.6-0.4c-2.4-0.5-4.7-1.4-6.7-2.9c-1.4-1-2.6-2.3-3.5-3.8c-1.8-3.1-2-6.9-0.7-10.2c1.7-4.6,6.7-5,10.9-5.4
			c5.1-0.4,10.2-0.4,15.3-0.8c2.2-0.1,4.5,0,6.7,0.2c2.9,0.1,9.1-0.8,5.7-5S859,333.1,854.3,333.4z"/>
		<path class="st17" d="M767.8,333.4c-6,0.2-11.1-1.5-12.5-0.2c-1.8,1.6,1.4,6.9,1.4,6.9c1.4,0.9,3,1.4,4.7,1.6
			c0.4,4.1,0.2,14.9,7.8,21.7c6.4,5.6,27.2,7.2,33.7,4c8-4,11.4-11.5,12.8-18.9C819.2,330.2,776.3,333.1,767.8,333.4z M803.4,362.4
			c-7.9,5.1-28.2,2.8-33.4-3.7c-4.1-5-4.8-15.5-2.3-17c7.6-4.6,36.1-2.9,42.7,2.1C813.5,346.2,809.4,358.5,803.4,362.4L803.4,362.4z
			"/>
		<path class="st17" d="M866,331.5c-7.6,0-46.5-1.3-42.7,16.7c1.5,7.3,4.9,14.7,12.3,18.4c6,3,24.7,0.7,30.3-5.2
			c6.7-7,6.1-17.8,6.3-22c1.5-0.2,3-0.8,4.2-1.7c0,0,2.7-5.5,1-7C876,329.6,871.5,331.5,866,331.5z M865,356.8
			c-4.5,6.7-22.7,9.8-30,5c-5.5-3.7-9.7-15.8-6.9-18.3c5.8-5.3,31.5-8,38.5-3.7C868.8,341.2,868.5,351.7,865,356.8L865,356.8z"/>
		<path class="st51" d="M833.1,341.8c-4.2,1.8,3.5,4,5.1,4.3c6.1,0.7,12.3,0.5,18.3-0.8c3.2-0.6,10.1-3.6,8.1-5.3
			C861.8,337.6,837.8,339.8,833.1,341.8z"/>
		<path class="st52" d="M852,340.7c-2.3,0.4-3.8,1-3.2,2.1c1.3,2,14.7,0.8,15.6-0.8S856.9,339.9,852,340.7z"/>
		<path class="st53" d="M837.5,357.5c-1.4-0.1-2.5,0.2-2.2,1.1c0.5,1.8,8.9,2.9,9.6,1.8S840.5,357.7,837.5,357.5z"/>
		<path class="st53" d="M774.6,357.2c-1.5-0.2-2.6-0.1-2.4,0.9c0.3,1.8,8.9,4,9.8,3S777.8,357.7,774.6,357.2z"/>
		<path class="st51" d="M807.1,342.8c-5.4-1.9-31.9-3.8-34.7-1.4c-2,1.7,5.9,4.4,9.5,5c6.6,1.1,13.4,1.3,20.1,0.6
			C803.8,346.6,812,344.5,807.1,342.8z"/>
		<path class="st52" d="M795.6,341.2c-2.4,0.1-4.1,0.6-3.6,1.7c1,2.2,15.3,2.6,16.5,1.2S800.8,341.1,795.6,341.2z"/>
		<path class="st17" d="M828.3,337.4c-5.5,2.6-11,3-18.7,0.3c-5.8-2.1,3.1,3.8,3.8,6.8s-0.3,12.3,1.7,6.8s6.1-5.9,8.7-0.8
			s2.4-8.5,3.4-9.7S833.9,334.8,828.3,337.4z"/>
		<path class="st54" d="M770.6,335.2c16.2,0.8,29.1,1.2,38.9,4.9C803.1,334.9,792.2,333.8,770.6,335.2z"/>
		<path class="st54" d="M864.7,332.9c-19.7,0.8-28.9,0.9-34.2,6C839,334.8,850,335.1,864.7,332.9z"/>
	</g>
</g>
<circle class="st55" cx="264.5" cy="346.1" r="108.7"/>
<g>
	<defs>
		<circle id="SVGID_8_" cx="264.7" cy="346.3" r="108.9"/>
	</defs>
	<clipPath id="SVGID_9_">
		<use xlink:href="#SVGID_8_"  style="overflow:visible;"/>
	</clipPath>
	<g class="st56">
		<path class="st35" d="M286.7,412.8c-9.6-3.9-19-11.2-24.2-20.1c-2.7-4.6-7.1-14.5-7.3-20c1.6,1.1,4.3,4.8,6,5.6
			c-1.7-7.3-2.7-14.8-3-22.4c-0.1-2.3,2.9-23.2,2.9-23.2c4.4,3.3,6,8.9,7.2,14.2c1.9,8,4.6,15.5,9.7,22.1
			c4.7,6.1,10.9,10.7,15.6,16.7c-2.9,1.6-6.8-0.1-9.5-0.4c1.8,3.9,17.8,14.4,21.7,16.3c-2.9,0.5-9.9-0.6-12.8,0.3
			c2.3,3.5,13.8,8.6,19.3,9.2c-3.5,2-7.3,3.3-11.2,4C296.1,415.5,291.2,414.8,286.7,412.8z"/>
		<path class="st35" d="M248.7,416c9.6-3.9,19-11.3,24.1-20.2c2.7-4.6,7.1-14.5,7.2-20.1c-1.6,1.2-4.3,4.8-5.9,5.6
			c1.7-7.4,2.7-14.9,2.9-22.4c0-2.4-3-23.2-3-23.2c-4.4,3.3-6,9-7.1,14.2c-1.8,8-4.6,15.5-9.6,22.1c-4.7,6.1-10.9,10.7-15.5,16.8
			c2.9,1.6,6.8-0.1,9.4-0.5c-1.7,3.9-17.8,14.5-21.6,16.4c2.9,0.4,9.9-0.7,12.8,0.2c-2.3,3.5-13.7,8.6-19.2,9.3
			c3.5,2,7.3,3.3,11.2,4C239.2,418.8,244.2,418,248.7,416z"/>
		<path class="st57" d="M300.5,420.6c-7.3-16.7-52.7-18.4-66.2-0.5c-5.6,7.4-4.6,21.8-1.9,35.1h68.2
			C303,442.8,304.2,429.3,300.5,420.6z"/>
		<path class="st58" d="M275.2,431.3c0,0-2.4-5.6-9.5-4.3c-3.6,0.5-6.4,3.1-7.3,6.6l5.2,5.3l-2,16.1h11.8l-3.3-16L275.2,431.3z"/>
		<path class="st59" d="M243.5,421c3,12.8,13.9,19,13.9,19l9.9-10.3l10.5,9.8c10-9.8,12.3-11.7,13-20.2S240.7,409.2,243.5,421z"/>
		<path class="st60" d="M243.7,412c-4.9,13.7,12.9,24.9,12.9,24.9l10.6-7.3l9.9,6.8c0,0,19.6-11.1,12.2-27.1
			C282.7,394.9,249.4,396.1,243.7,412z"/>
		<path class="st61" d="M259.3,395.6c-6.5,1.4-10.8,7.6-11.3,14c-0.4,4.9,0.4,7.8,3.2,10.5c2.5,2.3,5.4,4,8.6,5
			c2.4,0.7,6.6,3.5,7.4,3.6c0.3,0,1.7-1.2,3.9-2.4c3.3-1.7,8-4,9.8-7.5c2.7-5.2,5.1-15.6,0-19.6C275.8,395,265.6,394.3,259.3,395.6z
			"/>
		<path class="st2" d="M257.7,286.5c-26.6,5-45.4,42.2-40.5,77.1c3.7,26.1,24.4,54.8,55.7,52.6c31.9-2.2,47.7-40.6,43.6-72.7
			C312,308.5,294.9,279.4,257.7,286.5z"/>
		<path class="st5" d="M292.7,292.8c-10.3-2.9-21-4.5-31.7-4.7c-9.5-0.1-19.9-0.7-28.8,3.1c-4.9,2.1-10.9,4.9-12.7,10
			c-1.5,4.2-3.3,9.7-0.9,13.4c5.1,7.8,15,3.1,18.8,1.2c8.2-4.1,45.3-1.3,62.6-1.3c7.2,0,17.6-1.2,14.6-10.7
			C312.3,296.4,299.5,294.7,292.7,292.8z"/>
		<path class="st2" d="M207.9,349c-13.1,3.5-7.8,22,2.9,25.8c3.4,1.1,7,1.5,10.6,1.1c0.1-0.1,0.1-0.2,0.2-0.3
			c1.6-2.4-0.6-15.9-1.4-18.5C218.1,350.7,214.1,347.3,207.9,349z"/>
		<path class="st6" d="M212.5,355.8c-2.9-1.3-10.3,1.1-6.8,6.6c1.8-5.2,5.1-1.8,4.6,1.9c-0.3,2.5-3,2.5-0.3,5.7
			c1.5,1.7,4.4,1.1,5.9,0.2C220.6,367.3,216,357.4,212.5,355.8z"/>
		<path class="st35" d="M299.5,276.9c-20.1-11-51-8.1-67.9,4.9c-17.3,13.3-21.6,37.1-21.6,58.4c0,7.3,1.8,12.5,7.2,17.3
			c6.2,5.5,5.7-11.3,6.2-17.7c1.3-14.3,6.9-25.9,22.1-26.5c10.1-0.4,49.6-2.3,58.9,1c5.1,1.8,11.9,4.6,12.9-3.9
			c1.1-9.2-1.3-18.8-7.3-25.5C306.9,281.7,303.4,279,299.5,276.9z"/>
		<path class="st62" d="M295.5,374c-5.8,0.5-12.2,0.8-20.3,1.2c-7.5,0.4-17.4,1.6-25.7,1c-6-0.4-8.5,0.3-4.5,4.9
			c11.5,13.2,19,14.4,28.8,14.6c14.2,0.4,19.6-5.9,21.6-12.2c0.4-1.2,2.1-3.3,4.1-5.4C303.6,373.7,303.5,373.2,295.5,374z"/>
		<path class="st63" d="M246.1,377.5c6.3,8.4,16.1,13.3,26.6,13.3c11.3-0.1,18.6-3.4,20.6-8.1c1.4-3.1,3.9-5.6,7-7
			C269.7,382.9,246.1,377.5,246.1,377.5z"/>
		<path class="st49" d="M252.6,378.5c0,0,0.6,4.1,6.9,5.5c8.1,1.9,16.7,1.8,25.6,0.4c6-1,8.8-7.5,8.8-7.5S276.9,380.9,252.6,378.5z"
			/>
		<path class="st49" d="M277,385.2c-8.1,0.4-14.8,0.1-18.8-2c-2.9-1.5-3.1,0.2-2.5,1.3c0,0,2.7,5.6,16.1,6.6
			c12.9,1,19.4-5.9,17.9-7.1S284.5,384.8,277,385.2z"/>
		<path class="st50" d="M252.6,378.5c0.3,1.1,0.9,2.1,1.7,2.9c0,0,30.1-2.9,37.3-0.8c0,0,2.1-2.3,2.4-3.7
			C294,377,273,380.8,252.6,378.5z"/>
		<path class="st50" d="M260.6,383.9c10.9,5.4,23.8,0.3,23.8,0.3C270.8,387.3,260.6,383.9,260.6,383.9z"/>
		<path class="st9" d="M242.8,340.7c-6.9-2.9-11.2,9-6.5,12.8c2.3-0.6,4.7-0.4,6.8,0.6C247.7,351.8,247.9,342.9,242.8,340.7z"/>
		<path class="st10" d="M275.4,362c-4,0-5.6-1.7-8.4-0.1s1.2,6.8,8.3,6.6c7.1-0.3,10.1-5,8.7-6.7C282.3,359.7,279.9,362,275.4,362z"
			/>
		<path class="st11" d="M274.4,347.4c-7.5-0.6-8.1,14.8-6.4,16.1c4.2,3.2,13,1,15.6-1.7C284.6,360.8,281.6,348,274.4,347.4z"/>
		<path class="st9" d="M308.9,340.3c-7-4.1-12.1,9-6.4,12.7c1.8-1.2,5.5-0.8,7.3,0C312.6,350,312.6,342.5,308.9,340.3z"/>
		<path class="st12" d="M239.5,343.6c-2.8,0.9-0.7,6.2,2.1,4.3C243.5,346.5,242,342.8,239.5,343.6z"/>
		<path class="st12" d="M305.3,342.5c-2.8,0.5-1.4,5.8,1.4,4.3C308.7,345.8,307.7,342.1,305.3,342.5z"/>
		<path class="st4" d="M249,328.6c-5.5-0.5-11,0.2-16.3,1.8c-6.9,2.5-4.7,6.3-4,7.4s0.9-1.8,8.9-3.8c7.3-1.8,15.1,0.3,15.9-1.6
			C254.5,330,251.5,328.8,249,328.6z"/>
		<path class="st4" d="M310.9,328.3c-4.7-1.3-11.4-1.2-16.4-0.1c-2.4,0.5-5.4,2.1-4.2,4.8c0.9,2.1,8.5-1.2,16-0.1
			c8.1,1.2,8.5,4.3,9.2,3.1C316.1,334.7,318,330.3,310.9,328.3z"/>
		<path class="st57" d="M242.8,428.4l-1.1-14.8c-21.8,5-28.6,22.9-29.6,41.5h21.8C233.9,455.2,235,432.1,242.8,428.4z"/>
		<path class="st57" d="M292.8,413.7l-1.1,14.8c7.8,3.7,8.9,26.8,8.9,26.8h21.8C321.4,436.5,314.6,418.7,292.8,413.7z"/>
		<path class="st35" d="M308.2,328c-8.3-1.4-15.9-5.1-19.5-10.6c-1.9-2.8-4.5-9-4-12.8c1.3,0.6,3.3,2.7,4.7,3
			c-0.6-5-0.5-10.1,0.3-15c0.3-1.6,5.9-16.4,5.9-16.4c3.6,1.7,4.3,5.4,4.7,8.8c0.6,5.3,2.1,10.1,5.9,13.9c3.5,3.6,8.5,5.9,12,9.4
			c-2.8,1.5-6.2,0.9-8.6,1c1.1,2.5,14.4,7.5,17.6,8.3c-2.7,0.7-9,0.9-11.7,1.9c1.7,2.1,11.4,4,16.4,3.7c-3.4,1.8-7.1,3.3-10.8,4.3
			C316.9,328.6,312.5,328.7,308.2,328z"/>
		<path class="st35" d="M221.5,332.8c7.8-1.8,15.1-6,18.7-11.6c1.9-3,4.7-9.3,4.3-13.2c-1.2,0.7-3.2,2.9-4.6,3.3
			c0.8-5,0.9-10.2,0.4-15.2c-0.2-1.6-4.7-16.3-4.7-16.3c-3.4,1.9-4.3,5.6-4.8,9.1c-0.8,5.4-2.4,10.3-6.1,14.4
			c-3.4,3.8-8.3,6.3-11.7,10.1c2.6,1.4,5.8,0.6,8,0.6c-1.1,2.5-13.8,8.3-16.9,9.2c2.5,0.6,8.3,0.5,10.9,1.4
			c-1.6,2.2-10.9,4.6-15.5,4.5c3.1,1.7,6.5,3,9.9,3.9C213.5,333.8,217.6,333.8,221.5,332.8z"/>
	</g>
</g>
<path class="st35" d="M284.4,408.4c-2.3,0-4.4-1.1-5.6-3c-1.7-2.4-5.6-2.3-7.9,1.2c-1.3,2-2.6,3.1-5.5,3
	c-8.2-0.3-10.9-10.1-10.9-10.1c-2.9,2.6,1,20.4,20.4,18.7s18.7-18.3,18-20.5C291.6,397.4,290.5,408,284.4,408.4z"/>
<path class="st64" d="M293.6,374.1c-0.5,1.3-3.3,1.8-4.4,2c-2.4,0.3-4.8,0.1-7.1-0.7c-0.4,2.8-7-0.6-7.9-1.8
	c-0.5,1.6-2.4,2.6-3.9,2.9c-2.4,0.4-3.2-0.8-4.5-2.5c-1.7,1.6-3.9,2.6-6.3,2.8c-1.1,0.1-4,0-4.8-1c-1.5-1.9,4.4-5.7,5.9-6.6
	c2-1.3,4.5-1.2,6.7-0.8c3,0.6,6.2,0.7,9.2,0.5c3.6-0.5,7.4-1.2,10.9,0.4c1.5,0.7,5.4,2.2,6.1,3.8
	C293.7,373.4,293.7,373.8,293.6,374.1z"/>
<g>
	<defs>
		<circle id="SVGID_10_" cx="808.3" cy="665.6" r="109.5"/>
	</defs>
	<clipPath id="SVGID_11_">
		<use xlink:href="#SVGID_10_"  style="overflow:visible;"/>
	</clipPath>
	<g class="st65">
		<rect x="698.8" y="556.1" class="st66" width="219" height="219"/>
		<path class="st17" d="M835.7,727.8c-12.4-4.3-36-6-50.6,0.6c-8.1,3.6-7,26.1-6.4,46.7h63.8C842.9,754.4,843.5,730.5,835.7,727.8z"
			/>
		<polygon class="st67" points="805.5,749.8 816.4,750.2 815.2,772.7 805.9,772.8 		"/>
		<path class="st67" d="M810.7,751.2l9.9,7.8c0,0,19.6-12.8,12.2-31c-6.7-16.4-40-15.1-45.7,3.1c-4.9,15.6,12.9,28.4,12.9,28.4
			L810.7,751.2z"/>
		<path class="st68" d="M788.8,725.3c0.7-13.5,12.8-18.9,21.5-19s20.9,4.7,22,18.2c0.5,6.3-0.4,9.9-3.5,13.5
			c-5,5.7-16.5,10.9-17.8,11.2c-1.4,0-13-5-18.2-10.5C789.4,735.3,788.5,731.6,788.8,725.3z"/>
		<path class="st69" d="M854.1,736.7c-1.5-3.3-16.9-8.3-16.9-8.3c-9.4,14.4-13.4,31.5-14.7,46.8h24.3
			C849.8,752.1,855.4,739.5,854.1,736.7z"/>
		<path class="st69" d="M850.3,732.3l-8.9,14.7c2.8,3,3.9,16.2,4.6,28.2h22C866.3,752,859.5,737.4,850.3,732.3z"/>
		<path class="st70" d="M833.7,717.9c30.3,1.7,15.5,41.6,0.7,28.2c-2.6,1.8-6.5,6.5-9.6,13.4C828.8,740.7,833.7,717.9,833.7,717.9z"
			/>
		<path class="st69" d="M767.7,736.7c1.5-3.3,16.9-8.3,16.9-8.3c9.4,14.4,13.4,31.5,14.7,46.8H775
			C772,752.1,766.5,739.5,767.7,736.7z"/>
		<path class="st69" d="M771.6,732.3l8.9,14.7c-2.7,3-3.9,16.2-4.6,28.2h-22C755.5,752,762.3,737.4,771.6,732.3z"/>
		<path class="st70" d="M788.1,717.9c-30.3,1.7-15.5,41.6-0.7,28.2c2.6,1.8,6.5,6.5,9.6,13.4C793,740.7,788.1,717.9,788.1,717.9z"/>
		<path class="st71" d="M812.6,756.1c0,1.1-0.8,1.9-1.9,1.9c-1.1,0-1.9-0.8-1.9-1.9c0-1.1,0.8-1.9,1.9-1.9c0,0,0,0,0,0
			C811.7,754.2,812.6,755,812.6,756.1z"/>
		<path class="st71" d="M812.7,766.8c0,1.1-0.9,1.9-1.9,1.9c-1.1,0-1.9-0.9-1.9-1.9c0-1.1,0.9-1.9,1.9-1.9
			C811.8,764.9,812.7,765.7,812.7,766.8C812.7,766.8,812.7,766.8,812.7,766.8z"/>
		<path class="st72" d="M856.7,694.1c-2.8,1-5.8,1.2-8.7,0.8l-0.2-0.3c-1.2-2.4,0.9-15.7,1.6-18.2c1.8-6.3,5.1-9.5,10.2-7.7
			C870.3,672.6,865.6,690.8,856.7,694.1z"/>
		<path class="st73" d="M778.6,679.3c8.4-2.1,16.9-4,25.3-5.8c13.9-3.1,29.1,0,43.3,1.3c11,1,11.8,6.2,11.9-2.8
			c0-11.1,2-29.3,0-41.7c-9.1-57.3-92.5-47.4-104.6-5c-4.4,15.4-4.2,37.6,3.6,53C762.1,686.3,771.8,681,778.6,679.3z"/>
		<path class="st25" d="M760.8,682.2c2.9,26.5,22.4,55.9,53.1,54.6c31.3-1.4,47.9-39.7,44.7-72.2c-3.4-35.4-11-65.2-56-59
			C763.2,610.9,757,646.9,760.8,682.2z"/>
		<path class="st25" d="M754.8,696.7c3.9,1.9,8.3,0.9,10.3-3.5c2.3-3,1.1-11.3-1-18.5c-1.7-5.8-5.5-8.9-11.8-7.5
			C739.1,670.4,745,692,754.8,696.7z"/>
		<path class="st74" d="M759.3,688.9c4.8-2.8,0.6-12.8-2.9-14.6c-2.8-1.4-10.1,0.8-6.9,6.5c1.9-5.2,5-1.7,4.4,2
			c-0.4,2.5-3.1,2.4-0.5,5.7C754.9,690.3,757.8,689.8,759.3,688.9z"/>
		<path class="st75" d="M806.5,598.6c-32-0.3-54.7,22.7-52.6,68.4c1.3,0,4.1,0,6,1.9c2.7,2.6,2.6,5.5,3.3,6.9
			c0.3,0.7,0.7,1.9,3.3,1.8c-4.8-15.4-1.7-38.7,3.5-45.7c13-17.4,33.8,2.3,49.7,1.9c12.7-0.3,26.5-16.6,33.5-0.1
			C857.9,644.9,857.8,599,806.5,598.6z"/>
		<path class="st74" d="M826.3,683.7c-1.8-2.1-4.2,0.3-8.8,0.5c-4.1,0.2-5.8-1.7-8.6,0.1s1.4,7.1,8.7,6.7S827.9,685.5,826.3,683.7z"
			/>
		<path class="st30" d="M815.7,665.7c-3.3,0.5-7.4,18.3-5.5,19.6c4.5,3.1,13.7,1.3,16.2-1.7C827.3,682.6,819.5,665.2,815.7,665.7z"
			/>
		<path class="st7" d="M771.8,650.3c-2.6,0.3-3.1-2.3-0.2-3.6c4-1.8,8.8-3.4,12.1-3c3,0.3,18.4,3.8,14.8,8.9c-1.8,2.5-6.3,0-8.1-1.1
			c-3.8-2-8.2-2.8-12.5-2.2C776.9,649.4,774.3,650,771.8,650.3z"/>
		<path class="st7" d="M855.8,651.4c2.1,0.3,3-2.1,0.6-3.4c-3.6-2-8-3.7-11-3.4c-2.8,0.3-17,3.3-13.9,8.5c1.5,2.6,5.7,0.1,7.5-0.9
			c3.5-1.9,7.5-2.6,11.5-1.9C851.3,650.4,853.6,651.1,855.8,651.4z"/>
		<path class="st76" d="M790,691.5c2.1,7.4-6.2,9.9-8.2,2.7C784.3,695.9,788.1,694.9,790,691.5z"/>
		<path class="st76" d="M839,693.5c-2.9,7.1,5.1,10.5,7.9,3.6C844.2,698.5,840.5,697,839,693.5z"/>
		<path class="st76" d="M798.5,708.3c-5.7,0-10.8-2-13.5-10c-0.4-1.1,0.2-2.3,1.3-2.7s2.3,0.2,2.7,1.3c2.9,8.3,7.9,7.9,17.9,6.2
			c4.4-0.9,8.9-1.3,13.4-1.3c2.8,0.2,5.5,0.6,8.2,1.2c5.7,1.2,8.1,1.7,10.7-3.9c0.5-1.1,1.7-1.5,2.8-1s1.5,1.7,1,2.8
			c-4,8.6-9.6,7.4-15.4,6.2c-2.5-0.6-5-1-7.5-1.1c-4.2,0-8.4,0.4-12.5,1.2C804.6,707.9,801.6,708.2,798.5,708.3z"/>
		<path class="st9" d="M786.2,674.1c-2.3-0.9-4.9-0.9-7.3-0.1c-5.3-3.9-1.7-17.3,5.9-14.6C790.5,661.3,791,671.2,786.2,674.1z"/>
		<path class="st9" d="M849.7,660.5c4,2.5,3.7,10.8,0.6,14.1c-1.9-0.9-5.8-1.4-7.8-0.2C836.4,670.1,842.3,655.8,849.7,660.5z"/>
		<path class="st12" d="M782.4,661.8c2.6-1.1,4.5,2.9,2.5,4.5C782.1,668.7,779.5,663.1,782.4,661.8z"/>
		<path class="st12" d="M846.7,662c2.6-0.5,3.6,3.7,1.3,4.8C845,668.3,843.8,662.5,846.7,662z"/>
		<path class="st40" d="M858.7,668.5c0,0,2.3,2.1,3.3-1.6s10.7-62-33.5-79.1c-37.1-14.3-73.3,8.2-82.2,30.4
			c-7.5,18.9,1.7,23.8,1.7,23.8s-3.2,4.4-0.6,12.8c1.4,4.3,1.6,8.8,0.5,13.2c-0.8,3.7,5.9-2.9,13.1,1.7c1.8-30,17.6-52.8,60.1-50.8
			C865,621.1,858.2,656.4,858.7,668.5z"/>
		<path class="st42" d="M758.8,636c0.7-4.7,2.6-9.2,5.7-12.8c6.5-8.2,15.1-14.2,25.3-16.7c3.1-0.8,6.2-1.4,9.3-1.6
			c-5.1-2.3-13.7-1.3-18.5,1.2s-9.1,6.3-14.5,7.2c-7.3,1.3-8-4.5-3.5-9.3c9.5-10,22.5-16,36.3-16.6c9.6-0.5,19.6,0.4,28.5,4
			c3.2,1.3,7.1,3.3,9.3,5.9c4.5,5.3-2.3,5.3-6.7,5c-3.9-0.2-7-1-10.7,0.8c1.2-0.6,8,1.5,9.8,1.7c3.5,0.2,7,0.7,10.5,1.5
			c5.2,1.4,9.8,4.7,12.7,9.3c2.5,3.8,6,8.7,5,13.5c-7.2,0.3-3.8-11.7-7.8-14.2c-1.3,1.7-0.3,7-4.2,5.8c-2.6-0.8-2.6-10.6-5.7-7.4
			c-1.4,1.4,0.3,3.6-0.7,4.9c-1.5,1.8-3.9-0.1-4.8-1.5s-2.2-7.4-4.6-7.3s-0.7,4.9-2,6.2c-3.4,3.3-6.9-4.6-8.1-6.2
			c-3-4.1-3.3,2.7-4.2,5.2c-2.8-0.2-4.8-6.5-7.5-5.9s0.3,7-2.6,6.9c-1.9,0-3.3-4.7-5.5-4.6c-2,0.1-1.7,1.9-2.1,3.7
			c-1.7,6.6-3.9-0.3-7.7-1.3c-0.3,1.3,1.1,5.7-0.3,6.4c-1.8,0.9-4.3-3-5.8-3.6c-0.6,1.8,0.4,5.5-1.8,6.3c-2.5,0.9-4.5-4.4-6.7-3.3
			c-1.7,0.9,1.1,6-0.8,6.9s-3.7-2.8-5-3.6c-0.7,3.8,2.7,11-3.4,7c-0.6,3.1,1.2,7.8-3,6.7c0,1.5,0.1,7-1.8,7.8
			C757.6,645.5,758.6,637.6,758.8,636z"/>
	</g>
</g>
<rect x="780.7" y="692.2" class="st25" width="66.2" height="18.1"/>
<path class="st27" d="M846.6,698.2c-1.1-2.2-7.4-1.1-7.4-1.1c-1.1,0.2,0.9,0.6,3.5,1.3c0.4,0.1,0.8,0.3,1,0.7
	c-12.4,3.7-39.5,5-56-0.7c0.2-0.1,0.3-0.2,0.5-0.3c2.5-1.4,6-1.4,5-1.9c0,0-5.9-0.4-8.3,1c-2.1,1.2-2.2,5.3-0.5,5.6
	c1.3,0.2,1.5-2,2.6-3.6c1.1,4.5,6.6,22.4,26.8,23.3c15.2,0.7,20.1-4.1,20.9-11.5c0.5-4.1,5.8-9,9.2-11.3c0.2,1.3-0.8,3,0.4,3.2
	C845.9,703,847.7,700.5,846.6,698.2z"/>
<path class="st77" d="M790.8,701.5c0,0,6,18.6,24,18.6c16.2,0,18.3-6.2,19.2-10.6c0.6-3.4,2.6-6.3,5.6-8
	C811.7,708.1,790.8,701.5,790.8,701.5z"/>
<path class="st49" d="M796.6,703.6c0,0,0,6,5.5,8.4c7.3,3.1,15.5,3.7,23.2,1.7c5.5-1.3,8.9-10.2,8.9-10.2S818.8,705.9,796.6,703.6z"
	/>
<path class="st49" d="M818.9,713.5c-7.7-0.1-14.3-1.4-17.8-2.9c-3-1.3-3,0.4-2.5,1.9c0,0,0.8,6.2,14.8,7.7
	c12.2,1.3,17.8-6.3,16.5-7.9S826.6,713.6,818.9,713.5z"/>
<path class="st50" d="M796.6,703.5c0.1,0.9,0.2,1.8,0.5,2.6c0,0,29.2-2,35.6,0.6c0.6-1,1.2-2.1,1.5-3.3
	C834.2,703.4,813.6,705.7,796.6,703.5z"/>
<path class="st50" d="M802.7,710.7c11.9,6.3,25.5,1.2,25.5,1.2C813.1,714.5,802.7,710.7,802.7,710.7z"/>
<g>
	<defs>
		<circle id="SVGID_12_" cx="265" cy="665.5" r="109.4"/>
	</defs>
	<clipPath id="SVGID_13_">
		<use xlink:href="#SVGID_12_"  style="overflow:visible;"/>
	</clipPath>
	<g class="st78">
		<rect x="155.6" y="556.1" class="st79" width="218.8" height="218.8"/>
		<path class="st80" d="M240,731.2c-11.2,5.7-12.2,31.7-10.3,43.7H301c2.2-12.5,1.4-40.1-9.6-44.7
			C274.9,723.3,250.9,725.7,240,731.2z"/>
		<path class="st81" d="M265.1,750.4c7.7,0.1,40.3-17.4,17.4-34.4c-6.6-4.9-19.4-5.7-27.3-4.1c-7.8,1.7-13.6,8.3-14.2,16.3
			C240.2,737.6,254.9,750.2,265.1,750.4z"/>
		<path class="st82" d="M265.3,744c6.3,0.1,32.8-14.2,14.2-28.1c-5.4-4-15.8-4.6-22.3-3.3c-6.4,1.4-11.1,6.8-11.6,13.3
			C245.1,733.5,257,743.8,265.3,744z"/>
		<path class="st83" d="M320.7,774.9c0-0.8,0.9-14.5,0.3-20.6c-0.8-8.3-6.4-17.3-21.6-22.1l-6.7,14.3c7.9,3.9,8.9,28.4,8.9,28.4
			L320.7,774.9z"/>
		<path class="st83" d="M289.5,728.9c0,0,15,4.3,16.4,7.1c0.6,1.3-0.5,27.5-2,38.9h-20.3C284.3,765.3,286,737.5,289.5,728.9z"/>
		<path class="st84" d="M286.6,739.6c1.7-2.3,11.8,9.7,10.8,11.7c-0.3,0.6-10.1,20.5-11.3,23.6H283
			C283.6,766.7,284.9,742,286.6,739.6z"/>
		<path class="st84" d="M289.5,726.1c8.1,3.7,11.8,13.7,11.6,15.8c-0.2,2-15.4,3.8-15.2,1.7C286.2,740.8,289.5,726.1,289.5,726.1z"
			/>
		<path class="st83" d="M241.2,728.9c0,0-15,4.3-16.4,7.1c-0.6,1.3,0.5,27.5,2,38.9h20.3C246.4,765.3,244.6,737.5,241.2,728.9z"/>
		<path class="st83" d="M210,774.9c0-0.8-0.9-14.5-0.3-20.6c0.8-8.3,6.4-17.3,21.6-22.1l6.7,14.3c-7.9,3.9-8.9,28.4-8.9,28.4H210z"
			/>
		<path class="st84" d="M244.1,739.6c-1.7-2.3-11.8,9.7-10.8,11.7c0.3,0.6,10.1,20.5,11.3,23.6h3.1
			C247.1,766.7,245.8,742,244.1,739.6z"/>
		<path class="st84" d="M241.2,726.1c-8.1,3.7-11.8,13.7-11.6,15.8s15.4,3.8,15.2,1.7C244.5,740.8,241.2,726.1,241.2,726.1z"/>
		<path class="st85" d="M311.7,579.4c-1.2-3.6-3.3-6.9-6.1-9.5c-4.8,9.8-18.2,15.2-28.6,13.3c1.5-1.2,2.5-3,2.5-5
			c-4.1,0.9-7.9,2.8-12.1,3.6c-16.5,3.1-33,3.5-46.9,14.7c-19.6,15.7-16.6,41.3-12.7,62.8c2.1,11.7,4,24.8,9.5,35.4
			c3.9,7.7,7.9,4.5,13.6,1.4c7.5-3.9,18.5-4.6,26.8-5c8.6-0.4,21-1.1,29,2.6c5.2,2.4,7.9,4.4,13.3,0.3c3.9-3,6.7-7.7,8.7-12.1
			c3.2-7,3.3-14.1,3.9-21.7c0.8-9.8,3.3-17.9,2.5-27.7c-0.3-3.5-4.5-16.6,3.2-27.7c-2.7,0.3-5.4,0.8-8,1.5c5-1.3,3.9-14,3.5-17.3
			C313.5,585.7,312.8,582.5,311.7,579.4z"/>
		<path class="st2" d="M214,683.7c3.6,26.5,24.1,55.6,54.9,53.4c31.4-2.2,47.1-41.2,43-73.9c-4.4-35.5-21.2-65-58-57.9
			C227.6,610.5,209.1,648.2,214,683.7z"/>
		<path class="st86" d="M257.7,633.8c-6.9-2-16.3-3.6-22.9-1.2c-9.3,3.4-10.8,16-14.8,23.9c-2.6-2.5-4.6-5.7-5.5-9.3
			c-0.9-4.2-1-8.7-1.2-13c-0.2-4.6-0.6-9.8,0.9-14.3c1.8-5.4,7.9-8.5,12.8-10.7c8.9-4,19.4-3.5,28.9-3.3c10.8,0.2,21.5,1.9,31.8,5
			c6.8,2,19.7,3.9,22,11.8c3,10-11.6,13.6-18.7,15.3c-12.8,3.2-20.1-0.3-32-3.9L257.7,633.8z"/>
		<path class="st2" d="M207.6,695.1c3.3,1.1,6.9,1.5,10.4,1.1l0.2-0.3c1.5-2.5-0.6-16.2-1.4-18.8c-2-6.5-5.8-9.9-12-8.2
			C191.9,672.5,197.1,691.3,207.6,695.1z"/>
		<path class="st5" d="M212.6,690.4c4.7-3,0.3-13-3.3-14.6c-2.9-1.3-10.1,1.1-6.7,6.7c1.8-5.3,5-1.8,4.5,1.9c-0.3,2.5-3,2.5-0.3,5.8
			C208.2,692,211.1,691.3,212.6,690.4z"/>
		<path class="st85" d="M292,598.1c-11.1-9.4-24.3-10.9-38.2-7.7c-8.5,2-18.2,3.1-25.3,8.6c-5.8,4.5-12,9.2-16,15.4
			c-6.8,10.3-3.4,51.1,1.1,57.1c0.5,0.6,5.9,7.4,8.4,7.2c-1.2-8.8-1.4-17.8-0.7-26.6c0.9-11.9,3.6-24.7,17.1-26.8
			c7.7-1.2,32.2,9.3,37.8,10.5c7.5,1.6,25-6.8,27.6-7.8c6.3-2.6,5.9-9.8,3-14.7C303.1,607.1,297.4,602.6,292,598.1z"/>
		<path class="st10" d="M280.7,682.7c-1.7-2.1-4.1,0.2-8.4,0.3c-4,0-5.5-1.8-8.3-0.1s1.2,6.9,8.2,6.7S282.2,684.5,280.7,682.7z"/>
		<path class="st11" d="M271,663.3c-4.1,0.6-7.8,19.8-6.1,21.2c4.2,3.3,12.9,1,15.4-1.7C281.4,681.8,278,662.3,271,663.3z"/>
		<path class="st62" d="M300.9,693.3c-1.9-1.3-4.2-2.3-6-3.5c0,0.9,0.4,1.7,1,2.3c-8,0.5-16.1,1.1-24.2,1.5
			c-5.3,0.2-10.7,0.6-16,0.7c-3.9,0.1-11.3,0.8-14.4-1.3c1-0.4,2-0.9,2.8-1.6c-2.8-0.2-10.4,2.5-14.2,5.7c3-1.2,7-3,9.6-0.5
			c4.4,4.5,9.3,8.6,14.4,12.2c11.3,7.5,33.3,6.6,39.2-7.7c0.5-1.3,3.1-5.4,5-5.9c0.9-0.2,5.8,1.1,6,1.6
			C303.4,695.4,302.3,694.2,300.9,693.3z"/>
		<path class="st63" d="M241.9,695c0,0,24.6,5.3,56.5-1.6c-3.2,1.3-5.7,3.7-7.3,6.8c-2.1,4.5-9.8,7.7-21.6,7.8
			C258.8,708.1,248.6,703.3,241.9,695z"/>
		<path class="st49" d="M248.7,696c0,0,0.6,4,7.2,5.4c8.8,1.7,17.9,1.9,26.7,0.4c6.3-0.9,9.3-7.2,9.3-7.2S274,698.4,248.7,696z"/>
		<path class="st49" d="M251.9,701.7c-0.7-1-0.4-2.7,2.6-1.2c4.2,2.1,11.2,2.4,19.6,2c7.8-0.4,11.7-2.3,13.2-1.2s-5.3,7.7-18.7,6.8
			C254.6,707.1,251.9,701.7,251.9,701.7z"/>
		<path class="st50" d="M250.4,698.8c0,0,31.4-2.7,38.9-0.6c0,0,2.2-2.2,2.5-3.5c0,0-21.9,3.7-43.2,1.4
			C249,697.1,249.6,698.1,250.4,698.8z"/>
		<path class="st50" d="M257,701.3c0,0,10.6,3.3,24.8,0.4C281.7,701.7,268.3,706.5,257,701.3z"/>
		<path class="st85" d="M224.3,655.5c5.8-7,21.6-7.8,26.2,0.5C241.6,656.4,237.2,655.7,224.3,655.5z"/>
		<path class="st85" d="M312.8,655.8c-4.9-6.9-18.6-7.7-22.6,0.6C297.9,656.8,301.7,656.1,312.8,655.8z"/>
		<path class="st87" d="M253.2,588.4c5.8-1.3,11.7-1.9,17.6-1.8c11.4,0.2,26.7,1.1,34.5-9c7.7,8.8,7,25.8-1.4,34.2
			c-0.1,0,0,0,0.1-0.1c2.7-1.1,5.7-1.7,8.6-1.8c1.5,7.1-13.9,12.6-22.8,18.1c1.5-3.7,5.3-9.3,6.4-13.9c-1.7,1.2-18.5,13.5-19.6,15.4
			c-1.4-1.5,20.2-26.9,20.5-29.2c-1.4,0.7-27.2,24.8-28.5,26.3c-2.4-3,11.8-20.2,12.9-23.8c-1.2,0.3-27.3,16.4-27.3,16.6
			c-0.9-2.9,8.5-10.5,10.1-13c-0.6,0-21.4,8.7-21.2,9.9c-0.4-2.2-0.2-4.5,0.4-6.6c-11.9,0.3-23,5.9-30.2,15.3c0.7-0.9,0-7.7,0.5-9.5
			c0.8-3.2,2.1-6.2,3.7-9c3.1-5.2,8.1-7.8,13.6-10.3C238.1,592.8,245.5,590.2,253.2,588.4z"/>
	</g>
</g>
<path class="st29" d="M244.5,657.6c-6.2-3-10.7,8.1-6.5,12c2.1-0.5,4.3-0.2,6.3,0.8C248.6,668.3,249.2,659.8,244.5,657.6z"/>
<path class="st29" d="M299.3,659.5c-6.3-4.1-11.5,8.1-6.4,11.8c1.7-1,5.1-0.6,6.7,0.3C302.4,668.8,302.7,661.7,299.3,659.5z"/>
<path class="st31" d="M242.2,659.4c-2.6,0.8-0.9,5.8,1.7,4.1C245.8,662.3,244.5,658.8,242.2,659.4z"/>
<path class="st31" d="M296.8,660.7c-2.6,0.4-1.6,5.5,1.1,4.2C299.8,663.9,299,660.3,296.8,660.7z"/>
<text transform="matrix(1 0 0 1 936.92 933.89)" class="st88 st89">Eric Mott</text>
<text transform="matrix(1 0 0 1 936.92 969.89)" class="st88 st90">Planet Rocket Scientist</text>
<text transform="matrix(1 0 0 1 936.92 1027.49)" class="st88 st91">Cool, calm, collected</text>
<text transform="matrix(1 0 0 1 936.92 1056.29)" class="st88 st91">Not afraid of anything</text>
<text transform="matrix(1 0 0 1 936.92 1085.0901)" class="st88 st91">Especially bugs</text>
<text transform="matrix(1 0 0 1 936.92 1235.33)" class="st88 st90">Will Doudna</text>
<text transform="matrix(1 0 0 1 936.92 1271.33)" class="st88 st90">CSS Sensei</text>
<text transform="matrix(1 0 0 1 936.92 1336.1299)" class="st88 st91">Amazing person</text>
<text transform="matrix(1 0 0 1 936.92 1364.9299)" class="st88 st91">When your in doubt, Will it out</text>
<text transform="matrix(1 0 0 1 936.92 1393.73)" class="st88 st91">Surfs servers like waves</text>
<text transform="matrix(1 0 0 1 936.92 612.89)" class="st88 st89">Levi Pole</text>
<text transform="matrix(1 0 0 1 936.92 648.89)" class="st88 st90">Backend Blackbelt</text>
<text transform="matrix(1 0 0 1 936.92 713.69)" class="st88 st91">Words cannot describe</text>
<text transform="matrix(1 0 0 1 936.92 742.49)" class="st88 st91">There is only one word close...</text>
<text transform="matrix(1 0 0 1 936.92 771.29)" class="st88 st91">Inspirational</text>
<text transform="matrix(1 0 0 1 936.92 280.89)" class="st88 st89">Irene Moreno</text>
<text transform="matrix(1 0 0 1 936.92 316.89)" class="st88 st90">The Wrecking Ball</text>
<text transform="matrix(1 0 0 1 936.92 374.49)" class="st88 st91">You need something done?</text>
<text transform="matrix(1 0 0 1 936.92 403.29)" class="st88 st91">She gets your ducks in a row</text>
<text transform="matrix(1 0 0 1 936.92 432.09)" class="st88 st91">Stand tall pineapple</text>
<text transform="matrix(1 0 0 1 386.92 288.89)" class="st88 st89">Adam Hayes</text>
<text transform="matrix(1 0 0 1 386.92 324.89)" class="st88 st90">Strategy Sorcerer</text>
<text transform="matrix(1 0 0 1 386.92 382.49)" class="st88 st91">Wizard of Startups</text>
<text transform="matrix(1 0 0 1 386.92 411.29)" class="st88 st91">Has a vision for the world</text>
<text transform="matrix(1 0 0 1 386.92 440.09)" class="st88 st91">Wears a robe to work</text>
<text transform="matrix(1 0 0 1 386.92 593.89)" class="st88 st89">Alec Levin</text>
<text transform="matrix(1 0 0 1 386.92 629.89)" class="st88 st90">Code Connoisseur</text>
<text transform="matrix(1 0 0 1 386.92 694.69)" class="st88 st91">The greatest of all</text>
<text transform="matrix(1 0 0 1 386.92 723.49)" class="st88 st91">Are the questions Alec asks</text>
<text transform="matrix(1 0 0 1 386.92 752.29)" class="st88 st91">Saves us months in words</text>
<text transform="matrix(1 0 0 1 386.92 918.89)" class="st88 st89">Jason R. Jones</text>
<text transform="matrix(1 0 0 1 386.92 954.89)" class="st88 st90">Money Master</text>
<text transform="matrix(1 0 0 1 386.92 1012.49)" class="st88 st91">The money master</text>
<text transform="matrix(1 0 0 1 386.92 1041.29)" class="st88 st91">Handles business with grace </text>
<text transform="matrix(1 0 0 1 386.92 1070.0901)" class="st88 st91">Mr. Get Stuff Done</text>
<text transform="matrix(1 0 0 1 386.92 1233.89)" class="st88 st89">Kris Anderson</text>
<text transform="matrix(1 0 0 1 386.92 1269.89)" class="st88 st90">Technical Titan</text>
<text transform="matrix(1 0 0 1 386.92 1327.49)" class="st88 st91">A man of honor</text>
<text transform="matrix(1 0 0 1 386.92 1356.29)" class="st88 st91">MVP of MVPs</text>
<text transform="matrix(1 0 0 1 386.92 1385.0901)" class="st88 st91">Can sprint marathons</text>
<text transform="matrix(1 0 0 1 666.505 1514.33)" class="st88 st90">(Your name here)</text>
<text transform="matrix(1 0 0 1 666.505 1550.33)" class="st88 st90">Planet Rocket Member</text>
<text transform="matrix(1 0 0 1 666.505 1615.1299)" class="st88 st91">Wants to change the world</text>
<text transform="matrix(1 0 0 1 666.505 1643.9299)" class="st88 st91">Believes in a bright future</text>
<text transform="matrix(1 0 0 1 666.505 1672.73)" class="st88 st91">All action no talk</text>
<g>
	<defs>
		<circle id="SVGID_14_" cx="547.5" cy="1567.6" r="109.5"/>
	</defs>
	<clipPath id="SVGID_15_">
		<use xlink:href="#SVGID_14_"  style="overflow:visible;"/>
	</clipPath>
	<g class="st92">
		<rect x="437.9" y="1458.1" width="219" height="219"/>
	</g>
</g>
<text transform="matrix(1 0 0 1 470.8151 1596.16)" class="st52 st93 st94">YOU!</text>
<circle class="st95" cx="261.4" cy="1288" r="108.9"/>
<path class="st96" d="M284.7,1361.1c-12.4-5-32.3-3.4-42.6,0.2c-6.3,2.2-5.5,22.2-4.7,39.8h52.2
	C290.5,1383.5,291.1,1363.7,284.7,1361.1z"/>
<path class="st71" d="M244.6,1357.9c-6.3,10.2,18.9,20.6,18.9,20.6s22.3-9.7,19.9-18.9C280.5,1348.8,250.3,1348.8,244.6,1357.9z"/>
<path class="st21" d="M263.2,1344.8c-6.5,0-15.8,3.3-16.4,12c-0.3,4.1,0.4,6.4,2.8,8.7c3.9,3.6,8.6,6.5,13.6,6.6
	c4.9-0.1,9.7-3,13.6-6.6c2.4-2.3,3.1-4.6,2.8-8.7C279,1348.1,269.8,1344.8,263.2,1344.8z"/>
<path class="st96" d="M245.9,1360.1c-12.9,2-26.1,17-28.1,40.9h21.5c0.7-12.4,1.8-25.6,3.8-29.2L245.9,1360.1z"/>
<path class="st96" d="M281,1360.1l2.8,11.7c2,3.6,3.1,16.8,3.8,29.2h21.6C307.1,1377.2,293.9,1362.2,281,1360.1z"/>
<path class="st97" d="M247.7,1213.1c-64,14.8-50.2,90-31.5,86.2c11.4-2.3,22.6-5.3,33.9-8.2c11-2.8,23.9-3.9,34.8-0.1
	c3.3,1.1,6,3.3,9.4,4.2c11.1,2.9,20.3-1.3,21.4-13.2c0.1-0.6,0.1-1.2,0.1-1.9c0.5-9.5-1.6-21-4-29.9
	C304.2,1222.3,274.8,1206.9,247.7,1213.1z"/>
<path class="st98" d="M310.7,1275.9c0.1,1.8-0.6,7.7,2.4,7.3c2.9-0.4,2.8-6.1,2.9-8.1c0.1-3.8-1.6-13.6-1.6-13.6
	C307.4,1262.2,310.4,1271.4,310.7,1275.9z"/>
<path class="st82" d="M257.6,1227.4c-27.7,1.8-54.9,32.4-46.4,65.8c4.4,17.3,4.2,21.5,10.8,38.7c6.8,17.5,23.8,28.5,47.5,27.7
	c21.5-0.8,29.5-11.6,35.5-29.9c4.2-12.9,7.6-27,6.6-43.2C309.5,1252,285.3,1225.6,257.6,1227.4z"/>
<path class="st82" d="M203.3,1286.8c-13.8,3.5-8.8,21.1,2.2,24.6c3.6,1,7.3,1.4,11,1c0.1-0.1,0.2-0.2,0.2-0.3
	c1.7-2.3-0.9-14.1-1.6-16.5C213.2,1289.4,209.9,1285.1,203.3,1286.8z"/>
<path class="st99" d="M293.5,1240.8c-13-2.2-28.5,1.2-41.6,3.5c-9,1.6-18.6,4.8-24.3,12.7c-5.3,7.5-13.4,15.1-12.2,25.3
	c0.3,2.2,5.8,15,6.8,9.8c1.5-7.8,2.7-18.9,4.1-18.6c5.9,1.3,22.2,3.6,28.3,3.2c16.3-1.2,29.2-5,42.9-14.3
	C309.4,1254.5,298.9,1241.7,293.5,1240.8z"/>
<path class="st97" d="M304,1223.2c-10.2-9.1-24.8-13-38.1-14.1c-32.1-2.7-58.2,14.2-64.4,48.3c-2.3,12.7,2.3,25.3,7.8,29.7
	c4.1,3.3,6.2,13.9,13,10.6c2.3-1.1,1.9-3.3,1.2-5.3c-2.3-7.4-3.1-15.8,1.2-22.6c21.1,5.2,50.7-1,70.1-10.2
	c8.9-4.2,15.4-12.5,15.9-21.1C311.1,1233.1,309.1,1227.7,304,1223.2z"/>
<path class="st98" d="M216.7,1270.2c-3.5-1.5-5.6,1.9-8.8,1.4c-3.4-0.5-4.9-3.8-7.2-5.8c-0.6,4.3-0.6,10.1,0.9,13.2
	c2.6,5.4,4.8,3.5,10.2,6.5c6.7,3.8,7.5,10.7,10.7,7.7c-0.8-3.2-1.5-6.5-1.9-9.7C220.2,1279.3,221.4,1272.2,216.7,1270.2z"/>
<path class="st27" d="M210.5,1293.4c-3.5-1.7-13-0.6-9.5,5.3c3-4.7,6.6-0.9,5.4,2.5c-0.8,2.3-4.2,1.9-1.2,5.4
	c1.6,1.9,5.4,1.7,7.4,1.1C219,1305.7,214.7,1295.5,210.5,1293.4z"/>
<path class="st100" d="M286,1283.3c1.2,4.8,6.3,2.8,9.2,2.5c1.9-0.2,6.6,1.2,8.8,0.1c0.3-0.1,0.6-0.3,0.8-0.6
	C310.8,1277.4,283.6,1273.5,286,1283.3z"/>
<path class="st100" d="M230.7,1285.5c0.2,0.3,0.5,0.5,0.8,0.6c2.4,1,7.5-0.4,9.6-0.2c3.2,0.3,8.8,2.4,10.1-2.6
	C253.9,1273.2,224.1,1277.4,230.7,1285.5z"/>
<path class="st101" d="M242.9,1291.1c-5.8-3.4-11,7.3-7.2,11.4c2.1-0.3,4.3,0.1,6.1,1.3C246.1,1302.1,247.2,1293.6,242.9,1291.1z"/>
<path class="st27" d="M288.8,1315.2c-1.1,0.3,0.8,0.8,3.3,1.6c0.4,0.1,0.8,0.4,0.9,0.8c-10.5,6.1-37,10.5-54.6-0.5
	c0.1-0.2,0.3-0.3,0.5-0.4c2.5-1.8,5.9-1.8,5-2.4c0,0-5.7-0.4-8.1,1.3c-2.1,1.6-2.4,6.8-0.8,7.1c1.3,0.2,1.5-2.6,2.7-4.6
	c0.9,5.7,5.6,30,25.3,31c14.8,0.8,19.7-7,20.8-16.4c0.6-5.2,6-11.5,9.4-14.5c0.2,1.6-0.9,3.9,0.3,4.1c1.6,0.3,3.4-3,2.5-5.8
	C295.1,1313.8,288.8,1315.2,288.8,1315.2z"/>
<path class="st102" d="M241.4,1321.1c0,0,5.1,23.5,22.7,23.3c15.8-0.2,18.1-8.1,19.1-13.6c1.3-7.4,5.8-10.2,5.8-10.2
	C262.9,1333.8,241.4,1321.1,241.4,1321.1z"/>
<path class="st103" d="M247,1323.7c0,0-0.2,7.6,5,10.6c6.7,3.9,14.5,4.6,22.5,2c5.4-1.7,9.1-13.1,9.1-13.1S268.2,1329.7,247,1323.7z
	"/>
<path class="st103" d="M268.4,1336.1c-7.5-0.1-13.9-1.6-17.3-3.6c-2.8-1.6-3,0.5-2.5,2.4c0,0,0.5,7.8,14.1,9.6
	c11.9,1.6,17.6-8.1,16.4-10.2C277.9,1332.4,275.9,1336.2,268.4,1336.1z"/>
<path class="st104" d="M247,1323.6c0,0,0,4.2,1.1,6c0,0,27-3.7,33.1-0.5c1-1.9,1.8-3.9,2.5-5.9
	C283.7,1323.2,264.4,1329.5,247,1323.6z"/>
<path class="st104" d="M252.6,1332.7c11.4,7.8,24.8,1.3,24.8,1.3C262.7,1337.5,252.6,1332.7,252.6,1332.7z"/>
<path class="st27" d="M269.1,1308.6c-3.7-0.1-5.3-1.6-7.8-0.4s1,6.5,7.6,6.6s9.6-4.6,8.1-6C275.4,1307.1,273.3,1308.8,269.1,1308.6z
	"/>
<path class="st105" d="M268.9,1290.3c-6.5-0.2-10.2,16.9-6.8,19.4c4.1,3.2,11.9,1.5,14.5-0.5
	C278.5,1307.8,276.7,1290.5,268.9,1290.3z"/>
<path class="st101" d="M292.3,1301.9c1.8-0.9,3.9-1.1,5.9-0.6c3-2.6,4.1-8.5,1-11.1C293.3,1285.3,285.4,1298.7,292.3,1301.9z"/>
<path class="st106" d="M239.7,1293.1c-2.6,0.6-1.3,5.8,1.4,4.3C243,1296.2,242.1,1292.6,239.7,1293.1z"/>
<path class="st106" d="M294.7,1292.1c-2.6,0.2-2.1,5.5,0.7,4.4C297.4,1295.7,297,1291.9,294.7,1292.1z"/>
<circle class="st107" cx="262.3" cy="1284.5" r="111.4"/>
<rect x="208.8" y="1392.4" class="st108" width="107" height="12.7"/>
<rect x="304.8" y="1390.6" class="st108" width="6" height="4"/>
<text transform="matrix(1 0 0 1 518.07 96.48)" class="st88 st109">OUR </text>
<text transform="matrix(1 0 0 1 686.36 96.48)" class="st93 st109">TEAM</text>
<text transform="matrix(1 0 0 1 282.23 171.1)" class="st88 st110">Forget team bios, we have team haikus</text>
<circle class="st1" cx="808.2" cy="1292.9" r="109.3"/>
<g>
	<defs>
		<circle id="SVGID_16_" cx="808.2" cy="1292.9" r="109.3"/>
	</defs>
	<clipPath id="SVGID_17_">
		<use xlink:href="#SVGID_16_"  style="overflow:visible;"/>
	</clipPath>
	<g class="st111">
		<rect x="698.8" y="1183.6" class="st112" width="218.7" height="218.7"/>
		<path class="st113" d="M840.8,1383c0.1-6,1.2-11.8,3-17.5c0.4-1.1,0.3-10.9-31.7-10.9c-29.5,0-33.5,9.2-33,10.3
			c2.6,5.6,4,11.7,3.9,17.9c0,7.5,0.5,13.8,0.9,19.4H840C840.3,1396.7,840.8,1390.4,840.8,1383z"/>
		<path class="st114" d="M791.4,1359.3c-2.5,9.1,20.5,19.6,20.5,19.6s26-11.2,19.5-21.3C825.6,1348.6,794.3,1348.5,791.4,1359.3z"/>
		<path class="st115" d="M811.9,1337.2c-6.6,0-16,4.2-16.7,15.1c-0.3,5.1,0.4,8.1,2.8,10.9c3.9,4.5,8.8,8.2,13.8,8.3
			c5-0.1,9.9-3.8,13.8-8.3c2.5-2.8,3.2-5.8,2.8-10.9C827.9,1341.4,818.5,1337.2,811.9,1337.2z"/>
		<path class="st9" d="M750.3,1216.6L750.3,1216.6z"/>
		<path class="st115" d="M800.2,1218.9c-27.9,6-46.8,46.5-41,84.2c4.4,28.2,26.7,58.8,59.5,55.8c33.4-3,49.3-44.8,44.4-79.5
			C857.7,1241.7,839.2,1210.5,800.2,1218.9z"/>
		<path class="st115" d="M749.2,1287.5c-13.7,4-7.8,24,3.5,27.8c3.6,1.1,7.4,1.4,11.1,1l0.2-0.3c1.6-2.6-1-17.2-1.9-19.9
			C759.9,1289.1,755.7,1285.6,749.2,1287.5z"/>
		<path class="st27" d="M754.1,1294.8c-3.1-1.4-10.8,1.3-7,7.3c1.8-5.6,5.3-2,4.8,2c-0.3,2.7-3.2,2.8-0.3,6.1
			c1.6,1.8,4.7,1.1,6.2,0.1C762.8,1307,757.9,1296.5,754.1,1294.8z"/>
		<g class="st116">
			<path d="M861.1,1293.7c-3.6,32.2,0.2,11.6-11,9.1c-8.8-2-16.1,1.9-28.6,3.2s-25-3.3-35.4-1.1c-10,2.1-12.9,27.1-18.4-7.3
				c-1.6-10-8.5-13.7-6,2.4c0.7,4.7,0.1,10.3,0.9,13c7.6,24.7,27.3,48.6,56,46s43.9-33.1,44.8-63.7
				C863.6,1290,861.8,1287.1,861.1,1293.7z"/>
		</g>
		<path class="st27" d="M821.3,1301.1c-4.2,0.1-5.9-1.8-8.8,0s1.4,7.3,8.8,6.9s10.5-5.6,9-7.4C828.5,1298.5,826,1301,821.3,1301.1z"
			/>
		<path class="st44" d="M819.5,1290.4c-3.4,0.4-7.8,11.1-5.9,12.5c4.5,3.4,13.7,0.8,16.4-2.1C831,1299.7,823.3,1290,819.5,1290.4z"
			/>
		<path class="st27" d="M844.5,1305.2c-1.2,0.3,1,0.7,3.8,1.4c0.5,0.1,0.9,0.4,1.1,0.8c-13.8,4.6-40.6,9.5-61.1,1.8
			c0.2-0.2,0.3-0.3,0.5-0.4c2.7-1.9,6.5-2,5.5-2.6c0,0-6.5-0.2-9,1.6c-2.3,1.6-2.3,6.8-0.5,7c1.5,0.2,1.6-2.6,2.8-4.6
			c1.3,5.6,10,31.5,32,31.7c16.6,0.2,19.5-9.9,20.3-19.2c0.4-5.2,6.2-11.6,9.7-14.6c0.3,1.6-0.7,3.8,0.5,4c1.8,0.3,3.7-3.1,2.5-5.8
			S844.5,1305.2,844.5,1305.2z"/>
		<path class="st117" d="M791.8,1313.1c0,0,6.9,23,26.6,22.1c17.7-0.8,19.8-8.7,20.7-14.2c1.1-7.4,5.9-10.3,5.9-10.3
			C816.5,1324.7,791.8,1313.1,791.8,1313.1z"/>
		<path class="st33" d="M798.2,1315.4c0,0,0.2,7.4,6.2,10.2c7.7,3.5,16.4,3.9,25.3,1c6-1.9,9.5-13.3,9.5-13.3
			S822.2,1320.4,798.2,1315.4z"/>
		<path class="st33" d="M822.8,1326.8c-8.4,0.2-15.6-1-19.5-2.8c-3.3-1.5-3.3,0.6-2.7,2.5c0,0,1,7.7,16.3,8.9
			c13.4,1.1,19.3-8.7,17.8-10.7S831.2,1326.5,822.8,1326.8z"/>
		<path class="st34" d="M798.2,1315.3c0,0,0.2,4.2,1.5,5.9c0,0,30-4.7,37-1.8c1-1.9,1.8-3.9,2.5-6
			C839.2,1313.3,817.9,1320.4,798.2,1315.3z"/>
		<path class="st34" d="M805,1324c13.2,7.3,27.8,0.3,27.8,0.3C816.4,1328.3,805,1324,805,1324z"/>
		<path class="st118" d="M810.5,1350.7c3.4,4.7,24.2,3,19.9-3.7C826.6,1341.1,806.1,1344.7,810.5,1350.7z"/>
		<path class="st119" d="M787.5,1382.6c2.9-3,2.9-23.6-0.6-22.8c-11.9,2.7-26.7,24.1-25.4,42.5h18.5
			C779.4,1395.3,782.7,1387.5,787.5,1382.6z"/>
		<path class="st113" d="M787,1358.1c-14.5,5.2-25.1,19.4-27.1,38.1c6,2.7,15.4,3,21.8,2.8c0.2-6.7,1.8-11.7,6.3-16.4
			C791,1379.5,790.6,1356.8,787,1358.1z"/>
		<path class="st119" d="M835.5,1363.2c-3.2-0.7-3.2,18.2-0.6,20.9c4.4,4.5,7.5,11.7,7,18.2h17
			C860,1385.4,846.4,1365.7,835.5,1363.2z"/>
		<path class="st113" d="M835.3,1361.6c-3.2-1.2-3.6,19.7-0.9,22.6c4.2,4.3,5.7,8.9,5.8,15.1c5.9,0.2,14.5,0,20-2.6
			C858.4,1379.4,848.6,1366.3,835.3,1361.6z"/>
	</g>
</g>
<path class="st101" d="M792.5,1283.7c-2.3-1.1-4.8-1.3-7.2-0.6c-5-4.2-0.4-17.2,6.9-14C797.7,1271.4,797.5,1281.2,792.5,1283.7z"/>
<path class="st101" d="M849.1,1269.6c4,2.4,4,10.6,1,13.9c-1.9-0.9-5.8-1.3-7.7,0C836.2,1279.4,841.7,1265.1,849.1,1269.6z"/>
<path class="st106" d="M789.6,1271.2c2.6-0.9,4.3,3.2,2.2,4.7C788.9,1278,786.7,1272.2,789.6,1271.2z"/>
<path class="st106" d="M846.2,1271.2c2.6-0.5,3.6,3.5,1.5,4.7C844.7,1277.6,843.3,1271.8,846.2,1271.2z"/>
<path class="st120" d="M780,1269c-0.7,0.5-1.7,0.4-2.2-0.3c-0.3-0.4-0.4-1-0.3-1.5c1.4-4.3,6.1-7.6,10.6-8.5c3.7-0.7,10.7,0,13,3.5
	c0.7,1,0.4,2.4-0.6,3.1c-0.6,0.4-1.3,0.5-1.9,0.3c-3.2-0.9-6.5-1.1-9.7-0.5C785.6,1265.8,782.8,1267.4,780,1269z"/>
<path class="st120" d="M852.9,1265.9c1.8,0.6,2.3-1.1,1.8-1.9c-2.2-3.6-6-5.9-10.2-6c-3.4,0-10.1,2.4-11.4,5.9
	c-0.4,1,0.1,2.2,1.1,2.6c0.6,0.2,1.2,0.2,1.7-0.1c2.6-1.3,5.7-2.7,8.7-2.7S850.1,1265.1,852.9,1265.9z"/>
<path class="st35" d="M811,1217.1c-30.5-1.2-53,19.9-52.3,63.4c2.1-0.1,4.2,0.6,5.7,2c2.5,2.6,2.3,5.3,2.9,6.6
	c0.3,0.7,0.6,1.9,3,1.8c-4.1-14.7-0.8-35.1,4.3-41.6c12.9-16.1,40,7,49.3,7c7,0,24.4-20.3,30.5-4.5
	C858.8,1262.5,860,1219,811,1217.1z"/>
</svg>
