<?xml version="1.0" standalone="no"?>
<!DOCTYPE svg PUBLIC "-//W3C//DTD SVG 20010904//EN"
 "http://www.w3.org/TR/2001/REC-SVG-20010904/DTD/svg10.dtd">
<svg version="1.0" xmlns="http://www.w3.org/2000/svg"
 width="876.000000pt" height="584.000000pt" viewBox="0 0 876.000000 584.000000"
 preserveAspectRatio="xMidYMid meet">
<metadata>
Created by potrace 1.15, written by Peter Selinger 2001-2017
</metadata>
<g transform="translate(0.000000,584.000000) scale(0.100000,-0.100000)"
fill="#000000" stroke="none">
<path d="M0 4431 c0 -1219 2 -1413 15 -1438 8 -15 29 -68 46 -116 49 -134 42
-174 -28 -162 l-33 6 0 -1361 0 -1360 3554 0 3554 0 8 78 c4 42 8 104 8 138 1
48 8 73 35 125 18 35 45 80 60 99 15 19 35 47 44 63 32 50 94 87 149 87 60 0
81 -19 98 -88 10 -44 9 -59 -5 -104 -15 -44 -33 -69 -116 -149 -64 -62 -99
-104 -99 -118 0 -11 -5 -20 -12 -19 -6 2 -14 -6 -16 -17 -2 -11 -11 -24 -19
-28 -8 -5 -18 -20 -24 -33 -5 -14 -13 -22 -19 -19 -5 3 -10 1 -10 -4 0 -8 239
-11 785 -11 l785 0 0 453 c0 313 -3 456 -11 464 -8 8 -8 13 0 17 8 5 11 262
11 881 0 956 5 885 -56 885 -14 0 -48 7 -75 16 -42 14 -64 15 -127 7 -43 -6
-122 -8 -177 -4 -55 3 -126 4 -158 1 -32 -3 -63 -3 -69 1 -8 5 -7 102 2 355
21 573 4 1073 -44 1300 -32 150 -75 221 -110 184 -8 -10 -8 -11 1 -6 10 6 11
1 3 -19 -7 -19 -7 -40 1 -68 6 -23 17 -76 24 -117 11 -63 13 -69 15 -35 l2 40
10 -50 c5 -27 13 -52 17 -55 11 -7 31 -222 30 -321 -2 -67 -3 -76 -9 -44 l-7
40 -3 -45 c-3 -45 -3 -45 -10 15 l-7 60 -1 -48 c-1 -27 -11 -92 -21 -145 -14
-69 -23 -181 -31 -392 -13 -342 -18 -411 -31 -426 -7 -8 -6 -13 1 -16 8 -2 9
-37 1 -128 -14 -155 -17 -170 -38 -170 -15 0 -15 1 1 13 18 13 18 15 1 40 -9
15 -22 27 -27 27 -6 0 -19 11 -30 25 -13 16 -29 25 -48 25 -22 0 -45 15 -90
57 -33 31 -60 65 -60 75 0 11 -7 18 -19 18 -25 0 -31 18 -33 98 l-2 67 -3 -57
c-4 -56 -23 -83 -23 -33 0 30 -22 76 -44 94 -9 8 -16 23 -15 35 0 20 1 20 10
-2 11 -29 43 -26 47 4 6 45 -69 74 -98 39 -14 -17 -17 -62 -6 -87 8 -18 -25
-59 -46 -57 -10 0 -10 2 0 6 6 2 12 9 12 14 0 6 -5 7 -11 4 -7 -5 -10 15 -8
62 2 37 -1 74 -5 82 -7 11 6 12 75 7 46 -4 79 -4 73 1 -7 4 -14 17 -17 28 -5
19 -5 19 -12 -2 -13 -41 -26 -24 -23 30 l3 52 35 0 c29 0 36 5 45 28 14 42 -4
51 -132 65 -59 7 -121 16 -138 21 -29 9 -28 9 15 11 l45 2 -43 10 c-63 14 -47
31 44 46 197 33 458 83 475 93 11 5 17 14 14 18 -8 14 21 32 39 25 14 -5 16 3
16 61 0 59 -2 66 -17 61 -64 -19 -247 -58 -353 -75 -69 -11 -136 -23 -149 -27
-19 -6 -23 -4 -18 8 3 10 -3 20 -18 28 -22 12 -24 18 -19 59 3 25 10 51 15 57
7 8 6 14 -3 17 -10 3 -11 8 0 26 15 25 42 101 42 119 0 6 -6 12 -14 12 -7 0
-19 6 -26 14 -6 8 -18 12 -26 9 -23 -8 -17 27 9 48 28 23 62 26 53 3 -4 -11
-1 -14 12 -12 10 2 16 11 14 21 -2 9 3 17 11 17 8 0 21 18 30 40 8 22 14 40
12 40 -2 0 -15 -4 -29 -10 -26 -9 -37 2 -16 15 8 5 8 11 0 20 -8 10 -8 15 1
21 7 4 9 3 5 -4 -11 -18 10 -22 25 -4 41 50 41 49 8 44 -30 -4 -31 -4 -24 26
6 28 4 32 -19 38 -15 3 -31 14 -36 23 -8 14 -11 14 -19 2 -8 -12 -12 -13 -25
-1 -23 19 -28 9 -11 -24 14 -26 13 -29 -8 -47 -12 -10 -26 -18 -30 -19 -10 0
-37 -26 -37 -34 0 -3 9 -6 20 -6 11 0 20 -5 20 -11 0 -5 -3 -8 -8 -5 -4 2 -16
-2 -27 -10 -17 -13 -18 -16 -5 -24 12 -7 8 -10 -13 -10 -16 0 -26 -4 -22 -10
3 -6 -1 -7 -9 -4 -11 4 -16 0 -16 -14 0 -12 4 -24 10 -27 5 -3 8 0 7 7 -2 7
-2 10 0 6 3 -5 12 -8 21 -8 42 -1 -39 -29 -93 -32 -55 -3 -59 -5 -72 -36 -8
-18 -16 -50 -18 -70 -2 -20 -13 -64 -23 -97 -14 -47 -23 -60 -42 -65 -29 -7
-37 -34 -17 -55 12 -11 17 -12 21 -2 3 6 3 -1 -1 -18 -7 -35 -21 -55 -38 -55
-7 0 -15 -7 -19 -15 -3 -8 -13 -15 -23 -15 -16 -1 -16 -2 -3 -13 14 -11 18
-81 8 -127 -2 -9 4 -14 15 -14 9 1 17 -5 17 -13 0 -9 -6 -12 -17 -9 -10 3 -51
6 -90 8 -60 2 -76 -1 -90 -16 -10 -10 -13 -16 -7 -13 14 8 24 -36 24 -104 0
-33 -4 -49 -12 -49 -19 0 13 -20 32 -20 9 0 16 9 16 19 0 11 -4 17 -8 15 -11
-7 -10 90 2 120 8 22 16 26 50 26 24 0 40 -5 40 -12 0 -9 3 -9 11 -1 6 6 20 8
30 6 19 -5 20 -11 13 -102 -4 -53 -8 -104 -8 -113 0 -9 -4 -14 -8 -12 -5 3 -7
13 -6 22 2 11 -4 16 -22 17 -23 0 -25 -4 -30 -60 l-5 -60 -8 53 c-4 29 -5 57
-2 62 4 6 -11 10 -34 10 -21 0 -48 3 -58 6 -17 5 -17 5 0 -6 9 -6 15 -15 12
-20 -3 -5 -6 -47 -7 -92 0 -66 -2 -77 -9 -53 -5 17 -7 38 -5 48 2 9 1 17 -4
17 -12 0 -17 79 -5 84 5 2 4 5 -3 5 -7 1 -10 6 -7 11 4 6 -9 10 -33 10 l-39 0
-13 -60 c-7 -33 -15 -60 -19 -60 -3 0 -7 -20 -8 -44 -1 -39 2 -45 20 -49 l22
-4 -22 -2 c-14 -1 -23 -9 -26 -23 -3 -13 -4 61 -2 163 2 117 7 194 14 205 9
15 10 4 5 -50 -8 -88 12 -88 41 1 11 33 26 67 33 75 11 13 7 14 -28 8 -48 -9
-130 8 -197 41 -29 14 -72 25 -108 27 l-60 4 -17 -41 c-9 -23 -21 -41 -27 -41
-7 0 -4 11 6 26 17 26 17 27 -5 20 -22 -7 -22 -6 -17 51 3 32 8 75 11 96 3 30
1 37 -13 38 -48 3 -74 -17 -48 -37 25 -19 16 -84 -11 -84 -8 0 -14 -4 -14 -10
0 -5 -6 -9 -12 -7 -7 1 -12 -6 -12 -16 2 -15 -3 -17 -30 -11 -35 7 -33 7 -63
5 -13 0 -23 -7 -23 -16 0 -8 -4 -15 -9 -15 -5 0 -9 6 -8 13 1 31 -4 43 -24 55
-16 10 -24 10 -35 1 -10 -8 -14 -8 -14 -1 0 7 -7 9 -17 5 -9 -4 -14 -2 -10 4
8 13 -36 11 -45 -2 -14 -19 -8 -28 9 -14 14 12 16 12 8 0 -6 -11 -4 -13 8 -8
10 3 17 2 17 -3 0 -6 -8 -10 -17 -10 -9 0 -25 -8 -35 -17 -17 -15 -18 -15 -13
-1 4 11 0 18 -14 23 -12 3 -21 13 -21 21 0 8 -5 12 -10 9 -6 -4 -7 -11 -4 -17
5 -8 1 -9 -12 -4 -32 13 -49 14 -56 2 -5 -7 -8 -4 -8 7 0 9 -4 17 -10 17 -14
0 -13 -27 2 -36 8 -5 5 -11 -7 -20 -24 -18 -29 -61 -7 -67 15 -4 15 -5 0 -6
-10 0 -19 -7 -20 -13 -1 -7 -4 91 -7 217 -3 127 -9 235 -13 240 -4 7 -34 8
-85 4 -123 -12 -601 -11 -608 1 -3 6 -45 10 -93 10 -48 0 -82 4 -76 8 16 10 3
36 -19 40 -10 2 -25 -2 -33 -9 -8 -6 -18 -9 -22 -5 -8 9 26 30 48 31 17 0 26
33 13 46 -5 5 -23 -3 -43 -21 -40 -33 -89 -41 -86 -12 0 9 10 20 21 24 38 12
-82 14 -153 2 -33 -5 -33 -6 -16 -25 9 -10 24 -19 33 -19 14 0 14 -2 1 -10
-20 -13 -191 -13 -210 0 -13 9 -13 11 0 20 13 8 13 10 -2 10 -20 0 -28 -19
-16 -42 7 -14 4 -18 -9 -19 -20 -2 -87 2 -90 5 -1 1 1 26 6 55 10 61 5 91 -15
91 -8 0 -11 -6 -7 -17 4 -10 2 -14 -4 -10 -6 4 -13 -20 -17 -64 -3 -38 -13
-80 -21 -92 -21 -32 -34 -204 -42 -550 -4 -207 -10 -296 -17 -294 -13 4 -13
72 -2 397 8 207 7 242 -8 293 -9 31 -22 58 -29 58 -114 12 -315 -2 -328 -23
-4 -6 -8 -79 -8 -162 -1 -83 -4 -179 -8 -213 -4 -50 -2 -68 13 -95 17 -29 18
-48 14 -158 -3 -69 -7 -100 -8 -68 -1 31 -11 85 -22 119 -10 35 -17 65 -15 67
2 3 -4 21 -14 41 -35 69 -53 203 -21 151 8 -13 10 -13 10 0 0 9 -7 25 -15 37
-8 12 -11 24 -6 27 5 3 7 14 5 24 -3 9 3 37 12 62 9 25 22 86 30 135 8 50 19
92 24 93 22 8 71 56 85 83 23 43 18 65 -22 110 -36 39 -39 47 -49 138 -5 53
-7 97 -2 99 4 2 10 4 14 5 6 2 54 -137 54 -159 0 -15 16 -19 24 -6 5 9 -8 71
-23 107 -5 11 -14 38 -20 60 -6 22 -15 56 -21 75 l-10 35 6 -40 5 -40 -16 29
c-17 33 -19 53 -5 58 7 2 6 15 -2 38 l-12 35 -8 -30 c-4 -18 -5 -6 -2 28 5 57
-7 94 -27 81 -5 -3 -9 0 -9 6 0 7 7 10 15 6 19 -7 19 3 1 18 -8 6 -17 28 -21
50 -6 38 -6 38 24 34 17 -3 31 -3 31 -1 0 18 -37 67 -70 93 -22 17 -40 37 -40
44 0 8 -14 29 -30 47 -17 19 -34 50 -39 69 -17 65 -21 100 -11 100 5 0 -9 27
-30 59 -37 56 -102 111 -149 126 -12 3 -21 10 -21 15 0 4 -11 11 -25 14 -14 4
-25 11 -25 16 0 5 -14 17 -31 26 -25 12 -29 18 -18 25 10 6 4 9 -19 9 -43 0
-75 17 -68 36 3 9 -1 14 -13 14 -11 0 -21 6 -23 12 -3 7 -11 13 -19 14 -8 0
-24 2 -36 2 -18 2 -23 8 -22 30 0 23 2 24 8 8 5 -14 10 -16 15 -8 4 7 4 12 -1
12 -4 0 -1 5 7 10 12 8 9 10 -12 10 -16 0 -28 -5 -28 -11 0 -6 -7 -9 -15 -6
-8 4 -17 2 -21 -4 -3 -6 -12 -3 -20 8 -13 17 -15 17 -29 -2 -16 -20 -16 -20
-55 3 -21 12 -52 22 -68 22 -59 0 -172 64 -172 97 0 20 -28 16 -35 -6 -5 -16
-19 -19 -91 -23 -77 -4 -88 -7 -105 -29 -30 -38 -35 -70 -13 -87 18 -13 18
-14 -4 -7 -22 6 -23 5 -17 -17 l7 -23 -17 23 c-13 18 -20 21 -31 11 -11 -9
-14 -9 -14 0 0 7 -5 9 -10 6 -6 -3 -27 0 -47 7 l-37 13 45 6 44 6 -52 1 c-44
2 -51 -1 -48 -15 2 -13 -4 -18 -21 -19 -13 -1 -22 2 -19 6 3 5 -12 6 -32 3
-60 -10 -88 -19 -86 -30 2 -11 -95 -63 -118 -63 -9 0 -27 -11 -40 -24 -19 -19
-88 -41 -114 -37 -3 1 -14 -8 -25 -19 -11 -11 -26 -20 -32 -20 -15 0 -98 -84
-98 -98 0 -5 -9 -12 -21 -15 -12 -3 -18 -10 -15 -15 3 -5 -6 -7 -21 -4 -17 3
-29 0 -35 -11 -4 -9 -14 -14 -21 -11 -20 7 -107 -77 -113 -111 -3 -17 -10 -32
-15 -33 -9 -4 -39 -54 -39 -66 0 -3 7 -3 15 0 8 4 15 1 15 -5 0 -6 -4 -11 -8
-11 -12 0 -34 -51 -27 -59 11 -10 45 40 45 65 0 15 5 22 13 18 8 -3 21 10 32
31 11 19 23 35 27 35 3 0 10 10 14 23 9 32 34 57 56 57 23 0 23 -8 -1 -44 -11
-17 -17 -34 -14 -39 3 -6 0 -15 -8 -21 -8 -6 -23 -41 -33 -78 -10 -37 -24 -69
-31 -72 -11 -4 -11 1 -3 27 6 18 15 36 19 42 5 5 9 13 9 17 0 15 -41 -29 -44
-47 -1 -9 -9 -20 -16 -25 -8 -5 -11 -12 -8 -16 4 -4 -5 -27 -20 -53 -15 -25
-26 -47 -24 -48 1 -2 2 -11 1 -20 -1 -12 -4 -10 -9 7 -6 18 -8 20 -9 7 -1 -10
-8 -25 -16 -33 -8 -9 -15 -29 -15 -45 0 -17 -6 -32 -15 -35 -8 -4 -15 -14 -15
-24 0 -11 -4 -22 -10 -25 -5 -3 -10 -17 -10 -31 0 -14 -5 -35 -12 -47 -7 -12
-13 -26 -14 -32 0 -5 -2 -16 -2 -22 -1 -7 -10 -13 -19 -14 -10 0 -13 -3 -7 -5
13 -6 6 -45 -10 -56 -6 -4 -14 -2 -18 5 -4 7 -8 -3 -8 -23 0 -19 -7 -46 -15
-60 -19 -33 -18 -40 2 -40 15 0 14 -2 -3 -15 -17 -13 -17 -14 -1 -15 11 0 17
-8 18 -22 0 -13 2 -18 4 -13 1 6 8 29 15 53 8 24 19 42 28 42 10 0 13 8 10 30
-4 24 -1 29 11 25 18 -5 45 41 34 59 -3 6 0 5 8 -2 11 -10 9 -20 -13 -62 -15
-28 -25 -57 -22 -65 3 -8 -4 -28 -15 -44 -12 -16 -21 -36 -21 -44 0 -23 -11
-47 -22 -47 -5 0 -8 7 -6 16 2 10 -3 19 -10 22 -10 3 -12 -4 -7 -32 5 -25 4
-36 -5 -36 -7 0 -10 7 -5 18 4 11 3 13 -3 7 -6 -5 -13 -26 -16 -45 -7 -34 -6
-34 7 -11 16 27 29 16 20 -18 -4 -18 -11 -21 -29 -17 -14 4 -24 2 -24 -4 0 -5
7 -10 15 -10 14 0 13 -3 -2 -24 -10 -13 -21 -22 -24 -21 -3 2 -11 -12 -18 -31
-13 -37 -33 -39 -24 -1 l6 22 -25 -23 c-30 -27 -43 -16 -28 24 8 21 7 31 -6
46 -14 14 -15 21 -6 30 9 9 12 7 12 -8 1 -13 5 -10 15 13 16 38 10 79 -11 62
-7 -6 -25 -31 -39 -55 -14 -24 -30 -44 -35 -44 -6 0 -10 -11 -10 -25 0 -18 -5
-25 -20 -25 -18 0 -19 3 -10 20 7 13 8 26 1 37 -7 14 -11 8 -18 -28 -7 -33
-13 -43 -26 -41 -11 2 -15 -2 -11 -13 4 -8 2 -21 -4 -28 -6 -6 -10 -23 -10
-37 1 -14 -3 -41 -7 -60 -8 -33 -8 -34 11 -20 18 14 18 14 4 -5 -27 -36 -41
-65 -30 -65 5 0 10 4 10 9 0 11 31 24 39 16 3 -3 -1 -10 -9 -15 -14 -9 -22
-50 -9 -50 4 0 13 8 19 18 9 14 10 13 4 -8 -4 -14 -11 -26 -15 -28 -5 -2 -9
-10 -9 -18 0 -8 -5 -14 -11 -14 -6 0 -8 -7 -5 -16 3 -8 2 -13 -3 -9 -5 3 -12
-1 -14 -7 -3 -7 -6 -2 -7 12 -2 27 -4 23 -30 -95 -6 -27 -15 -62 -20 -77 -8
-27 3 -40 13 -15 3 6 6 2 6 -10 1 -13 -3 -23 -9 -23 -5 0 -10 -7 -10 -16 0 -8
-4 -13 -9 -9 -5 3 -12 1 -16 -5 -3 -5 -1 -10 4 -10 14 0 14 -12 0 -47 l-12
-28 -7 25 c-3 14 -3 40 1 58 4 17 3 32 -2 32 -5 0 -9 -13 -9 -28 0 -17 -10
-38 -25 -52 -20 -19 -25 -20 -25 -7 0 27 -27 9 -38 -26 l-10 -32 -2 30 -2 30
-8 -35 c-5 -21 -5 -37 1 -41 6 -3 6 -15 0 -32 -6 -15 -8 -35 -6 -44 3 -10 -3
-1 -13 20 -18 35 -20 36 -34 20 -9 -10 -18 -31 -20 -48 -3 -16 -3 -24 -1 -17
3 7 9 10 14 7 5 -4 8 4 6 16 -1 12 4 24 12 27 10 3 12 -5 6 -39 -4 -24 -11
-48 -17 -54 -6 -6 -7 -3 -2 10 5 16 4 17 -5 9 -10 -9 -10 -17 -1 -33 9 -19 8
-25 -12 -41 -30 -24 -37 -17 -12 12 10 13 12 17 4 11 -20 -18 -30 -16 -24 5 4
9 -3 4 -14 -11 -11 -16 -22 -25 -25 -20 -10 15 -1 61 17 88 14 22 14 25 1 25
-8 0 -15 -5 -15 -11 0 -5 -4 -8 -9 -5 -5 4 -12 0 -14 -6 -3 -8 -6 -5 -6 6 -1
12 -6 16 -16 12 -11 -4 -15 3 -16 27 -1 23 -3 26 -6 10 -4 -24 -23 -32 -23
-11 0 6 -11 26 -25 44 -14 18 -25 36 -25 41 0 4 -15 39 -34 78 -19 38 -44 102
-56 140 -12 39 -47 122 -77 185 -71 146 -78 207 -41 350 14 52 31 120 38 150
25 108 69 228 129 358 33 73 61 134 61 137 0 2 31 69 70 149 38 79 70 151 70
159 0 9 5 17 10 19 11 3 20 103 41 433 6 99 15 196 19 215 5 19 17 76 26 125
20 110 50 240 59 255 4 7 -95 10 -314 10 l-321 0 0 -1409z m2188 518 c0 -33
-3 -47 -9 -38 -7 11 -9 9 -10 -6 -4 -37 -6 -149 -7 -292 -1 -85 -5 -144 -12
-148 -5 -3 -10 -1 -10 5 0 7 -7 9 -16 6 -8 -3 -13 -2 -10 3 13 20 15 135 3
150 -10 12 -9 14 6 8 14 -5 17 -1 17 23 0 15 -5 52 -12 81 -10 41 -10 53 0 57
7 2 9 9 5 15 -10 16 -10 97 -1 97 5 0 8 19 9 43 0 32 2 37 9 22 7 -18 8 -18
15 7 11 42 23 25 23 -33z m-355 35 c23 30 35 5 24 -50 -6 -28 -7 -59 -3 -70 7
-18 8 -18 18 -1 5 11 8 31 5 46 -3 15 -2 33 2 40 5 7 8 -1 9 -21 0 -18 6 -34
11 -36 13 -4 15 -69 2 -76 -5 -3 -12 2 -16 12 -6 15 -8 15 -26 -7 -23 -28 -24
-41 -3 -41 9 0 14 6 11 13 -3 8 -1 20 5 28 8 11 9 11 5 -3 -4 -11 0 -15 11
-13 11 1 21 -9 28 -29 11 -30 12 -30 19 32 4 34 11 62 16 62 10 0 4 -98 -8
-130 -19 -48 -23 -55 -19 -33 2 13 0 26 -5 29 -5 3 -9 0 -9 -5 0 -21 -19 -11
-23 12 -3 21 -4 21 -15 -5 -14 -34 -21 -36 -15 -4 3 14 -1 25 -10 29 -10 4
-16 -2 -20 -18 -3 -16 0 -22 7 -18 6 3 1 -5 -11 -18 -14 -16 -20 -32 -17 -46
3 -11 1 -24 -5 -27 -6 -4 -11 -22 -11 -40 0 -30 3 -33 25 -31 27 3 34 -12 10
-21 -8 -4 -16 -16 -16 -28 -1 -19 -2 -19 -6 -2 -3 11 -11 26 -19 34 -12 11
-14 11 -14 -2 0 -9 5 -16 10 -16 6 0 10 -11 10 -25 0 -14 -4 -25 -9 -25 -5 0
-12 -8 -14 -17 -3 -10 -5 -3 -6 15 -1 25 -6 35 -21 39 -25 7 -25 10 1 67 19
44 18 73 -1 61 -5 -3 -12 7 -16 22 -4 15 -14 37 -23 47 -15 18 -15 18 6 7 18
-9 22 -8 27 7 3 9 3 -1 0 -23 -5 -37 -4 -38 9 -20 14 20 32 88 30 113 0 6 4
12 9 12 6 0 8 7 5 15 -4 8 -3 17 2 19 4 3 6 18 3 34 -2 16 1 33 7 36 6 4 12
26 12 49 1 23 3 34 6 24 4 -16 6 -17 16 -3z m297 -746 c-27 -52 -44 -208 -28
-264 10 -38 6 -50 -11 -39 -6 3 -8 12 -5 18 5 9 4 9 -6 0 -14 -13 -6 -48 9
-39 18 11 61 -16 60 -38 0 -12 2 -30 6 -41 4 -15 -1 -23 -23 -33 -16 -7 -35
-23 -42 -37 -7 -14 -21 -25 -30 -25 -21 0 -71 102 -59 121 5 8 9 40 9 71 0 31
5 69 12 85 6 15 12 33 12 38 1 6 7 20 14 33 7 12 10 27 7 33 -4 5 2 24 13 42
10 18 22 45 26 61 10 42 37 79 49 67 6 -6 2 -24 -13 -53z m276 -1297 c-1 -56
8 -70 47 -73 14 -1 29 -9 32 -17 8 -19 -4 -29 -15 -11 -7 12 -12 12 -28 -3
-15 -14 -18 -25 -12 -55 10 -56 26 -79 55 -79 18 0 27 6 31 23 3 13 10 24 14
24 5 0 15 3 24 6 13 5 15 1 10 -24 -3 -17 -1 -32 5 -36 5 -4 8 -12 6 -19 -6
-17 22 -50 35 -42 9 6 9 10 -1 16 -7 4 -11 10 -9 13 3 2 14 -2 24 -10 18 -12
18 -16 5 -40 -7 -15 -14 -32 -15 -38 0 -6 -2 -19 -2 -28 -3 -31 -31 -19 -52
22 -23 46 -76 100 -97 100 -7 0 -18 -11 -25 -24 -10 -24 -12 -24 -35 -9 -44
29 -61 79 -56 158 4 57 2 73 -11 84 -22 19 -20 31 5 28 16 -1 24 6 31 28 5 17
11 36 13 43 10 29 21 8 21 -37z m340 -58 c-3 -4 -1 -12 5 -19 6 -7 13 -26 14
-41 12 -88 41 -208 67 -275 16 -42 27 -82 23 -88 -12 -20 -37 -6 -59 35 -17
29 -29 40 -47 40 -23 1 -24 3 -21 69 2 39 -1 73 -8 81 -6 7 -8 24 -5 38 4 13
1 44 -6 68 -7 24 -11 48 -10 54 1 5 4 21 6 35 1 14 3 26 4 28 0 1 10 -2 22 -8
11 -7 18 -14 15 -17z m1347 -34 c21 -9 26 -21 31 -68 9 -81 13 -85 90 -82 58
2 66 0 66 -16 0 -15 -9 -19 -49 -21 -27 -1 -52 2 -56 7 -3 6 -12 8 -20 4 -9
-3 -21 0 -28 5 -9 8 -20 7 -37 -1 -20 -10 -31 -9 -70 10 -73 37 -80 44 -80 84
0 38 14 49 68 49 12 0 30 9 39 20 20 24 16 23 46 9z m1985 -105 c18 -5 22 -13
22 -50 0 -60 -14 -87 -95 -179 -95 -108 -110 -130 -135 -205 -12 -36 -28 -72
-36 -81 -8 -8 -14 -28 -14 -43 0 -15 -4 -25 -9 -22 -4 3 -6 -6 -3 -19 2 -14 0
-25 -6 -25 -9 0 -26 -50 -22 -66 2 -10 -30 -27 -37 -21 -3 3 2 16 11 29 24 33
21 109 -5 137 -24 25 -59 41 -93 41 -24 0 -32 13 -59 95 -12 37 -13 53 -5 63
9 10 7 20 -6 42 -16 29 -16 29 11 46 96 58 228 153 244 176 11 14 22 40 25 57
l7 31 91 0 c50 0 101 -3 114 -6z m-1349 -51 c8 -17 71 -242 71 -257 0 -3 -13
0 -29 9 -23 11 -31 12 -34 2 -3 -7 -6 -4 -6 6 -1 10 -5 16 -9 13 -12 -7 -15
15 -15 112 l-1 83 -25 -6 c-21 -4 -23 -3 -11 6 12 8 8 10 -16 5 -18 -3 -44 0
-58 7 -28 13 -37 34 -8 22 35 -16 68 -16 87 -1 26 20 42 20 54 -1z m72 -48 c5
-5 20 -23 33 -40 l25 -30 1 33 c0 23 4 31 12 26 7 -5 9 -2 6 8 -4 8 -3 21 2
28 6 9 12 8 27 -7 43 -43 92 -73 128 -79 21 -3 45 -13 53 -21 14 -13 11 -18
-20 -46 -19 -18 -42 -36 -50 -42 -8 -5 -28 -19 -44 -30 -19 -13 -47 -21 -85
-22 -61 -2 -61 -2 -75 67 -2 8 -8 35 -14 60 -13 54 -23 141 -14 120 4 -8 11
-19 15 -25z m-2288 -219 c9 -13 44 -41 79 -62 51 -30 128 -96 128 -109 0 -2
-10 -5 -22 -8 -13 -4 -40 -22 -61 -42 -20 -19 -45 -36 -55 -36 -9 -1 -21 -2
-27 -4 -5 -1 -18 -3 -27 -3 -10 -1 -18 -9 -18 -17 0 -9 -11 -20 -24 -25 -16
-6 -35 -31 -55 -73 -17 -36 -31 -70 -31 -76 0 -18 -38 -13 -49 6 -5 10 -13 15
-16 11 -4 -4 -3 -13 1 -20 5 -7 10 -22 11 -33 3 -35 13 -229 13 -245 -1 -72
-9 -112 -24 -129 -14 -15 -16 -29 -12 -58 11 -65 -8 -76 -63 -36 l-24 17 7
-37 c4 -21 4 -47 1 -58 -6 -19 -8 -19 -43 7 -21 16 -44 36 -53 46 -9 10 -22
18 -29 18 -29 0 -284 240 -331 311 -13 20 -49 68 -80 105 -92 114 -94 118 -73
153 18 30 65 72 159 144 51 39 259 147 282 147 8 0 79 25 160 55 215 82 252
89 276 51z m2685 -46 c-11 -17 -11 -22 0 -29 14 -9 7 -61 -9 -61 -5 0 -9 -4
-9 -9 0 -12 -70 -130 -81 -136 -4 -3 -7 3 -7 12 0 10 -5 46 -13 81 -12 56 -11
67 2 90 8 15 23 26 32 26 9 -1 17 2 17 7 0 5 8 9 19 9 10 0 24 7 31 15 18 22
32 18 18 -5z m-163 -225 c16 -37 9 -47 -48 -69 -56 -21 -77 -58 -84 -149 -3
-39 -10 -78 -16 -84 -13 -18 -102 -16 -138 3 -92 47 -67 196 48 280 21 16 57
46 81 67 l42 38 51 -28 c33 -18 56 -39 64 -58z m-532 -330 c32 -8 79 -15 105
-15 69 0 92 -20 92 -78 0 -38 -7 -55 -33 -89 -17 -23 -43 -61 -57 -83 -14 -23
-38 -49 -55 -57 -41 -22 -75 -49 -69 -56 3 -3 -3 -10 -15 -16 -18 -10 -21 -8
-26 26 -8 45 -38 194 -56 275 -10 44 -10 63 -1 82 14 31 33 32 115 11z m-214
-81 c-7 -27 -15 -53 -19 -59 -8 -10 -13 -40 -11 -63 1 -8 10 -12 23 -10 18 2
24 12 30 48 17 99 36 83 37 -30 1 -36 8 -90 17 -120 21 -73 23 -106 6 -102 -8
1 -16 -6 -19 -17 -4 -17 -9 -19 -24 -10 -10 5 -19 7 -19 5 0 -3 -20 14 -43 37
-34 33 -47 54 -57 97 -7 30 -23 75 -36 99 -25 45 -24 61 3 61 12 0 13 3 4 14
-8 10 -9 16 -1 21 5 3 10 1 10 -4 0 -6 5 -11 10 -11 6 0 10 5 10 11 0 12 80
92 87 86 2 -3 -1 -26 -8 -53z m2409 -130 c15 -9 40 -32 56 -52 26 -35 28 -42
23 -104 -6 -74 -16 -99 -58 -142 -25 -26 -35 -29 -93 -30 -54 -1 -68 2 -80 19
-36 47 -1 237 57 313 13 17 64 15 95 -4z m1727 -858 c15 -31 35 -56 46 -59 31
-8 26 -71 -7 -94 -14 -10 -40 -30 -57 -44 -26 -21 -36 -24 -54 -16 -18 8 -32
3 -75 -24 -29 -18 -55 -36 -58 -40 -11 -13 -53 -17 -80 -7 -23 7 -33 21 -45
59 -10 28 -14 61 -11 75 7 25 83 114 99 114 4 0 26 12 50 27 23 15 69 34 102
44 33 9 61 17 62 18 1 1 13 -23 28 -53z"/>
<path d="M6231 3840 c-65 -7 -96 -28 -63 -43 9 -4 1 -5 -19 -2 -44 7 -78 -3
-57 -17 8 -5 3 -6 -14 -2 -21 5 -28 2 -28 -9 0 -10 16 -17 51 -21 28 -4 71
-14 96 -22 52 -18 153 -10 153 11 0 28 -34 115 -44 114 -6 -1 -40 -5 -75 -9z"/>
</g>
</svg>
